<svg width="388" height="98" viewBox="0 0 388 98" fill="none" xmlns="http://www.w3.org/2000/svg">
<path d="M72.7408 41.552C75.221 41.552 77.2316 39.5414 77.2316 37.0611C77.2316 34.5809 75.221 32.5703 72.7408 32.5703C70.2606 32.5703 68.25 34.5809 68.25 37.0611C68.25 39.5414 70.2606 41.552 72.7408 41.552Z" fill="white"/>
<path d="M75 56.5348L41.3479 89.2925C38.7311 91.8404 34.9303 92.1935 31.8886 90.1869C28.8537 88.1844 27.7631 84.6096 29.1609 81.2851L37.7812 60.023L37.6148 60.0217L23.7066 60.0406L23.7053 54.5445L41.2221 54.535C42.7308 54.512 44.1515 55.4483 44.3598 56.9854C44.372 57.072 44.3815 57.1572 44.3869 57.2425C44.395 57.3656 44.395 57.4874 44.3883 57.6064C44.3883 57.6349 44.3883 57.6646 44.3828 57.693C44.3828 57.739 44.3815 57.7864 44.3774 57.8338C44.3504 58.0584 44.2949 58.2843 44.2083 58.5035L44.1894 58.5509L34.3783 83.2985C34.3729 83.316 34.3661 83.3445 34.3553 83.3675C33.8154 84.6272 34.6502 85.347 35.0332 85.6014C35.4107 85.8558 36.4146 86.3388 37.401 85.3754L71.0531 52.6217C71.8609 51.8329 71.6106 50.9453 71.4712 50.603C71.3264 50.2661 70.8732 49.465 69.742 49.465L27.4032 49.5408C25.0286 49.5462 22.8989 48.5084 21.5187 46.7494C21.1304 46.2677 20.8043 45.7346 20.5499 45.1474C19.3362 42.4318 19.8653 39.3793 21.9138 37.2036L49.1768 10.4805C51.5392 8.05447 55.34 7.64314 58.1259 9.46977C60.9985 11.3505 61.8739 14.786 60.4694 18.2268L54.0194 34.3581L72.2749 34.3391L72.2763 39.8353L50.4121 39.8447C48.9034 39.8677 47.4827 38.9314 47.2743 37.3943C47.2459 37.186 47.2338 36.9763 47.2459 36.7733C47.2459 36.7449 47.2459 36.7151 47.2513 36.6867C47.2513 36.408 47.3095 36.1238 47.4313 35.8343L55.3982 16.1093C55.7121 15.3313 55.5957 14.5072 54.9868 14.1189C54.4997 13.8063 53.7799 13.7428 53.3036 14.2177L26.0393 40.9299C25.835 41.1383 25.7132 41.3534 25.6388 41.5564C25.4129 42.1423 25.5861 42.6754 25.697 42.9203C25.8431 43.2558 26.3005 44.0217 27.41 44.0217L69.7555 43.9459C72.7959 43.9405 75.5115 45.7279 76.6724 48.5017C77.8198 51.266 77.1636 54.4227 75 56.5348Z" fill="white"/>
<path d="M24.4479 62.091C26.9281 62.091 28.9387 60.0804 28.9387 57.6002C28.9387 55.12 26.9281 53.1094 24.4479 53.1094C21.9676 53.1094 19.957 55.12 19.957 57.6002C19.957 60.0804 21.9676 62.091 24.4479 62.091Z" fill="white"/>
<path d="M144.169 66.6963C144.111 66.8506 144.02 66.9805 143.894 67.086C143.769 67.1915 143.606 67.2741 143.403 67.3309C143.202 67.3891 142.97 67.4324 142.71 67.4608C142.451 67.4892 142.148 67.5041 141.801 67.5041C141.455 67.5041 141.146 67.4892 140.877 67.4608C140.608 67.4324 140.372 67.3891 140.169 67.3309C139.968 67.2727 139.804 67.1915 139.678 67.086C139.552 66.9805 139.462 66.8506 139.404 66.6963L130.569 36.0047H130.511L122.427 66.6963C122.387 66.8506 122.316 66.9805 122.21 67.086C122.105 67.1915 121.96 67.2741 121.777 67.3309C121.593 67.3891 121.373 67.4324 121.113 67.4608C120.853 67.4892 120.54 67.5041 120.174 67.5041C119.79 67.5041 119.457 67.4892 119.178 67.4608C118.899 67.4324 118.653 67.3891 118.442 67.3309C118.229 67.2727 118.062 67.1915 117.937 67.086C117.811 66.9805 117.721 66.8506 117.663 66.6963L107.067 31.1553C106.971 30.8469 106.922 30.606 106.922 30.4328C106.922 30.2596 106.984 30.1257 107.11 30.0282C107.234 29.9322 107.428 29.8699 107.688 29.8402C107.948 29.8118 108.288 29.7969 108.713 29.7969C109.137 29.7969 109.474 29.8118 109.724 29.8402C109.974 29.8686 110.167 29.9119 110.302 29.9701C110.436 30.0269 110.528 30.1054 110.577 30.2014C110.624 30.2975 110.667 30.4139 110.706 30.5478L120.09 63.3177H120.118L128.751 30.5478C128.789 30.4139 128.837 30.2975 128.896 30.2014C128.954 30.1054 129.054 30.0282 129.199 29.9701C129.344 29.9119 129.545 29.8686 129.805 29.8402C130.065 29.8118 130.406 29.7969 130.829 29.7969C131.157 29.7969 131.422 29.8118 131.623 29.8402C131.825 29.8686 131.989 29.9119 132.115 29.9701C132.239 30.0269 132.335 30.1054 132.403 30.2014C132.47 30.2975 132.523 30.4139 132.561 30.5478L141.973 63.3177H142.031L151.183 30.5478C151.221 30.4139 151.266 30.2975 151.313 30.2014C151.361 30.1054 151.453 30.0282 151.588 29.9701C151.722 29.9119 151.906 29.8686 152.137 29.8402C152.369 29.8118 152.687 29.7969 153.09 29.7969C153.513 29.7969 153.85 29.8158 154.101 29.8551C154.351 29.8943 154.538 29.9606 154.663 30.0567C154.788 30.1527 154.856 30.288 154.865 30.4612C154.875 30.6344 154.841 30.8658 154.765 31.154L144.169 66.6963Z" fill="white"/>
<path d="M275.367 66.7518C275.367 66.8668 275.338 66.9737 275.28 67.0698C275.222 67.1659 275.122 67.243 274.977 67.3012C274.832 67.3594 274.65 67.4067 274.428 67.446C274.206 67.4838 273.923 67.5041 273.577 67.5041C273.268 67.5041 272.999 67.4838 272.769 67.446C272.537 67.4067 272.355 67.3594 272.221 67.3012C272.085 67.243 271.989 67.1672 271.931 67.0698C271.873 66.9737 271.845 66.8668 271.845 66.7518V33.0578H271.786L257.091 66.9534C257.052 67.0306 256.995 67.1023 256.918 67.1699C256.84 67.2376 256.735 67.2958 256.6 67.3431C256.464 67.3905 256.306 67.4297 256.123 67.4581C255.941 67.4865 255.724 67.5014 255.474 67.5014C255.205 67.5014 254.973 67.4865 254.781 67.4581C254.589 67.4297 254.429 67.3905 254.305 67.3431C254.179 67.2958 254.077 67.2376 254.002 67.1699C253.925 67.1023 253.876 67.0306 253.857 66.9534L239.884 33.0578H239.855V66.7518C239.855 66.8668 239.827 66.9737 239.769 67.0698C239.711 67.1659 239.611 67.243 239.466 67.3012C239.321 67.3594 239.138 67.4067 238.916 67.446C238.694 67.4838 238.401 67.5041 238.036 67.5041C237.708 67.5041 237.433 67.4838 237.213 67.446C236.992 67.4067 236.814 67.3594 236.678 67.3012C236.543 67.243 236.452 67.1672 236.404 67.0698C236.355 66.9724 236.332 66.8668 236.332 66.7518V31.7873C236.332 31.0945 236.515 30.6182 236.88 30.3584C237.245 30.0986 237.603 29.9688 237.949 29.9688H239.854C240.334 29.9688 240.758 30.0215 241.125 30.1271C241.49 30.2326 241.812 30.3868 242.092 30.5884C242.371 30.7901 242.608 31.0363 242.8 31.3245C242.992 31.6141 243.165 31.9415 243.319 32.3068L255.647 61.9877H255.792L268.639 32.4232C268.831 31.9618 269.038 31.5721 269.26 31.2542C269.481 30.9362 269.712 30.6818 269.953 30.4897C270.194 30.2975 270.454 30.1622 270.732 30.0851C271.011 30.008 271.314 29.9701 271.642 29.9701H273.75C273.923 29.9701 274.106 29.9985 274.299 30.0567C274.491 30.1149 274.664 30.215 274.819 30.3598C274.973 30.5046 275.103 30.6913 275.208 30.9227C275.314 31.154 275.367 31.4422 275.367 31.7886V66.7518Z" fill="white"/>
<path d="M316.405 66.1483C316.52 66.4365 316.572 66.6733 316.563 66.856C316.553 67.04 316.486 67.178 316.361 67.2741C316.235 67.3702 316.043 67.4324 315.784 67.4622C315.524 67.4906 315.192 67.5055 314.788 67.5055C314.383 67.5055 314.061 67.4906 313.82 67.4622C313.579 67.4337 313.391 67.3904 313.257 67.3323C313.122 67.2741 313.022 67.1983 312.954 67.1009C312.887 67.0048 312.824 66.8885 312.766 66.7545L309.186 56.7932H292.787L289.351 66.6963C289.312 66.8316 289.255 66.9466 289.178 67.0427C289.101 67.1388 288.996 67.2213 288.86 67.2876C288.725 67.3553 288.537 67.408 288.297 67.4459C288.057 67.4838 287.753 67.5041 287.388 67.5041C286.984 67.5041 286.647 67.4838 286.377 67.4459C286.108 67.4067 285.911 67.3404 285.786 67.243C285.66 67.1469 285.594 67.0116 285.583 66.8384C285.574 66.6652 285.626 66.4338 285.741 66.1456L298.82 30.6047C298.878 30.4504 298.964 30.3205 299.08 30.215C299.195 30.1094 299.344 30.0269 299.528 29.9701C299.71 29.9119 299.932 29.8686 300.192 29.8402C300.452 29.8118 300.746 29.7969 301.073 29.7969C301.419 29.7969 301.722 29.8118 301.982 29.8402C302.242 29.8686 302.463 29.9119 302.647 29.9701C302.829 30.0269 302.974 30.1094 303.08 30.215C303.185 30.3205 303.268 30.4504 303.326 30.6047L316.405 66.1483ZM300.9 33.7532H300.871L293.826 53.8476H308.117L300.9 33.7532Z" fill="white"/>
<path d="M350.174 66.6937C350.174 66.829 350.15 66.944 350.102 67.04C350.054 67.1361 349.963 67.2186 349.828 67.2849C349.692 67.3526 349.506 67.4054 349.265 67.4433C349.024 67.4811 348.721 67.5014 348.356 67.5014C348.028 67.5014 347.753 67.4865 347.533 67.4581C347.311 67.4297 347.123 67.3715 346.97 67.2849C346.816 67.1983 346.691 67.0833 346.595 66.9386C346.499 66.7938 346.413 66.6071 346.335 66.3757L342.842 57.3101C342.437 56.2899 342.004 55.3279 341.543 54.4227C341.082 53.5175 340.523 52.7341 339.869 52.0697C339.214 51.4054 338.425 50.8817 337.501 50.4961C336.577 50.1118 335.47 49.9184 334.181 49.9184H330.312V66.7505C330.312 66.8655 330.284 66.9724 330.226 67.0685C330.168 67.1645 330.072 67.2416 329.938 67.2998C329.802 67.358 329.625 67.4054 329.403 67.4446C329.181 67.4825 328.898 67.5028 328.551 67.5028C328.223 67.5028 327.945 67.4825 327.713 67.4446C327.482 67.4054 327.299 67.358 327.165 67.2998C327.03 67.2416 326.934 67.1659 326.876 67.0685C326.819 66.9724 326.789 66.8655 326.789 66.7505V31.7873C326.789 31.0945 326.972 30.6182 327.337 30.3584C327.702 30.0986 328.06 29.9688 328.406 29.9688H335.422C336.346 29.9688 337.11 29.9931 337.718 30.0405C338.324 30.0892 338.877 30.1514 339.378 30.2285C340.803 30.4789 342.044 30.8834 343.103 31.4409C344.161 31.9997 345.038 32.6871 345.731 33.5057C346.423 34.3243 346.939 35.2471 347.276 36.2767C347.613 37.3064 347.781 38.4186 347.781 39.612C347.781 40.8433 347.607 41.9461 347.261 42.9176C346.915 43.8891 346.423 44.7469 345.789 45.4871C345.154 46.2285 344.394 46.8685 343.508 47.4071C342.621 47.9456 341.65 48.3989 340.592 48.7642C341.226 49.0524 341.799 49.4096 342.31 49.8318C342.82 50.2553 343.291 50.7654 343.724 51.3621C344.157 51.9588 344.566 52.6475 344.951 53.4268C345.336 54.2062 345.721 55.0776 346.105 56.0396L349.599 64.7588C349.849 65.4326 350.008 65.8953 350.075 66.1443C350.14 66.396 350.174 66.5786 350.174 66.6937ZM343.966 39.9868C343.966 38.3889 343.61 37.0372 342.899 35.9304C342.186 34.8235 340.994 34.0293 339.318 33.549C338.76 33.3947 338.153 33.2838 337.5 33.2175C336.845 33.1498 335.989 33.116 334.93 33.116H330.311V46.8307H335.681C337.125 46.8307 338.366 46.6534 339.406 46.2962C340.446 45.9403 341.307 45.4546 341.991 44.8376C342.674 44.2219 343.175 43.5008 343.493 42.6727C343.808 41.8446 343.966 40.9502 343.966 39.9868Z" fill="white"/>
<path d="M387.993 31.5843C387.993 31.8346 387.974 32.0565 387.935 32.2487C387.897 32.4408 387.839 32.6005 387.762 32.7249C387.685 32.8508 387.589 32.9468 387.472 33.0131C387.357 33.0808 387.231 33.1146 387.097 33.1146H375.954V66.7505C375.954 66.8655 375.925 66.9724 375.867 67.0685C375.809 67.1645 375.713 67.2416 375.579 67.2998C375.443 67.358 375.261 67.4054 375.029 67.4446C374.798 67.4825 374.519 67.5028 374.192 67.5028C373.864 67.5028 373.586 67.4825 373.354 67.4446C373.123 67.4054 372.94 67.358 372.805 67.2998C372.67 67.2416 372.574 67.1659 372.517 67.0685C372.459 66.9724 372.43 66.8655 372.43 66.7505V33.1146H361.286C361.132 33.1146 361.002 33.0808 360.897 33.0131C360.79 32.9455 360.699 32.8494 360.622 32.7249C360.545 32.6005 360.487 32.4408 360.449 32.2487C360.41 32.0565 360.391 31.8346 360.391 31.5843C360.391 31.3151 360.41 31.0796 360.449 30.8767C360.487 30.6751 360.545 30.5059 360.622 30.372C360.699 30.238 360.79 30.1365 360.897 30.0689C361.002 30.0012 361.132 29.9688 361.286 29.9688H387.097C387.231 29.9688 387.357 30.0026 387.472 30.0689C387.587 30.1365 387.683 30.238 387.762 30.372C387.839 30.5073 387.896 30.6751 387.935 30.8767C387.973 31.0783 387.993 31.3151 387.993 31.5843Z" fill="white"/>
<path d="M185.933 65.6633C185.933 65.9109 185.912 66.1288 185.872 66.3195C185.831 66.5103 185.768 66.6713 185.677 66.8039C185.588 66.9379 185.482 67.0367 185.362 67.103C185.241 67.1706 185.111 67.2031 184.972 67.2031H166.768C166.408 67.2031 166.037 67.0746 165.657 66.8175C165.277 66.5604 165.086 66.0895 165.086 65.4062V32.0938C165.086 31.4091 165.277 30.9396 165.657 30.6825C166.037 30.4254 166.408 30.2969 166.768 30.2969H184.701C184.842 30.2969 184.972 30.3307 185.091 30.397C185.211 30.4633 185.312 30.5634 185.391 30.696C185.471 30.83 185.532 30.9951 185.573 31.1953C185.612 31.3956 185.632 31.6283 185.632 31.8948C185.632 32.1425 185.612 32.3603 185.573 32.5511C185.532 32.7419 185.473 32.8988 185.391 33.022C185.31 33.1451 185.211 33.2411 185.091 33.3074C184.971 33.3751 184.841 33.4076 184.701 33.4076H168.751V46.3848H182.509C182.669 46.3848 182.81 46.4187 182.93 46.485C183.051 46.5513 183.149 46.6473 183.231 46.7704C183.31 46.8949 183.37 47.0559 183.411 47.2548C183.45 47.4551 183.47 47.6878 183.47 47.9544C183.47 48.202 183.45 48.4158 183.411 48.5957C183.37 48.7771 183.31 48.9232 183.231 49.0382C183.149 49.1518 183.049 49.2371 182.93 49.2953C182.81 49.3521 182.669 49.3805 182.509 49.3805H168.751V64.0978H184.972C185.111 64.0978 185.243 64.1316 185.362 64.1979C185.482 64.2642 185.588 64.3603 185.677 64.4834C185.768 64.6066 185.832 64.7689 185.872 64.9678C185.912 65.164 185.933 65.3968 185.933 65.6633Z" fill="white"/>
<path d="M206.152 52.0922C206.23 51.8988 206.357 51.7283 206.526 51.6024C206.648 51.5118 206.805 51.4252 206.999 51.3738C207.578 51.2195 208.059 51.501 208.164 51.5659C208.164 51.5659 208.228 51.6078 208.283 51.6484C208.798 52.0462 208.992 52.7336 208.753 53.3425L203.495 66.6066C203.491 66.6174 203.487 66.6336 203.481 66.6445C203.192 67.3183 203.639 67.7039 203.846 67.8392C204.047 67.9772 204.583 68.2357 205.111 67.7202L223.111 50.1966C223.544 49.7744 223.41 49.3022 223.334 49.1182C223.258 48.9383 223.013 48.5093 222.41 48.5107L199.762 48.5499C198.493 48.5526 197.355 47.9979 196.615 47.0561C196.409 46.7977 196.234 46.5122 196.097 46.1996C195.45 44.7465 195.732 43.1147 196.828 41.9483L211.411 27.6545C212.675 26.3583 214.707 26.1364 216.197 27.1147C217.732 28.1227 218.202 29.9601 217.451 31.8003L213.363 42.0241C213.052 42.7683 212.307 43.2648 211.507 43.0402C210.709 42.8197 210.142 42.0336 210.476 41.219L214.739 30.6665C214.907 30.2524 214.846 29.8127 214.519 29.6029C214.259 29.4365 213.875 29.4027 213.618 29.6544L199.034 43.9454C198.927 44.055 198.863 44.1714 198.819 44.2796C198.7 44.5922 198.791 44.8777 198.852 45.009C198.927 45.1889 199.175 45.5989 199.768 45.5975L222.415 45.5583C224.044 45.5556 225.495 46.5109 226.116 47.9938C226.733 49.4741 226.381 51.1613 225.222 52.2911L207.222 69.812C205.824 71.1745 203.79 71.3667 202.163 70.291C200.54 69.2193 199.954 67.3075 200.703 65.5282L206.152 52.0922Z" fill="url(#paint0_linear_1487_5194)"/>
<path d="M48.5674 97.6896C75.3905 97.6896 97.1349 75.9452 97.1349 49.1221C97.1349 22.2991 75.3905 0.554688 48.5674 0.554688C21.7444 0.554688 0 22.2991 0 49.1221C0 75.9452 21.7444 97.6896 48.5674 97.6896Z" fill="url(#paint1_linear_1487_5194)"/>
<path d="M72.5885 40.3645C75.0687 40.3645 77.0793 38.3539 77.0793 35.8736C77.0793 33.3934 75.0687 31.3828 72.5885 31.3828C70.1083 31.3828 68.0977 33.3934 68.0977 35.8736C68.0977 38.3539 70.1083 40.3645 72.5885 40.3645Z" fill="black"/>
<path d="M74.8477 56.2904L41.1956 89.0481C38.5787 91.5959 34.778 91.9491 31.7363 89.9425C28.7014 87.94 27.6108 84.3652 29.0085 81.0407L37.6289 59.7786L37.4625 59.7772L25.5271 59.7962L25.5257 54.3L41.0697 54.2906C42.5784 54.2676 43.9991 55.2039 44.2075 56.741C44.2197 56.8276 44.2292 56.9128 44.2346 56.9981C44.2427 57.1212 44.2427 57.243 44.2359 57.362C44.2359 57.3904 44.2359 57.4202 44.2305 57.4486C44.2305 57.4946 44.2291 57.542 44.2251 57.5893C44.198 57.8139 44.1426 58.0399 44.056 58.2591L44.037 58.3065L34.2259 83.054C34.2205 83.0716 34.2138 83.1 34.2029 83.123C33.6631 84.3827 34.4979 85.1026 34.8808 85.357C35.2583 85.6113 36.2623 86.0944 37.2487 85.131L70.9008 52.3773C71.7085 51.5885 71.4582 50.7009 71.3189 50.3586C71.1741 50.0216 70.7208 49.2206 69.5897 49.2206L27.2509 49.2964C24.8763 49.3018 22.7465 48.264 21.3664 46.505C20.9781 46.0233 20.652 45.4902 20.3976 44.903C19.1839 42.1874 19.713 39.1349 21.7615 36.9592L49.8471 9.29301C52.2095 6.86697 56.0103 6.45564 58.7962 8.28228C61.6688 10.163 62.5442 13.5985 61.1398 17.0393L54.6897 33.1706L72.9453 33.1516L72.9466 38.6478L51.0824 38.6572C49.5738 38.6803 48.153 37.7439 47.9447 36.2068C47.9163 35.9985 47.9041 35.7887 47.9162 35.5858C47.9162 35.5574 47.9163 35.5276 47.9217 35.4992C47.9217 35.2205 47.9798 34.9363 48.1016 34.6468L56.0685 14.9218C56.3824 14.1438 56.266 13.3197 55.6571 12.9314C55.17 12.6189 54.4502 12.5553 53.9739 13.0302L25.887 40.6855C25.6827 40.8939 25.5609 41.109 25.4865 41.312C25.2605 41.8978 25.4337 42.431 25.5447 42.6759C25.6908 43.0114 26.1481 43.7772 27.2576 43.7772L69.6032 43.7015C72.6435 43.6961 75.3591 45.4835 76.5201 48.2573C77.6675 51.0216 77.0112 54.1783 74.8477 56.2904Z" fill="black"/>
<path d="M24.2447 61.8332C26.7249 61.8332 28.7356 59.8226 28.7356 57.3424C28.7356 54.8622 26.7249 52.8516 24.2447 52.8516C21.7645 52.8516 19.7539 54.8622 19.7539 57.3424C19.7539 59.8226 21.7645 61.8332 24.2447 61.8332Z" fill="black"/>
<defs>
<linearGradient id="paint0_linear_1487_5194" x1="197.307" y1="61.4994" x2="229.647" y2="47.4276" gradientUnits="userSpaceOnUse">
<stop stop-color="#39A6CE"/>
<stop offset="1" stop-color="#3A58A7"/>
</linearGradient>
<linearGradient id="paint1_linear_1487_5194" x1="4.92147" y1="76.977" x2="92.0572" y2="21.9815" gradientUnits="userSpaceOnUse">
<stop stop-color="#39A6CE"/>
<stop offset="1" stop-color="#3A58A7"/>
</linearGradient>
</defs>
</svg>
