<svg width="2107" height="1993" viewBox="0 0 2107 1993" fill="none" xmlns="http://www.w3.org/2000/svg">
<g style="mix-blend-mode:screen">
<path d="M1647.63 1930.39C1648.7 1936.18 1543.63 1954.51 1412.96 1971.27C1282.27 1988.11 1175.49 1997.03 1174.41 1991.24C1173.33 1985.46 1278.41 1967.13 1409.07 1950.37C1539.77 1933.52 1646.55 1924.6 1647.63 1930.39Z" fill="url(#paint0_radial_1446_28)"/>
</g>
<g style="mix-blend-mode:screen">
<path d="M929.99 0.964649C938.043 12.7776 736.635 163.664 480.145 337.794C223.672 512.153 9.26042 643.78 1.20759 631.968C-6.84524 620.155 194.563 469.268 451.053 295.138C707.526 120.779 921.938 -10.8482 929.99 0.964649Z" fill="url(#paint1_radial_1446_28)"/>
</g>
<path opacity="0.32" d="M317.93 1677.55C318.747 1678.83 386.835 1638.16 470.066 1586.71C553.297 1535.26 620.1 1492.5 619.321 1491.22C618.543 1489.94 550.416 1530.61 467.185 1582.06C383.954 1633.51 317.151 1676.27 317.93 1677.55Z" fill="white"/>
<path style="mix-blend-mode:screen" d="M574.383 1534.55C588.627 1523.43 596.47 1509.65 591.827 1503.75C587.185 1497.86 571.949 1502.13 557.706 1513.25C543.462 1524.37 535.619 1538.15 540.262 1544.05C544.904 1549.95 560.14 1545.67 574.383 1534.55Z" fill="url(#paint2_radial_1446_28)"/>
<path style="mix-blend-mode:screen" d="M520.558 1568.81C532.953 1559.13 539.264 1546.52 534.666 1540.62C530.068 1534.72 516.275 1537.83 503.88 1547.51C491.484 1557.19 485.174 1569.8 489.771 1575.7C494.369 1581.59 508.162 1578.49 520.558 1568.81Z" fill="url(#paint3_radial_1446_28)"/>
<path style="mix-blend-mode:screen" d="M468.044 1600.48C480.485 1590.76 486.795 1578.15 482.198 1572.25C477.6 1566.35 463.807 1569.46 451.367 1579.19C438.926 1588.91 432.615 1601.52 437.213 1607.42C441.811 1613.31 455.604 1610.21 468.044 1600.48Z" fill="url(#paint4_radial_1446_28)"/>
<path style="mix-blend-mode:screen" d="M410.398 1633.58C423.109 1624.62 429.915 1612.37 425.588 1606.3C421.261 1600.22 407.468 1602.56 394.757 1611.52C382.046 1620.52 375.239 1632.72 379.567 1638.8C383.894 1644.88 397.687 1642.54 410.398 1633.58Z" fill="url(#paint5_radial_1446_28)"/>
<path style="mix-blend-mode:screen" d="M361.812 1665.57C374.613 1655.58 381.284 1642.7 376.687 1636.8C372.089 1630.91 357.981 1634.28 345.179 1644.28C332.378 1654.27 325.707 1667.15 330.305 1673.05C334.902 1678.95 349.011 1675.57 361.812 1665.57Z" fill="url(#paint6_radial_1446_28)"/>
<path opacity="0.32" d="M2106.51 1729.74C2107.29 1728.44 2040.68 1685.39 1957.7 1633.52C1874.73 1581.66 1806.81 1540.68 1806.01 1541.95C1805.2 1543.21 1871.84 1586.3 1954.81 1638.16C2037.79 1690.03 2105.71 1731 2106.51 1729.74Z" fill="white"/>
<path style="mix-blend-mode:screen" d="M1864.75 1563.07C1848.48 1555.22 1832.65 1554.28 1829.42 1561.06C1826.18 1567.83 1836.76 1579.6 1853.04 1587.45C1869.32 1595.3 1885.14 1596.24 1888.38 1589.46C1891.61 1582.69 1881.03 1570.92 1864.75 1563.07Z" fill="url(#paint7_radial_1446_28)"/>
<path style="mix-blend-mode:screen" d="M1919.29 1596.17C1905.13 1589.34 1891.03 1589.26 1887.77 1595.99C1884.52 1602.73 1893.41 1613.72 1907.58 1620.55C1921.74 1627.38 1935.84 1627.46 1939.1 1620.73C1942.35 1613.99 1933.46 1603 1919.29 1596.17Z" fill="url(#paint8_radial_1446_28)"/>
<path style="mix-blend-mode:screen" d="M1970.94 1629.24C1956.71 1622.39 1942.62 1622.31 1939.36 1629.04C1936.11 1635.77 1945 1646.77 1959.23 1653.62C1973.45 1660.47 1987.55 1660.55 1990.8 1653.82C1994.06 1647.08 1985.17 1636.09 1970.94 1629.24Z" fill="url(#paint9_radial_1446_28)"/>
<path style="mix-blend-mode:screen" d="M2026.13 1666.28C2012.47 1658.85 1998.48 1658.16 1994.94 1664.73C1991.41 1671.3 1999.61 1682.64 2013.27 1690.07C2026.97 1697.48 2040.93 1698.19 2044.46 1691.62C2048 1685.04 2039.79 1673.71 2026.13 1666.28Z" fill="url(#paint10_radial_1446_28)"/>
<path style="mix-blend-mode:screen" d="M2076.33 1695.69C2061.7 1688.64 2047.2 1688.36 2043.94 1695.09C2040.69 1701.82 2049.96 1712.98 2064.59 1720.03C2079.22 1727.09 2093.72 1727.37 2096.97 1720.64C2100.23 1713.91 2090.95 1702.75 2076.33 1695.69Z" fill="url(#paint11_radial_1446_28)"/>
<path d="M1237.98 1745C788.964 1745 424.964 1534.89 424.964 1275.71C424.964 1016.52 788.964 806.414 1237.98 806.414C1687 806.414 2051 1016.52 2051 1275.71C2051 1534.89 1687 1745 1237.98 1745Z" fill="url(#paint12_linear_1446_28)"/>
<path d="M1098.82 1533.7C1016.26 1533.7 949.333 1495.07 949.333 1447.41C949.333 1399.76 1016.26 1361.12 1098.82 1361.12C1181.38 1361.12 1248.31 1399.76 1248.31 1447.41C1248.31 1495.07 1181.38 1533.7 1098.82 1533.7Z" fill="#EDF7FC"/>
<path d="M709.924 1482.63C627.363 1482.63 560.434 1444 560.434 1396.34C560.434 1348.69 627.363 1310.05 709.924 1310.05C792.485 1310.05 859.414 1348.69 859.414 1396.34C859.414 1444 792.485 1482.63 709.924 1482.63Z" fill="#EDF7FC"/>
<path d="M1527.6 1663.12C1445.04 1663.12 1378.11 1624.48 1378.11 1576.83C1378.11 1529.17 1445.04 1490.54 1527.6 1490.54C1610.16 1490.54 1677.09 1529.17 1677.09 1576.83C1677.09 1624.48 1610.16 1663.12 1527.6 1663.12Z" fill="#EDF7FC"/>
<path d="M1859.06 1474.31C1863.29 1471.89 1866.72 1465.67 1866.72 1460.47V707.756C1866.72 702.555 1863.07 696.234 1858.59 693.633L972.854 182.443C968.339 179.842 961.294 179.698 957.067 182.154C952.84 184.574 949.408 190.786 949.408 195.987V948.705C949.408 953.906 953.057 960.227 957.537 962.827L1843.24 1474.05C1847.76 1476.65 1854.8 1476.8 1859.03 1474.34L1859.06 1474.31Z" fill="#455A64"/>
<path d="M1844.83 1474.74C1844.83 1474.74 1845.05 1474.85 1845.15 1474.85C1845.41 1474.99 1845.7 1475.07 1845.95 1475.14C1846.13 1475.21 1846.31 1475.28 1846.56 1475.32C1846.89 1475.43 1847.28 1475.54 1847.68 1475.57C1847.9 1475.64 1848.19 1475.72 1848.44 1475.72C1848.8 1475.79 1849.27 1475.86 1849.67 1475.9C1853.03 1476.26 1856.53 1475.75 1859.03 1474.27C1863.29 1471.81 1866.65 1465.64 1866.65 1460.47V804.266L1851.37 813.115V1469.29C1851.37 1472.97 1849.52 1475.1 1846.85 1475.1C1846.49 1475.1 1846.13 1475.07 1845.77 1474.96C1845.7 1474.96 1845.66 1474.96 1845.59 1474.92C1845.33 1474.88 1845.05 1474.81 1844.79 1474.7L1844.83 1474.74Z" fill="url(#paint13_linear_1446_28)"/>
<path opacity="0.81" d="M1844.83 1474.74C1844.83 1474.74 1845.05 1474.85 1845.15 1474.85C1845.41 1474.99 1845.7 1475.07 1845.95 1475.14C1846.13 1475.21 1846.31 1475.28 1846.56 1475.32C1846.89 1475.43 1847.28 1475.54 1847.68 1475.57C1847.9 1475.64 1848.19 1475.72 1848.44 1475.72C1848.8 1475.79 1849.27 1475.86 1849.67 1475.9C1853.03 1476.26 1856.53 1475.75 1859.03 1474.27C1863.29 1471.81 1866.65 1465.64 1866.65 1460.47V804.266L1851.37 813.115V1469.29C1851.37 1472.97 1849.52 1475.1 1846.85 1475.1C1846.49 1475.1 1846.13 1475.07 1845.77 1474.96C1845.7 1474.96 1845.66 1474.96 1845.59 1474.92C1845.33 1474.88 1845.05 1474.81 1844.79 1474.7L1844.83 1474.74Z" fill="#E0E0E0"/>
<path d="M1851.41 813.154L1866.72 804.305V950.044L1851.41 958.966V813.154Z" fill="url(#paint14_linear_1446_28)"/>
<path opacity="0.15" d="M1851.41 813.154L1866.72 804.305V950.044L1851.41 958.966V813.154Z" fill="black"/>
<path d="M1849.06 708.583C1850.54 711.112 1851.44 714.001 1851.44 716.602V813.112L1866.76 804.262V707.789C1866.76 707.464 1866.76 707.139 1866.72 706.814C1866.65 706.127 1866.54 705.441 1866.4 704.791C1866 703.093 1865.28 701.324 1864.37 699.734L1849.09 708.583H1849.06Z" fill="#263238"/>
<path d="M949.442 195.989V239.512L1598.66 614.246C1603.14 616.846 1606.79 614.751 1606.79 609.55V593.08C1606.79 587.879 1610.44 585.784 1614.96 588.384L1812.68 702.52C1817.19 705.121 1820.84 711.441 1820.84 716.643V733.113C1820.84 738.314 1824.49 744.635 1828.97 747.235L1851.4 760.166V716.643C1851.4 711.441 1847.75 705.121 1843.27 702.52L957.57 191.257C953.091 188.657 949.442 190.752 949.442 195.953V195.989Z" fill="#37474F"/>
<path d="M949.406 948.666C949.406 953.867 953.054 960.188 957.57 962.789L1843.27 1474.02C1847.75 1476.62 1851.4 1474.52 1851.4 1469.32V760.162L1828.97 747.231C1824.49 744.63 1817.19 705.116 1812.68 702.516L1618.28 590.294C1613.76 587.694 1603.14 616.878 1598.66 614.277L949.442 239.508V948.666H949.406Z" fill="url(#paint15_linear_1446_28)"/>
<path opacity="0.9" d="M949.406 948.666C949.406 953.867 953.054 960.188 957.57 962.789L1843.27 1474.02C1847.75 1476.62 1851.4 1474.52 1851.4 1469.32V760.162L1828.97 747.231C1824.49 744.63 1817.19 705.116 1812.68 702.516L1618.28 590.294C1613.76 587.694 1603.14 616.878 1598.66 614.277L949.442 239.508V948.666H949.406Z" fill="white"/>
<g opacity="0.4">
<path d="M953.054 245.756V948.666C953.018 952.567 955.981 957.696 959.376 959.646L1845.08 1470.87C1846.06 1471.45 1846.67 1471.49 1846.89 1471.49C1847.75 1471.49 1847.79 1469.64 1847.79 1469.28V762.22L1827.16 750.301C1823.95 748.459 1821.92 742.138 1817.37 725.885C1815.31 718.589 1812.24 707.609 1810.58 705.441L1617.77 594.159C1616.11 596.037 1613.3 600.949 1611.56 604.056C1606.36 613.23 1603.43 617.998 1599.24 617.998C1598.41 617.998 1597.54 617.781 1596.82 617.347L953.054 245.756ZM949.442 239.508L1598.66 614.241C1598.84 614.35 1599.06 614.422 1599.28 614.422C1603.83 614.422 1613.08 590.114 1617.67 590.114C1617.88 590.114 1618.1 590.15 1618.28 590.294L1812.68 702.516C1817.19 705.116 1824.49 744.63 1828.97 747.231L1851.4 760.161V1469.32C1851.4 1473 1849.56 1475.13 1846.89 1475.13C1845.8 1475.13 1844.57 1474.77 1843.27 1474.02L957.57 962.788C953.054 960.188 949.406 953.867 949.406 948.666V292.494L949.442 239.508Z" fill="url(#paint16_linear_1446_28)"/>
</g>
<path d="M1851.4 813.154V958.966L949.442 438.384V292.5L1851.4 813.154Z" fill="url(#paint17_linear_1446_28)"/>
<path d="M949.442 239.508V292.494L1851.4 813.148V760.162L1834.64 750.446C1830.16 747.845 1828.64 743.908 1826.51 736.323L1820.84 716.602C1819.03 709.74 1817.19 705.08 1812.68 702.48L1618.28 590.258C1613.76 587.658 1610.22 587.369 1606.79 593.039L1599.82 605.681C1597.26 610.088 1595.99 612.688 1591.51 610.088L949.442 239.508Z" fill="#F0F0F0"/>
<path d="M987.666 223.29C981.994 220.003 977.406 222.676 977.406 229.213C977.406 235.751 981.994 243.697 987.666 246.984C993.338 250.235 997.926 247.598 997.926 241.06C997.926 234.523 993.338 226.577 987.666 223.29Z" fill="url(#paint18_linear_1446_28)"/>
<path d="M1024.55 244.563C1018.88 241.276 1014.29 243.949 1014.29 250.487C1014.29 257.024 1018.88 264.97 1024.55 268.257C1030.22 271.508 1034.81 268.871 1034.81 262.334C1034.81 255.796 1030.22 247.85 1024.55 244.563Z" fill="url(#paint19_linear_1446_28)"/>
<path d="M1061.47 265.837C1055.8 262.55 1051.21 265.223 1051.21 271.76C1051.21 278.298 1055.8 286.244 1061.47 289.531C1067.14 292.818 1071.73 290.145 1071.73 283.607C1071.73 277.07 1067.14 269.124 1061.47 265.837Z" fill="url(#paint20_linear_1446_28)"/>
<path opacity="0.5" d="M1814.05 763.959L1826.84 771.328L1821.96 761.937C1821.53 761.106 1821.49 760.095 1821.85 759.661C1822.21 759.228 1822.86 759.517 1823.3 760.347L1830.23 773.711C1830.23 773.711 1830.23 773.711 1830.23 773.748C1830.31 773.892 1830.38 774.073 1830.41 774.253C1830.41 774.325 1830.45 774.362 1830.49 774.434C1830.56 774.651 1830.56 774.903 1830.56 775.12C1830.56 775.337 1830.56 775.553 1830.49 775.698C1830.49 775.734 1830.45 775.77 1830.41 775.806C1830.38 775.915 1830.31 776.023 1830.23 776.095L1823.3 781.441C1823.12 781.585 1822.86 781.585 1822.61 781.441C1822.32 781.26 1822.03 780.935 1821.85 780.466C1821.49 779.599 1821.53 778.624 1821.96 778.299L1826.84 774.542L1814.05 767.174C1813.47 766.849 1813.04 765.874 1813.04 765.007C1813.04 764.14 1813.51 763.706 1814.05 764.032V763.959Z" fill="#455A64"/>
<path opacity="0.5" d="M1803.36 757.82L1790.57 750.452L1795.44 746.696C1795.88 746.371 1795.91 745.395 1795.55 744.528C1795.19 743.662 1794.54 743.228 1794.11 743.553L1787.17 748.899C1787.1 748.971 1787.03 749.079 1786.99 749.188C1786.99 749.188 1786.95 749.26 1786.92 749.296C1786.85 749.477 1786.85 749.657 1786.85 749.874C1786.85 750.091 1786.85 750.344 1786.92 750.56C1786.92 750.633 1786.95 750.669 1786.99 750.705C1787.03 750.885 1787.1 751.03 1787.17 751.21C1787.17 751.21 1787.17 751.21 1787.17 751.247L1794.11 764.611C1794.29 764.972 1794.54 765.261 1794.79 765.405C1795.08 765.586 1795.37 765.55 1795.55 765.297C1795.91 764.863 1795.88 763.816 1795.44 763.021L1790.57 753.63L1803.36 760.999C1803.93 761.324 1804.37 760.89 1804.37 760.023C1804.37 759.157 1803.9 758.181 1803.36 757.856V757.82Z" fill="#455A64"/>
<path opacity="0.5" d="M1761.38 720.976C1761.45 720.218 1762.14 720.29 1762.46 721.157L1764.23 725.455C1767.23 725.13 1770.84 728.055 1773.3 733.22C1776.48 739.938 1776.48 747.848 1773.3 750.919C1771.71 752.436 1769.65 752.472 1767.56 751.244C1765.46 750.052 1763.4 747.632 1761.81 744.273C1761.41 743.406 1761.41 742.431 1761.81 742.033C1762.21 741.636 1762.86 742.033 1763.26 742.864C1765.6 747.848 1769.47 750.088 1771.85 747.812C1774.2 745.537 1774.2 739.613 1771.85 734.593C1770.16 731.017 1767.74 728.922 1765.64 728.778L1766.98 731.992C1767.3 732.823 1766.98 733.618 1766.47 733.256L1761.27 729.861C1760.91 729.608 1760.62 728.958 1760.69 728.416L1761.45 720.94L1761.38 720.976Z" fill="#455A64"/>
<path opacity="0.5" d="M1623.88 614.462L1619.22 604.602C1618.68 603.446 1618.68 602.073 1619.22 601.531C1619.76 600.99 1620.67 601.532 1621.21 602.687L1625.87 612.548L1630.53 608.069C1631.07 607.527 1631.97 608.069 1632.52 609.225C1633.06 610.381 1633.06 611.753 1632.52 612.295L1627.86 616.774L1632.52 626.634C1633.06 627.79 1633.06 629.162 1632.52 629.704C1632.23 629.957 1631.87 629.957 1631.5 629.776C1631.14 629.56 1630.78 629.162 1630.49 628.548L1625.83 618.688L1621.17 623.167C1620.88 623.42 1620.52 623.42 1620.16 623.239C1619.8 623.022 1619.44 622.625 1619.15 622.011C1618.61 620.855 1618.61 619.483 1619.15 618.941L1623.81 614.462H1623.88Z" fill="#455A64"/>
<path d="M1744.4 733.111V716.641C1744.4 711.439 1740.75 705.119 1736.23 702.518L1003.45 279.71C998.935 277.11 995.286 279.205 995.286 284.406V300.876C995.286 306.077 998.935 312.398 1003.45 314.999L1736.27 737.806C1740.78 740.407 1744.43 738.312 1744.43 733.111H1744.4Z" fill="white"/>
<path d="M1014.54 315.938C1014.76 315.938 1014.98 315.902 1015.16 315.829C1015.74 315.577 1016.31 314.89 1016.17 313.735L1015.34 306.908C1015.34 306.908 1015.34 306.872 1015.34 306.836L1018.63 304.452C1019.09 304.127 1019.35 303.585 1019.35 302.899C1019.35 301.924 1018.88 300.876 1018.12 300.334L1013.35 296.65C1013.35 296.65 1013.1 296.361 1013.03 296.108L1010.89 289.101C1010.53 287.946 1009.7 287.115 1008.76 287.079C1008.11 287.007 1007.5 287.404 1007.21 288.018L1005.29 292.135L1000.96 290.474C1000.31 290.221 999.623 290.366 999.189 290.871C998.575 291.558 998.575 292.713 999.117 293.797L1002.59 300.298C1002.73 300.551 1002.77 300.768 1002.73 300.912L1001.9 306.8C1001.75 307.847 1002.26 308.858 1002.84 309.436C1003.31 309.906 1003.89 310.159 1004.46 310.087L1008.73 309.545L1012.88 315.107C1013.42 315.793 1014 316.01 1014.51 316.01L1014.54 315.938ZM1017.22 302.827L1013.93 305.21C1013.39 305.608 1013.13 306.33 1013.24 307.161L1013.93 312.795L1010.35 308.244C1009.85 307.594 1009.2 307.269 1008.51 307.341L1004.21 307.883C1004.21 307.883 1004.03 307.305 1004.07 307.016L1004.9 301.129C1004.97 300.515 1004.82 299.829 1004.5 299.215L1001.03 292.713L1005.01 294.23C1005.84 294.555 1006.7 294.23 1007.06 293.4L1008.83 289.607C1008.83 289.607 1008.83 289.643 1008.83 289.679L1010.97 296.686C1011.18 297.337 1011.54 297.951 1012.05 298.312L1016.82 301.996C1017.04 302.176 1017.18 302.574 1017.18 302.79L1017.22 302.827Z" fill="#E0E0E0"/>
<g opacity="0.5">
<path d="M985.68 277.728C986.656 277.728 987.595 277.222 988.137 276.319C988.931 274.983 988.462 273.249 987.089 272.455L964.149 259.199C962.776 258.405 961.078 258.874 960.284 260.247C959.489 261.583 959.958 263.317 961.331 264.111L984.271 277.367C984.705 277.62 985.211 277.728 985.68 277.728Z" fill="#455A64"/>
<path d="M985.68 290.947C986.656 290.947 987.595 290.441 988.137 289.538C988.931 288.202 988.462 286.468 987.089 285.674L964.149 272.418C962.776 271.623 961.078 272.093 960.284 273.465C959.489 274.802 959.958 276.535 961.331 277.33L984.271 290.586C984.705 290.839 985.211 290.947 985.68 290.947Z" fill="#455A64"/>
<path d="M985.68 304.205C986.656 304.205 987.595 303.699 988.137 302.796C988.931 301.46 988.462 299.726 987.089 298.931L964.149 285.676C962.776 284.881 961.078 285.351 960.284 286.723C959.489 288.06 959.958 289.793 961.331 290.588L984.271 303.844C984.705 304.096 985.211 304.205 985.68 304.205Z" fill="#455A64"/>
</g>
<path d="M1851.41 760.165V813.151L1866.72 804.302V751.352L1851.41 760.165Z" fill="#E0E0E0"/>
<path opacity="0.1" d="M1812.28 993.35L1562.83 849.344V1255.93L1813 1399.51L1812.28 993.35Z" fill="url(#paint21_linear_1446_28)"/>
<path opacity="0.15" d="M1507.84 825.074L1206.91 651.378C1200.88 647.875 1195.97 650.547 1195.97 657.302C1195.97 664.056 1200.84 672.399 1206.88 675.903L1507.88 851.585C1513.91 855.089 1518.79 852.307 1518.79 845.3V844.036C1518.79 837.065 1513.88 828.577 1507.84 825.074Z" fill="url(#paint22_linear_1446_28)"/>
<path opacity="0.1" d="M1510.99 877.735L1013.03 590.301C1008.69 587.809 1005.19 589.578 1005.22 594.274C1005.22 598.969 1008.73 604.784 1013.06 607.277L1511.02 894.711C1515.36 897.203 1518.86 895.433 1518.86 890.738C1518.86 886.042 1515.36 880.263 1511.02 877.735H1510.99Z" fill="url(#paint23_linear_1446_28)"/>
<path opacity="0.1" d="M1510.99 911.719L1013.03 624.285C1008.69 621.793 1005.19 623.563 1005.22 628.258C1005.22 632.954 1008.73 638.769 1013.06 641.261L1511.02 928.695C1515.36 931.187 1518.86 929.418 1518.86 924.722C1518.86 920.027 1515.36 914.248 1511.02 911.719H1510.99Z" fill="url(#paint24_linear_1446_28)"/>
<path opacity="0.1" d="M1510.99 945.751L1013.03 658.316C1008.69 655.824 1005.19 657.594 1005.22 662.29C1005.22 666.985 1008.73 672.764 1013.06 675.292L1511.02 962.726C1515.36 965.219 1518.86 963.449 1518.86 958.753C1518.86 954.058 1515.36 948.279 1511.02 945.751H1510.99Z" fill="url(#paint25_linear_1446_28)"/>
<path opacity="0.1" d="M1510.99 979.774L1013.03 692.34C1008.69 689.848 1005.19 691.617 1005.22 696.313C1005.22 701.008 1008.73 706.824 1013.06 709.316L1511.02 996.75C1515.36 999.242 1518.86 997.472 1518.86 992.777C1518.86 988.081 1515.36 982.302 1511.02 979.774H1510.99Z" fill="url(#paint26_linear_1446_28)"/>
<path opacity="0.1" d="M1510.99 1013.76L1163.56 811.598C1159.23 809.105 1155.76 810.875 1155.76 815.571C1155.76 820.266 1159.26 826.045 1163.6 828.574L1511.02 1030.73C1515.36 1033.22 1518.86 1031.45 1518.86 1026.76C1518.86 1022.06 1515.36 1016.28 1511.02 1013.76H1510.99Z" fill="url(#paint27_linear_1446_28)"/>
<path opacity="0.1" d="M1510.99 1081.81L1013.03 794.371C1008.69 791.879 1005.19 793.649 1005.22 798.344C1005.22 803.04 1008.73 808.855 1013.06 811.347L1511.02 1098.78C1515.36 1101.27 1518.86 1099.5 1518.86 1094.81C1518.86 1090.11 1515.36 1084.33 1511.02 1081.81H1510.99Z" fill="url(#paint28_linear_1446_28)"/>
<path opacity="0.1" d="M1510.99 1115.8L1013.03 828.363C1008.69 825.871 1005.19 827.641 1005.22 832.336C1005.22 837.032 1008.73 842.847 1013.06 845.339L1511.02 1132.77C1515.36 1135.27 1518.86 1133.5 1518.86 1128.8C1518.86 1124.1 1515.36 1118.33 1511.02 1115.8H1510.99Z" fill="url(#paint29_linear_1446_28)"/>
<path opacity="0.1" d="M1510.99 1149.82L1013.03 862.387C1008.69 859.895 1005.19 861.664 1005.22 866.36C1005.22 871.055 1008.73 876.834 1013.06 879.363L1511.02 1166.8C1515.36 1169.29 1518.86 1167.52 1518.86 1162.82C1518.86 1158.13 1515.36 1152.35 1511.02 1149.82H1510.99Z" fill="url(#paint30_linear_1446_28)"/>
<path opacity="0.1" d="M1510.99 1183.84L1328.05 1077.07C1323.71 1074.58 1320.24 1076.35 1320.24 1081.05C1320.24 1085.74 1323.75 1091.52 1328.08 1094.05L1511.02 1200.82C1515.36 1203.31 1518.86 1201.54 1518.86 1196.84C1518.86 1192.15 1515.36 1186.37 1511.02 1183.84H1510.99Z" fill="url(#paint31_linear_1446_28)"/>
<path d="M755.52 927.194C729.039 841.303 703.281 784.705 729.545 767.188C754.002 771.702 764.949 783.802 770.151 816.02C775.606 849.827 786.913 896.89 793.524 924.088C798.799 945.795 809.095 973.065 817.909 989.68C819.463 992.605 822.1 994.845 825.135 996.037C833.299 999.215 837.201 1003.4 843.848 1008.14C849.05 1011.86 852.879 1012.29 852.663 1013.84C852.374 1015.87 849.989 1019.48 844.498 1018.86C841.716 1018.57 837.887 1017.13 833.118 1015.22C833.118 1015.22 837.923 1028.15 847.388 1036.02C860.177 1046.71 858.262 1057.44 837.67 1058.67C830.301 1059.1 813.177 1052.38 797.354 1025.4C792.802 1017.64 787.491 1004.89 783.228 994.303C772.138 966.672 760.83 944.351 755.556 927.158L755.52 927.194Z" fill="#FFA8A7"/>
<path d="M724.849 766.175C724.849 766.175 745.224 765.128 757.543 778.708C769.862 792.289 784.312 873.665 784.312 873.665C784.312 873.665 770.801 892.23 735.145 884.645L724.849 766.175Z" fill="url(#paint32_linear_1446_28)"/>
<path opacity="0.3" d="M724.849 766.175C724.849 766.175 745.224 765.128 757.543 778.708C769.862 792.289 784.312 873.665 784.312 873.665C784.312 873.665 770.801 892.23 735.145 884.645L724.849 766.175Z" fill="black"/>
<path d="M629.551 1343.21H656.898V1391.97H629.551V1343.21Z" fill="#FFA8A7"/>
<path d="M724.381 1340.61L751.729 1341.59L753.102 1289.98L724.381 1289V1340.61Z" fill="#FFA8A7"/>
<path d="M625.684 921.02C625.684 948.218 629.694 1167.1 629.694 1167.1C629.043 1174.94 621.999 1189.35 623.552 1219.4C625.611 1260.25 628.393 1367.56 628.393 1367.56C628.393 1367.56 641.688 1375.65 658.848 1368.17C658.848 1368.17 684.714 1219.54 689.627 1179.09C693.89 1143.77 701.151 1024.86 701.151 1024.86L715.963 1163.13C715.963 1163.13 710.905 1184.18 712.567 1208.38C713.831 1227.09 722.646 1324.58 722.646 1324.58C722.646 1324.58 735.507 1333.68 754.22 1327.11C754.22 1327.11 769.791 1180.28 770.08 1163.13C770.441 1143.55 760.976 920.695 760.976 920.695L625.648 920.984L625.684 921.02Z" fill="#37474F"/>
<path d="M656.898 1377.92V1373.84C659.5 1375.03 665.605 1399.2 676.443 1409.49C685.077 1417.69 696.854 1427.15 699.816 1436.29C702.923 1445.79 683.415 1451.03 675.359 1449.55C666.002 1447.81 649.745 1440.95 645.699 1434.59C641.617 1428.24 639.702 1418.84 636.415 1414.19C633.091 1409.53 625.469 1404.32 623.662 1398.91C622.687 1395.94 623.843 1389.44 625.216 1383.95C626.48 1378.93 627.853 1373.37 629.515 1373.84C629.515 1374.45 629.515 1376.95 629.515 1376.95C631.502 1379.22 636.993 1381.5 643.207 1381.75C647.217 1381.89 656.935 1381.1 656.898 1377.92Z" fill="#263238"/>
<path d="M752.017 1332.81C753.426 1332.85 754.582 1334.94 757.725 1338.48C761.518 1342.74 767.696 1347.37 773.801 1350.55C784.061 1355.89 803.966 1364.09 812.962 1368.32C818.597 1370.95 818.344 1378.03 812.492 1382.08C806.676 1386.12 792.623 1389.01 775.752 1385.08C766.576 1382.95 754.582 1374.1 747.031 1374.57C739.445 1375.04 725.284 1374.93 719.684 1370.92C714.084 1366.91 716.324 1358.35 717.914 1350.98C719.648 1342.93 721.779 1330.43 724.344 1330.97V1333.75C727.632 1338.95 744.611 1341.05 751.836 1337.22L751.981 1332.81H752.017Z" fill="#263238"/>
<path d="M701.15 1024.9C701.15 1024.9 723.006 1018.47 739.227 1002.14C739.227 1002.14 731.893 1016.48 710.037 1029.81L714.697 1153.26L701.15 1024.86V1024.9Z" fill="#263238"/>
<path d="M639.915 772.681C639.915 772.681 618.492 774.631 620.045 815.409L624.778 880.351L624.633 977.8C644.756 1000.59 733.915 998.929 764.441 975.958C764.441 975.958 760.973 860.63 758.914 816.24C757.433 784.672 750.172 768.816 719.175 765.312L681.026 766.974L639.915 772.609V772.681Z" fill="url(#paint33_linear_1446_28)"/>
<path opacity="0.3" d="M700.714 794.062L705.627 828.303L717.043 828.087L704.146 830.109L700.714 794.062Z" fill="black"/>
<path d="M672.177 680.794C672.177 704.199 690.421 723.198 712.891 723.198C735.362 723.198 752.594 704.199 753.605 680.794C755.412 639.366 735.362 638.391 712.891 638.391C690.421 638.391 672.177 657.389 672.177 680.794Z" fill="#263238"/>
<path d="M648.985 701.812C648.985 701.812 655.234 732.369 657.727 737.39C660.22 742.41 665.422 743.855 665.422 743.855L664.988 722.364L648.985 701.849V701.812Z" fill="#263238"/>
<path d="M656.824 658.036C656.824 658.036 652.344 656.917 647.576 664.357C643.493 670.714 642.554 685.053 648.985 701.813L660.762 703.221L656.824 658.036Z" fill="#263238"/>
<path d="M664.263 703.261C661.915 704.742 658.555 700.01 655.629 696.832C652.703 693.653 643.238 689.319 638.469 699.721C633.628 710.304 642.66 724.318 650.138 726.774C663.035 731 664.95 722.368 664.95 722.368L665.925 770.767C683.049 797.206 721.776 796.267 707.831 769.503V754.766C707.831 754.766 719.464 756.608 725.172 755.705C734.637 754.188 740.598 746.387 743.488 735.696C748.112 718.539 749.846 704.669 745.944 670.934C741.645 633.949 700.353 633.551 678.027 648.179C655.738 662.808 664.227 703.225 664.227 703.225L664.263 703.261Z" fill="#FFA8A7"/>
<path d="M665.744 759.893C665.744 759.893 671.777 772.896 682.507 780.878C692.369 788.21 702.773 789.474 702.773 789.474C702.773 789.474 692.73 796.12 688.468 805.511C684.205 814.938 654.112 789.005 654.364 770.656C654.364 770.656 659.097 752.2 665.564 751.008L665.744 759.857V759.893Z" fill="#263238"/>
<path d="M702.737 789.509C702.737 789.509 712.021 784.886 707.867 769.463V754.727L711.913 755.268C715.092 758.122 720.078 764.84 721.703 772.208C722.643 776.434 724.918 797.78 720.836 802.042C717.115 805.907 711.082 790.629 702.773 789.473L702.737 789.509Z" fill="#263238"/>
<path d="M680.087 662.913C679.004 662.769 677.884 662.696 676.908 663.13C673.404 664.719 672.645 675.591 672.031 678.733C669.972 689.316 668.238 707.267 664.264 707.375C663.072 707.375 658.556 699.61 655.63 696.829C651.548 692.964 656.822 658.073 656.822 658.073C656.822 658.073 652.921 649.405 660.76 640.411C668.094 632.031 679.582 630.153 690.094 629.575C702.486 628.889 715.057 629.828 727.268 627.119C731.134 626.252 734.963 625.024 738.901 624.627C739.262 624.591 739.659 624.555 739.948 624.808C740.346 625.133 740.274 625.747 740.201 626.252C739.443 629.9 738.142 633.44 736.336 636.727C743.597 636.149 750.786 634.74 757.758 632.501C758.156 632.357 758.589 632.248 758.987 632.357C759.818 632.609 759.962 633.693 759.89 634.56C759.384 643.337 755.23 656.52 748.113 661.685C742.549 665.73 733.843 668.186 726.979 668.367C707.832 668.873 695.947 664.827 680.087 662.949V662.913Z" fill="#263238"/>
<path d="M656.824 659.879L642.554 651.897C644.577 647.635 649.418 645.973 653.356 648.177C657.293 650.38 658.847 655.617 656.824 659.879Z" fill="#263238"/>
<path d="M707.832 754.727C707.832 754.727 686.662 750.284 679.292 746.203C674.343 743.458 670.261 738.726 669.069 735.656C669.069 735.656 670.441 742.194 674.885 748.081C680.304 755.269 707.832 760.578 707.832 760.578V754.727Z" fill="#F28F8F"/>
<path d="M702.738 697.735C702.738 700.264 700.824 702.323 698.511 702.323C696.163 702.323 694.285 700.264 694.285 697.735C694.285 695.207 696.199 693.148 698.511 693.148C700.86 693.148 702.738 695.207 702.738 697.735Z" fill="#263238"/>
<path d="M695.945 679.462L686.878 684.663C685.541 681.954 686.48 678.595 688.973 677.15C691.466 675.705 694.609 676.753 695.945 679.462Z" fill="#263238"/>
<path d="M705.916 728.219L715.598 732.011C714.622 734.901 711.696 736.382 709.023 735.334C706.349 734.287 704.977 731.108 705.916 728.219Z" fill="#F28F8F"/>
<path d="M741.645 683.359L733.372 676.713C735.07 674.257 738.285 673.751 740.561 675.557C742.837 677.399 743.343 680.867 741.645 683.323V683.359Z" fill="#263238"/>
<path d="M737.996 696.47C737.996 698.998 736.081 701.057 733.769 701.057C731.421 701.057 729.543 698.998 729.543 696.47C729.543 693.942 731.457 691.883 733.769 691.883C736.118 691.883 737.996 693.942 737.996 696.47Z" fill="#263238"/>
<path d="M715.309 692.93L715.814 719.694L731.023 716.226L715.309 692.93Z" fill="#F28F8F"/>
<path d="M598.299 719.837C592.193 711.746 579.838 729.697 574.13 742.086C568.422 754.475 568.35 761.482 573.01 766.394C577.671 771.306 586.558 768.345 595.409 756.606C604.259 744.867 601.803 725.797 598.299 719.837Z" fill="url(#paint34_linear_1446_28)"/>
<path opacity="0.5" d="M598.299 719.837C592.193 711.746 579.838 729.697 574.13 742.086C568.422 754.475 568.35 761.482 573.01 766.394C577.671 771.306 586.558 768.345 595.409 756.606C604.259 744.867 601.803 725.797 598.299 719.837Z" fill="black"/>
<path d="M555.346 722.257C576.877 772.968 607.187 801.321 620.734 833.864C638.508 832.672 652.309 789.799 639.086 771.487C639.086 771.487 587.137 715.25 582.405 693.145C578.214 673.533 572.614 641.17 573.12 624.592C573.192 621.81 574.421 619.282 576.299 617.223C581.754 611.372 581.754 606.641 585.258 600.175C588.004 595.119 590.966 593.24 590.136 592.085C589.052 590.64 585.584 588.726 581.285 591.434C579.117 592.807 577.708 594.396 574.565 597.864C574.565 597.864 573.156 588.942 577.636 578.865C583.669 565.212 582.224 558.277 563.8 563.117C552.275 566.151 545.014 575.759 543.28 603.498C542.774 611.48 542.124 628.023 543.063 638.136C545.05 659.482 546.351 681.732 548.988 699.394C550.144 707.232 552.203 714.925 555.31 722.221L555.346 722.257Z" fill="#FFA8A7"/>
<path d="M644.36 772.068L598.516 719.695C598.516 719.695 603.971 732.481 592.049 751.047C580.127 769.612 573.047 766.433 573.047 766.433C573.047 766.433 600.105 805.911 607.367 819.131C614.628 832.35 622.142 843.475 622.142 843.475C622.142 843.475 623.948 848.134 630.704 848.134C637.46 848.134 655.27 818.3 644.396 772.068H644.36Z" fill="url(#paint35_linear_1446_28)"/>
<path opacity="0.3" d="M644.36 772.068L598.516 719.695C598.516 719.695 603.971 732.481 592.049 751.047C580.127 769.612 573.047 766.433 573.047 766.433C573.047 766.433 600.105 805.911 607.367 819.131C614.628 832.35 622.142 843.475 622.142 843.475C622.142 843.475 623.948 848.134 630.704 848.134C637.46 848.134 655.27 818.3 644.396 772.068H644.36Z" fill="black"/>
<path d="M1016.1 889.773L994.493 918.488L1017.69 945.071L1047.56 910.144L1016.1 889.773Z" fill="#F28F8F"/>
<path d="M1086.69 824.474C1067.87 825.341 1058.91 828.266 1049.04 839.86C1039.43 851.202 989.906 922.717 989.906 922.717C989.906 922.717 998.612 947.133 1017.69 945.038L1052.33 909.317L1086.69 824.438V824.474Z" fill="#455A64"/>
<path d="M1179.02 1420.91C1179.64 1425.46 1180.94 1430.73 1181.19 1443.55C1181.45 1457.31 1183.97 1462.19 1184.3 1473.46C1184.7 1486.35 1182.46 1491.19 1177.22 1498.42C1171.98 1505.64 1158.25 1512.25 1152.44 1500.01C1146.55 1487.62 1147.38 1479.74 1149.22 1467.07C1151.14 1453.99 1151.39 1446.77 1152.51 1436.8C1153.48 1428.02 1154.68 1421.34 1154.68 1421.34L1179.02 1420.91Z" fill="#263238"/>
<path d="M1139.97 1312.77L1185.27 1311.94C1184.59 1342.17 1179.78 1392.52 1179.02 1420.91C1178.88 1426.25 1179.17 1462.41 1177.15 1473.39C1174.11 1489.9 1154.53 1487.66 1153.48 1477.8C1152.43 1467.9 1154.75 1425.68 1154.67 1421.34C1154.86 1403.14 1146.33 1355.64 1141.85 1322.99C1141.63 1321.4 1140.19 1314.32 1139.97 1312.77Z" fill="#FFBDA7"/>
<path d="M1073.39 1397.36C1073.39 1397.36 1075.74 1397.5 1076.1 1399.42C1076.53 1401.69 1076.64 1405.27 1077.58 1408.99C1078.88 1414.15 1079.96 1422.71 1079.21 1426.94C1078.41 1431.17 1068.77 1437.45 1062.19 1438.57C1055.58 1439.69 1046.3 1446.19 1041.13 1451.07C1034.81 1457.03 1021.15 1462.66 1011.83 1462.59C1000.81 1462.52 993.154 1458.94 989.505 1453.02C985.712 1446.88 992.793 1446.41 1005.4 1438.25C1008.25 1436.4 1011.51 1434.31 1015.15 1431.93C1035.1 1418.92 1042.39 1411.92 1048.03 1398.91L1073.39 1397.4V1397.36Z" fill="#263238"/>
<path d="M1047.85 1390.28C1048.17 1380.92 1043.37 1311.94 1043.37 1311.94L1082.35 1316.31C1073.14 1371.32 1072.38 1390.03 1073.42 1398.04C1073.5 1398.26 1073.68 1399.02 1073.68 1400.36C1073.64 1411.05 1061.58 1416.79 1052.18 1423.94C1048.46 1426.76 1038.92 1435.43 1027.72 1439.22C1020.5 1441.68 1007.1 1442.62 1005.36 1438.21C1016.81 1429.47 1032.39 1418.05 1041.49 1408.05C1045.82 1403.28 1047.49 1399.63 1047.81 1390.24L1047.85 1390.28Z" fill="#FFBDA7"/>
<path d="M1174.8 999.975C1196.07 1046.42 1174.04 1209.97 1174.04 1209.97C1174.69 1217.52 1183.29 1232.33 1186.5 1265.48C1190.29 1304.67 1179.49 1409.56 1179.49 1409.56C1179.49 1409.56 1169.12 1417.29 1154.13 1410.1C1154.13 1410.1 1126.71 1255.95 1121.76 1217.01C1117.46 1183.03 1109.23 1108.26 1109.23 1108.26L1085.82 1216.83C1085.82 1216.83 1091.81 1235.87 1093.22 1250.39C1095.43 1273.32 1073.14 1388.33 1073.14 1388.33C1073.14 1388.33 1062.7 1393.85 1047.85 1387.82C1047.85 1387.82 1037.95 1239.23 1035.89 1211.63C1032.42 1165.25 1044.74 1020.6 1053.23 993.148L1174.76 999.939L1174.8 999.975Z" fill="url(#paint36_linear_1446_28)"/>
<path opacity="0.5" d="M1174.8 999.975C1196.07 1046.42 1174.04 1209.97 1174.04 1209.97C1174.69 1217.52 1183.29 1232.33 1186.5 1265.48C1190.29 1304.67 1179.49 1409.56 1179.49 1409.56C1179.49 1409.56 1169.12 1417.29 1154.13 1410.1C1154.13 1410.1 1126.71 1255.95 1121.76 1217.01C1117.46 1183.03 1109.23 1108.26 1109.23 1108.26L1085.82 1216.83C1085.82 1216.83 1091.81 1235.87 1093.22 1250.39C1095.43 1273.32 1073.14 1388.33 1073.14 1388.33C1073.14 1388.33 1062.7 1393.85 1047.85 1387.82C1047.85 1387.82 1037.95 1239.23 1035.89 1211.63C1032.42 1165.25 1044.74 1020.6 1053.23 993.148L1174.76 999.939L1174.8 999.975Z" fill="black"/>
<path opacity="0.2" d="M1109.23 1108.3L1102.33 1065.17C1102.33 1065.17 1073.14 1059.14 1059.88 1046.68C1059.88 1046.68 1073.79 1063.94 1094.41 1069.62L1102.18 1102.81L1088.63 1203.36L1109.26 1108.3H1109.23Z" fill="black"/>
<path d="M1163.89 855.753L1134.95 863.302V802.153C1150.92 797.999 1163.89 807.209 1163.89 822.74V855.753Z" fill="url(#paint37_linear_1446_28)"/>
<path opacity="0.6" d="M1163.89 855.753L1134.95 863.302V802.153C1150.92 797.999 1163.89 807.209 1163.89 822.74V855.753Z" fill="black"/>
<path d="M1106.66 810.858L1117.03 810.605C1148.68 809.883 1173.75 782.577 1173.06 749.637C1173.24 713.735 1145.28 684.478 1110.78 684.298C1076.32 684.117 1048.21 713.048 1048.03 748.951L1048.1 752.671C1048.9 785.539 1075.05 811.545 1106.63 810.822L1106.66 810.858Z" fill="url(#paint38_linear_1446_28)"/>
<path opacity="0.6" d="M1106.66 810.858L1117.03 810.605C1148.68 809.883 1173.75 782.577 1173.06 749.637C1173.24 713.735 1145.28 684.478 1110.78 684.298C1076.32 684.117 1048.21 713.048 1048.03 748.951L1048.1 752.671C1048.9 785.539 1075.05 811.545 1106.63 810.822L1106.66 810.858Z" fill="black"/>
<path d="M1155.11 699.36C1156.27 694.881 1160.75 692.353 1165.12 693.725L1162.34 704.416C1162.91 703.694 1163.6 703.08 1164.43 702.61C1168.33 700.335 1173.17 701.888 1175.3 706.078L1161.22 714.385C1160.49 712.904 1160.2 711.315 1160.28 709.762C1156.3 708.137 1153.99 703.658 1155.11 699.36Z" fill="url(#paint39_linear_1446_28)"/>
<path opacity="0.6" d="M1155.11 699.36C1156.27 694.881 1160.75 692.353 1165.12 693.725L1162.34 704.416C1162.91 703.694 1163.6 703.08 1164.43 702.61C1168.33 700.335 1173.17 701.888 1175.3 706.078L1161.22 714.385C1160.49 712.904 1160.2 711.315 1160.28 709.762C1156.3 708.137 1153.99 703.658 1155.11 699.36Z" fill="black"/>
<path d="M1138.02 826.963C1138.02 826.963 1158.94 829.925 1166.96 832.526C1155.76 859.976 1173.32 902.416 1173.32 902.416L1156.73 953.452C1168.15 976.893 1177.61 988.523 1181.48 1007.59C1170.93 1028.18 1096.48 1047.83 1047.99 1010.3C1047.99 1010.3 1049.55 958.183 1055.73 927.807C1039.87 896.853 1042.43 887.752 1045.68 876.952C1053.23 851.849 1068.48 842.17 1086.65 824.507L1097.6 823.352L1137.98 827L1138.02 826.963Z" fill="#37474F"/>
<path d="M1154.82 973.896C1145.82 964.685 1126.75 962.049 1126.75 962.049L1144.24 952.08L1163.85 904.764C1150.23 878.614 1152.07 852.717 1152.07 852.717L1163.31 850.008C1161.94 875.038 1173.28 902.452 1173.28 902.452L1156.7 953.488C1168.11 976.93 1177.58 988.56 1181.45 1007.63C1174.22 1021.72 1137.05 1035.37 1098.79 1030.57C1150.09 1027.13 1163.42 982.853 1154.78 973.968L1154.82 973.896Z" fill="#263238"/>
<path d="M1103.02 1030.93C1102.33 1030.86 1101.61 1030.78 1100.92 1030.71C1101.5 1030.71 1102.18 1030.78 1103.02 1030.93Z" fill="#E6E6E6"/>
<path d="M1071.29 716.375C1065.08 722.082 1057.31 734.471 1057.93 770.698C1058.47 801.399 1067.97 809.02 1072.74 811.223C1077.51 813.426 1086.79 812.162 1095.79 810.645L1095.9 823.359C1095.9 823.359 1084.05 836.506 1084.77 844.958C1085.49 853.41 1101.64 856.914 1113.31 848.715C1124.98 840.516 1134.91 826.863 1134.91 826.863L1135.02 788.252C1135.02 788.252 1140.3 793.633 1149.29 785.507C1156.73 778.788 1159.3 767.447 1153.55 761.307C1147.81 755.167 1137.12 756.792 1133 765.461C1133 765.461 1112.48 763.763 1093.55 753.866C1076.79 745.09 1070.07 729.233 1071.26 716.375H1071.29Z" fill="#FFBDA7"/>
<path d="M1095.82 763.657C1095.72 765.86 1097.27 767.738 1099.29 767.847C1101.35 767.955 1103.09 766.257 1103.19 764.054C1103.3 761.851 1101.75 759.973 1099.69 759.864C1097.63 759.756 1095.9 761.454 1095.79 763.657H1095.82Z" fill="#263238"/>
<path d="M1094.41 789.375L1084.77 792.517C1085.56 795.407 1088.34 797.032 1091.02 796.165C1093.69 795.298 1095.21 792.265 1094.41 789.375Z" fill="#F79776"/>
<path d="M1061.07 749.782L1069.81 746.785C1069.16 744.256 1066.67 742.884 1064.25 743.678C1061.83 744.509 1060.42 747.218 1061.07 749.746V749.782Z" fill="#263238"/>
<path d="M1133 761.81L1133.11 774.776C1129.64 774.957 1126.82 772.176 1126.78 768.564C1126.78 764.988 1129.53 761.954 1133 761.773V761.81Z" fill="url(#paint40_linear_1446_28)"/>
<path opacity="0.6" d="M1133 761.81L1133.11 774.776C1129.64 774.957 1126.82 772.176 1126.78 768.564C1126.78 764.988 1129.53 761.954 1133 761.773V761.81Z" fill="black"/>
<path d="M1064.1 762.391C1064 764.594 1065.55 766.473 1067.61 766.581C1069.67 766.689 1071.4 764.992 1071.51 762.788C1071.62 760.585 1070.07 758.707 1068.04 758.599C1065.98 758.49 1064.25 760.188 1064.14 762.391H1064.1Z" fill="#263238"/>
<path d="M1084.7 757.117L1084.77 782.256L1073.06 778.427L1084.7 757.117Z" fill="#F79776"/>
<path d="M1095.79 810.607C1105.25 809.378 1124.8 803.636 1127.87 795.617C1127.87 795.617 1126.82 800.674 1120.97 805.839C1115.11 811.004 1095.82 816.819 1095.82 816.819V810.643L1095.79 810.607Z" fill="#F79776"/>
<path d="M1211.39 955.438C1211.39 955.438 1188.2 988.378 1184.23 992.676C1180.25 996.974 1177.54 995.566 1173.21 993.651C1168.91 991.737 1160.71 989.281 1157.1 988.378C1150.01 986.608 1148.5 993.146 1155.51 997.841C1160.56 1001.2 1166.38 1002.68 1163.96 1005.46C1161.54 1008.24 1154.02 1013.08 1147.05 1015.83C1129.93 1022.58 1131.27 1025.98 1134.41 1031.5C1137.15 1036.34 1145.14 1046.75 1175.74 1034.43C1188.38 1029.37 1206.15 1014.96 1214.54 1005.68C1226.64 992.279 1245.5 968.26 1245.5 968.26L1211.36 955.474L1211.39 955.438Z" fill="#FFBDA7"/>
<path d="M1162.48 831.336C1170.86 831.914 1186.65 833.9 1206.44 866.769C1223.82 895.591 1250.7 934.708 1255.72 948.686C1257.74 954.321 1249.87 966.095 1239.72 978.123C1225.84 977.509 1213.24 967.938 1206.7 960.28C1209.73 953.273 1213.09 948.686 1213.09 948.686L1172.49 902.382C1172.49 902.382 1157.06 888.259 1153.84 869.766C1150.38 849.973 1151.46 834.262 1162.48 831.336Z" fill="#455A64"/>
<path d="M935.139 893.68L1035.24 920.046L1062.81 1033.32L967.616 1005.68L935.139 893.68Z" fill="url(#paint41_linear_1446_28)"/>
<path opacity="0.25" d="M935.139 893.68L1035.24 920.046L1062.81 1033.32L967.616 1005.68L935.139 893.68Z" fill="black"/>
<g opacity="0.1">
<path d="M980.367 973.906C979.428 976.435 973.286 985.645 961.654 985.103L960.931 982.611L980.367 973.942V973.906Z" fill="black"/>
</g>
<g opacity="0.1">
<path d="M965.305 911.673C965.305 911.673 964.944 909.975 964.474 907.844C964.004 905.75 969.893 905.641 977.588 907.628L992.327 911.456C1000.02 913.443 1006.63 916.766 1007.1 918.897L1007.93 922.725L965.269 911.673H965.305Z" fill="black"/>
</g>
<path d="M957.608 897.331C957.319 896.03 959.704 895.669 962.919 896.572L968.771 898.197C968.771 898.197 967.037 889.926 980.007 892.816C992.976 895.705 995.794 905.06 995.794 905.06C995.794 905.06 998.575 905.855 1002.04 906.83C1005.51 907.805 1008.62 909.647 1009.02 910.983L1009.74 913.367L958.15 899.787C958.15 899.787 957.897 898.667 957.608 897.331Z" fill="#37474F"/>
<path d="M964.728 901.41C969.461 902.565 971.411 903.179 972.134 906.43C972.929 910.15 973.254 912.859 973.254 912.859L996.086 918.891C996.086 918.891 994.966 914.196 994.64 912.354C994.279 910.512 995.074 909.428 998.687 910.367L999.012 908.922L963.247 899.82L964.764 901.41H964.728Z" fill="#37474F"/>
<path d="M963.93 912.032C963.93 912.032 963.568 910.335 963.099 908.204C962.629 906.109 968.518 906.001 976.213 907.987L990.952 911.816C998.647 913.802 1005.26 917.125 1005.73 919.256L1006.56 923.085L963.894 912.032H963.93Z" fill="#37474F"/>
<path d="M945.69 930.058C945.69 930.058 949.447 942.88 950.278 945.914C951.145 948.948 962.344 954.438 969.713 956.461C977.083 958.484 985.139 960.867 981.635 971.161C978.42 980.661 966.318 982.828 960.14 982.539C953.962 982.286 945.545 976.362 942.221 966.899C937.995 954.799 940.271 941.833 938.573 934.753C936.875 927.674 941.969 925.832 945.69 930.022V930.058Z" fill="#FFBDA7"/>
<path d="M1324.9 933.051C1338.63 919.217 1343.54 924.599 1345.28 939.769C1346.54 950.966 1349.87 958.298 1349.87 958.298C1350.84 953.602 1351.24 951.471 1352.43 949.16C1354.82 944.536 1358.86 944.428 1360.6 945.15C1361.93 945.728 1360.27 948.943 1360.49 954.794C1360.74 962.307 1363.2 966.497 1361.43 974.479C1360.78 977.477 1361.32 980.583 1362.76 983.292C1370.17 996.981 1393.8 1022.37 1410.45 1040.61C1425.19 1027.32 1458.1 997.559 1473.89 983.364C1495.53 963.86 1502.57 955.083 1523.49 956.528C1523.49 956.528 1515.4 958.984 1505.68 967.183C1496 975.382 1498.31 1022.3 1498.31 1022.3C1498.31 1022.3 1426.35 1073.91 1418.94 1078.83C1417.86 1079.55 1416.74 1080.2 1415.65 1080.78C1408.43 1084.61 1399.47 1082.8 1394.08 1076.62C1378.73 1059.07 1356.33 1024.5 1343.4 1006.55C1337.33 998.137 1331.44 986.615 1327.76 979.319C1314.9 953.963 1316.31 941.719 1324.9 933.051Z" fill="#914F4E"/>
<path d="M1521.39 955.229C1521.39 955.229 1506.8 951.401 1492.46 962.309C1480.1 971.664 1427.57 1019.99 1427.57 1019.99C1427.57 1019.99 1426.13 1045.56 1452.86 1060.84L1517.46 1015.3L1521.43 955.193L1521.39 955.229Z" fill="url(#paint42_linear_1446_28)"/>
<path opacity="0.3" d="M1521.39 955.229C1521.39 955.229 1506.8 951.401 1492.46 962.309C1480.1 971.664 1427.57 1019.99 1427.57 1019.99C1427.57 1019.99 1426.13 1045.56 1452.86 1060.84L1517.46 1015.3L1521.43 955.193L1521.39 955.229Z" fill="black"/>
<path d="M1583.68 1533.09H1611.02V1581.85H1583.68V1533.09Z" fill="#914F4E"/>
<path d="M1516.19 1530.49L1488.84 1531.46L1487.47 1479.89L1516.19 1478.88V1530.49Z" fill="#914F4E"/>
<path d="M1614.89 1110.93C1614.89 1138.13 1610.88 1357.01 1610.88 1357.01C1611.53 1364.85 1618.57 1379.26 1617.02 1409.31C1614.96 1450.16 1612.18 1557.47 1612.18 1557.47C1612.18 1557.47 1598.88 1565.56 1581.72 1558.09C1581.72 1558.09 1555.86 1409.46 1550.94 1369C1546.68 1333.68 1539.42 1214.78 1539.42 1214.78L1524.61 1353.04C1524.61 1353.04 1529.67 1374.1 1528 1398.3C1526.74 1417.01 1517.93 1514.49 1517.93 1514.49C1517.93 1514.49 1505.06 1523.59 1486.35 1517.02C1486.35 1517.02 1470.78 1370.2 1470.49 1353.04C1470.13 1333.46 1479.6 1110.61 1479.6 1110.61L1614.92 1110.9L1614.89 1110.93Z" fill="#37474F"/>
<path d="M1583.68 1567.8V1563.72C1581.07 1564.92 1574.97 1589.08 1564.13 1599.37C1555.5 1607.57 1543.72 1617.03 1540.76 1626.17C1537.65 1635.67 1557.16 1640.91 1565.21 1639.43C1574.57 1637.69 1590.83 1630.83 1594.87 1624.48C1598.96 1618.12 1600.87 1608.73 1604.16 1604.07C1607.48 1599.41 1615.1 1594.21 1616.91 1588.79C1617.89 1585.83 1616.73 1579.33 1615.36 1573.84C1614.09 1568.82 1612.72 1563.25 1611.06 1563.72C1611.06 1564.34 1611.06 1566.83 1611.06 1566.83C1609.07 1569.1 1603.58 1571.38 1597.37 1571.63C1593.36 1571.78 1583.64 1570.98 1583.68 1567.8Z" fill="#263238"/>
<path d="M1488.56 1522.69C1487.15 1522.72 1485.99 1524.82 1482.85 1528.36C1479.05 1532.62 1472.88 1537.24 1466.77 1540.42C1456.51 1545.77 1436.61 1553.97 1427.61 1558.19C1421.98 1560.83 1422.23 1567.91 1428.08 1571.95C1433.9 1576 1447.95 1578.89 1464.82 1574.95C1474 1572.82 1485.99 1563.97 1493.54 1564.44C1501.13 1564.91 1515.29 1564.8 1520.89 1560.79C1526.49 1556.78 1524.25 1548.22 1522.66 1540.86C1520.92 1532.8 1518.79 1520.3 1516.23 1520.85V1523.63C1512.94 1528.83 1495.96 1530.92 1488.74 1527.09L1488.59 1522.69H1488.56Z" fill="#263238"/>
<path d="M1539.42 1214.78C1539.42 1214.78 1517.57 1208.35 1501.34 1192.02C1501.34 1192.02 1508.68 1206.36 1530.53 1219.69L1525.87 1343.14L1539.42 1214.74V1214.78Z" fill="#263238"/>
<path d="M1600.65 962.556C1600.65 962.556 1622.07 964.506 1620.52 1005.28L1615.79 1070.23L1616.22 1167.67C1596.1 1190.47 1506.94 1188.8 1476.41 1165.83C1476.41 1165.83 1479.56 1050.51 1481.62 1006.12C1483.1 974.547 1490.36 958.691 1521.35 955.188L1559.5 956.849L1600.62 962.484L1600.65 962.556Z" fill="url(#paint43_linear_1446_28)"/>
<path opacity="0.3" d="M1539.85 983.938L1534.94 1018.18L1523.52 1017.96L1536.42 1020.02L1539.85 983.938Z" fill="black"/>
<path d="M1668.53 1102.56C1657.44 1013.34 1631.9 969.026 1600.8 963.789L1603 1020.86C1603 1020.86 1623.92 1068.5 1632.62 1115.31C1636.71 1137.27 1641.44 1175.45 1640.21 1194.23C1639.99 1197.55 1638.51 1200.66 1636.24 1202.97C1630.1 1209.22 1628.25 1214.63 1624.14 1221.71C1620.92 1227.24 1617.6 1229.19 1618.43 1230.53C1619.55 1232.22 1623.16 1234.57 1627.96 1231.76C1630.38 1230.35 1633.28 1227.46 1636.85 1223.74C1636.85 1223.74 1637.75 1237.5 1632.37 1248.59C1625.07 1263.58 1626.3 1271.52 1646.46 1267.08C1659.11 1264.3 1668.21 1250.97 1671.6 1219.87C1672.58 1210.91 1672.69 1196.43 1672.22 1185.02C1670.99 1155.29 1670.74 1120.44 1668.53 1102.59V1102.56Z" fill="#914F4E"/>
<path d="M1599.03 962.345C1615.18 962.273 1629.92 965.126 1641.66 987.7C1652.89 1009.34 1661.56 1055.21 1665.9 1070.2C1665.9 1070.2 1642.31 1084.14 1620.6 1083.81L1605.31 1030.79C1605.31 1030.79 1594.98 1006.05 1599.03 962.381V962.345Z" fill="url(#paint44_linear_1446_28)"/>
<path opacity="0.3" d="M1599.03 962.345C1615.18 962.273 1629.92 965.126 1641.66 987.7C1652.89 1009.34 1661.56 1055.21 1665.9 1070.2C1665.9 1070.2 1642.31 1084.14 1620.6 1083.81L1605.31 1030.79C1605.31 1030.79 1594.98 1006.05 1599.03 962.381V962.345Z" fill="black"/>
<path d="M1565.68 870.489C1565.68 893.895 1547.44 912.893 1524.97 912.893C1502.5 912.893 1484.26 893.895 1484.26 870.489C1484.26 847.084 1502.5 828.086 1524.97 828.086C1547.44 828.086 1565.68 847.084 1565.68 870.489Z" fill="#263238"/>
<path d="M1591.59 891.727C1591.59 891.727 1585.34 922.283 1582.84 927.304C1580.35 932.324 1575.15 933.769 1575.15 933.769L1575.58 912.278L1591.59 891.763V891.727Z" fill="#263238"/>
<path d="M1583.75 847.951C1583.75 847.951 1588.23 846.831 1592.99 854.271C1597.08 860.628 1598.02 874.967 1591.59 891.727L1579.81 893.135L1583.75 847.951Z" fill="#263238"/>
<path d="M1576.3 893.136C1578.65 894.617 1582.01 889.885 1584.94 886.707C1587.86 883.528 1597.33 879.194 1602.1 889.596C1606.94 900.179 1597.91 914.193 1590.43 916.649C1577.53 920.875 1575.62 912.243 1575.62 912.243L1574.64 960.642C1557.52 987.081 1518.79 986.142 1532.73 959.378V944.641C1532.73 944.641 1521.1 946.483 1515.39 945.58C1505.93 944.063 1499.97 936.262 1497.08 925.571C1492.45 908.414 1490.72 894.544 1494.62 860.809C1498.92 823.824 1540.21 823.426 1562.54 838.054C1584.83 852.683 1576.34 893.1 1576.34 893.1L1576.3 893.136Z" fill="#914F4E"/>
<path d="M1574.82 949.81C1574.82 949.81 1568.79 962.813 1558.06 970.795C1548.2 978.127 1537.79 979.391 1537.79 979.391C1537.79 979.391 1547.84 986.037 1552.1 995.464C1556.36 1004.89 1586.45 978.958 1586.2 960.61C1586.2 960.61 1581.47 942.153 1575 940.961L1574.82 949.81Z" fill="#263238"/>
<path d="M1537.83 979.392C1537.83 979.392 1528.54 974.769 1532.7 959.346V944.609L1528.65 945.151C1525.47 948.005 1520.49 954.723 1518.86 962.091C1517.92 966.317 1515.65 987.663 1519.73 991.925C1523.45 995.79 1529.48 980.512 1537.79 979.356L1537.83 979.392Z" fill="#263238"/>
<path d="M1576.3 897.255C1577.5 897.255 1582.01 889.489 1584.94 886.708C1589.02 882.844 1583.75 847.953 1583.75 847.953C1583.75 847.953 1587.65 839.284 1579.81 830.291C1574.25 823.898 1564.92 823.175 1549.03 820.575C1542.82 819.563 1536.2 818.877 1530.17 817.179C1523.7 815.337 1517.35 811.075 1511.31 808.005C1509.33 806.994 1507.09 805.946 1504.92 806.524C1502.86 807.066 1501.42 809.053 1500.87 811.148C1500.33 813.242 1500.55 815.41 1500.76 817.541C1497.08 813.459 1489.89 814.073 1486.13 818.046C1482.38 822.055 1481.83 828.376 1483.86 833.469C1485.88 838.562 1489.96 842.607 1494.52 845.677C1514.49 859.186 1538.08 855.429 1560.48 852.757C1561.57 852.612 1562.68 852.54 1563.66 852.973C1567.16 854.563 1567.92 865.434 1568.54 868.577C1570.6 879.159 1572.33 897.111 1576.3 897.219V897.255Z" fill="#263238"/>
<path d="M1583.75 849.793L1598.02 841.811C1595.99 837.549 1591.15 835.888 1587.21 838.091C1583.28 840.294 1581.72 845.531 1583.75 849.793Z" fill="#263238"/>
<path d="M1532.74 944.641C1532.74 944.641 1553.91 940.198 1561.28 936.117C1566.23 933.372 1570.31 928.64 1571.5 925.57C1571.5 925.57 1570.13 932.108 1565.68 937.995C1560.26 945.183 1532.74 950.492 1532.74 950.492V944.641Z" fill="#783736"/>
<path d="M1540.39 886.345C1540.39 888.873 1542.31 890.932 1544.62 890.932C1546.97 890.932 1548.85 888.873 1548.85 886.345C1548.85 883.817 1546.93 881.758 1544.62 881.758C1542.27 881.758 1540.39 883.817 1540.39 886.345Z" fill="#263238"/>
<path d="M1547.66 868.032L1556.72 873.233C1558.06 870.524 1557.12 867.165 1554.59 865.72C1552.1 864.276 1548.96 865.323 1547.62 868.032H1547.66Z" fill="#263238"/>
<path d="M1534.65 918.125L1524.97 921.917C1525.94 924.807 1528.87 926.288 1531.54 925.24C1534.22 924.193 1535.59 921.015 1534.65 918.125Z" fill="#783736"/>
<path d="M1498.02 873.091L1507.56 868.432C1506.47 865.65 1503.44 864.458 1500.8 865.723C1498.17 866.987 1496.94 870.31 1498.02 873.055V873.091Z" fill="#263238"/>
<path d="M1504.3 886.384C1504.3 888.912 1506.22 890.971 1508.53 890.971C1510.88 890.971 1512.76 888.912 1512.76 886.384C1512.76 883.856 1510.84 881.797 1508.53 881.797C1506.18 881.797 1504.3 883.856 1504.3 886.384Z" fill="#263238"/>
<path d="M1528.33 883.094L1527.86 909.858L1512.65 906.354L1528.33 883.094Z" fill="#783736"/>
<path d="M1546.93 875.292C1552.68 875.292 1557.34 880.024 1557.34 885.875C1557.34 891.726 1552.68 896.458 1546.93 896.458H1545.02C1539.28 896.458 1534.61 891.726 1534.61 885.875C1534.61 880.024 1539.28 875.292 1545.02 875.292H1546.93ZM1559.43 885.875C1559.43 878.868 1553.83 873.125 1546.93 873.125H1545.02C1538.12 873.125 1532.52 878.832 1532.52 885.875C1532.52 892.918 1538.12 898.625 1545.02 898.625H1546.93C1553.83 898.625 1559.43 892.918 1559.43 885.875Z" fill="#263238"/>
<path d="M1508.82 875.292C1514.56 875.292 1519.22 880.024 1519.22 885.875C1519.22 891.726 1514.56 896.458 1508.82 896.458H1506.91C1501.16 896.458 1496.5 891.726 1496.5 885.875C1496.5 880.024 1501.16 875.292 1506.91 875.292H1508.82ZM1521.32 885.875C1521.32 878.868 1515.72 873.125 1508.82 873.125H1506.91C1500.01 873.125 1494.41 878.832 1494.41 885.875C1494.41 892.918 1500.01 898.625 1506.91 898.625H1508.82C1515.72 898.625 1521.32 892.918 1521.32 885.875Z" fill="#263238"/>
<path d="M1532.66 883.385C1531.51 881.434 1528.91 880.098 1526.05 879.953C1523.59 879.809 1521.43 880.64 1520.31 882.157L1518.61 880.856C1520.2 878.725 1522.94 877.642 1526.16 877.786C1529.74 877.967 1532.92 879.664 1534.47 882.229L1532.66 883.349V883.385Z" fill="#263238"/>
<path d="M1558.31 883.273H1579.84V885.404H1558.31V883.273Z" fill="#263238"/>
<path d="M484.133 916.133V1198.55" stroke="white" stroke-width="1.39053" stroke-miterlimit="10"/>
<path style="mix-blend-mode:screen" d="M484.15 972.215C497.438 972.215 508.281 965.516 508.281 957.314C508.281 949.113 497.501 942.414 484.15 942.414C470.8 942.414 460.019 949.113 460.019 957.314C460.019 965.516 470.8 972.215 484.15 972.215Z" fill="url(#paint45_radial_1446_28)"/>
<path style="mix-blend-mode:screen" d="M484.15 1056.14C497.438 1056.14 508.281 1049.44 508.281 1041.24C508.281 1033.03 497.501 1026.34 484.15 1026.34C470.8 1026.34 460.019 1033.03 460.019 1041.24C460.019 1049.44 470.8 1056.14 484.15 1056.14Z" fill="url(#paint46_radial_1446_28)"/>
<path style="mix-blend-mode:screen" d="M484.15 1140.02C497.438 1140.02 508.281 1133.32 508.281 1125.12C508.281 1116.92 497.501 1110.22 484.15 1110.22C470.8 1110.22 460.019 1116.92 460.019 1125.12C460.019 1133.32 470.8 1140.02 484.15 1140.02Z" fill="url(#paint47_radial_1446_28)"/>
<path d="M1995.12 924.07V1206.49" stroke="white" stroke-width="1.39053" stroke-miterlimit="10"/>
<path style="mix-blend-mode:screen" d="M1995.14 980.152C2008.43 980.152 2019.27 973.453 2019.27 965.252C2019.27 957.05 2008.49 950.352 1995.14 950.352C1981.79 950.352 1971.01 957.05 1971.01 965.252C1971.01 973.453 1981.79 980.152 1995.14 980.152Z" fill="url(#paint48_radial_1446_28)"/>
<path style="mix-blend-mode:screen" d="M1995.14 1064.07C2008.43 1064.07 2019.27 1057.38 2019.27 1049.17C2019.27 1040.97 2008.49 1034.27 1995.14 1034.27C1981.79 1034.27 1971.01 1040.97 1971.01 1049.17C1971.01 1057.38 1981.79 1064.07 1995.14 1064.07Z" fill="url(#paint49_radial_1446_28)"/>
<path style="mix-blend-mode:screen" d="M1995.14 1147.96C2008.43 1147.96 2019.27 1141.26 2019.27 1133.06C2019.27 1124.86 2008.49 1118.16 1995.14 1118.16C1981.79 1118.16 1971.01 1124.86 1971.01 1133.06C1971.01 1141.26 1981.79 1147.96 1995.14 1147.96Z" fill="url(#paint50_radial_1446_28)"/>
<defs>
<radialGradient id="paint0_radial_1446_28" cx="0" cy="0" r="1" gradientUnits="userSpaceOnUse" gradientTransform="translate(1426.64 1946.17) rotate(-7.33649) scale(239.869 11.8735)">
<stop stop-color="white"/>
<stop offset="0.3" stop-color="#33B1FF"/>
<stop offset="0.35" stop-color="#33A3FF" stop-opacity="0.93"/>
<stop offset="0.47" stop-color="#3392FF" stop-opacity="0.76"/>
<stop offset="0.63" stop-color="#33BBFF" stop-opacity="0.49"/>
<stop offset="0.81" stop-color="#3355FF" stop-opacity="0.14"/>
<stop offset="1" stop-opacity="0"/>
</radialGradient>
<radialGradient id="paint1_radial_1446_28" cx="0" cy="0" r="1" gradientUnits="userSpaceOnUse" gradientTransform="translate(483.585 267.376) rotate(-34.2006) scale(564.519 28.8845)">
<stop stop-color="white"/>
<stop offset="0.3" stop-color="#33B1FF"/>
<stop offset="0.35" stop-color="#33A3FF" stop-opacity="0.93"/>
<stop offset="0.47" stop-color="#3392FF" stop-opacity="0.76"/>
<stop offset="0.63" stop-color="#33BBFF" stop-opacity="0.49"/>
<stop offset="0.81" stop-color="#3355FF" stop-opacity="0.14"/>
<stop offset="1" stop-opacity="0"/>
</radialGradient>
<radialGradient id="paint2_radial_1446_28" cx="0" cy="0" r="1" gradientUnits="userSpaceOnUse" gradientTransform="translate(565.489 1524.27) rotate(51.5275) scale(14.7353 32.1436)">
<stop stop-color="white"/>
<stop offset="0.3" stop-color="#33A3FF"/>
<stop offset="0.35" stop-color="#33A3FF" stop-opacity="0.93"/>
<stop offset="0.47" stop-color="#337AFF" stop-opacity="0.76"/>
<stop offset="0.63" stop-color="#334EFF" stop-opacity="0.49"/>
<stop offset="0.81" stop-color="#3363FF" stop-opacity="0.14"/>
<stop offset="1" stop-opacity="0"/>
</radialGradient>
<radialGradient id="paint3_radial_1446_28" cx="0" cy="0" r="1" gradientUnits="userSpaceOnUse" gradientTransform="translate(511.728 1558.49) rotate(52.0636) scale(13.1683 28.5958)">
<stop stop-color="white"/>
<stop offset="0.3" stop-color="#33A3FF"/>
<stop offset="0.35" stop-color="#33A3FF" stop-opacity="0.93"/>
<stop offset="0.47" stop-color="#337AFF" stop-opacity="0.76"/>
<stop offset="0.63" stop-color="#334EFF" stop-opacity="0.49"/>
<stop offset="0.81" stop-color="#3363FF" stop-opacity="0.14"/>
<stop offset="1" stop-opacity="0"/>
</radialGradient>
<radialGradient id="paint4_radial_1446_28" cx="0" cy="0" r="1" gradientUnits="userSpaceOnUse" gradientTransform="translate(459.214 1590.16) rotate(52.0704) scale(13.1948 28.6517)">
<stop stop-color="white"/>
<stop offset="0.3" stop-color="#33A3FF"/>
<stop offset="0.35" stop-color="#33A3FF" stop-opacity="0.93"/>
<stop offset="0.47" stop-color="#337AFF" stop-opacity="0.76"/>
<stop offset="0.63" stop-color="#334EFF" stop-opacity="0.49"/>
<stop offset="0.81" stop-color="#3363FF" stop-opacity="0.14"/>
<stop offset="1" stop-opacity="0"/>
</radialGradient>
<radialGradient id="paint5_radial_1446_28" cx="0" cy="0" r="1" gradientUnits="userSpaceOnUse" gradientTransform="translate(402.079 1622.86) rotate(50.4002) scale(12.8938 28.3613)">
<stop stop-color="white"/>
<stop offset="0.3" stop-color="#33A3FF"/>
<stop offset="0.35" stop-color="#33A3FF" stop-opacity="0.93"/>
<stop offset="0.47" stop-color="#337AFF" stop-opacity="0.76"/>
<stop offset="0.63" stop-color="#334EFF" stop-opacity="0.49"/>
<stop offset="0.81" stop-color="#3363FF" stop-opacity="0.14"/>
<stop offset="1" stop-opacity="0"/>
</radialGradient>
<radialGradient id="paint6_radial_1446_28" cx="0" cy="0" r="1" gradientUnits="userSpaceOnUse" gradientTransform="translate(352.991 1655.26) rotate(51.9384) scale(13.5129 29.3761)">
<stop stop-color="white"/>
<stop offset="0.3" stop-color="#33A3FF"/>
<stop offset="0.35" stop-color="#33A3FF" stop-opacity="0.93"/>
<stop offset="0.47" stop-color="#337AFF" stop-opacity="0.76"/>
<stop offset="0.63" stop-color="#334EFF" stop-opacity="0.49"/>
<stop offset="0.81" stop-color="#3363FF" stop-opacity="0.14"/>
<stop offset="1" stop-opacity="0"/>
</radialGradient>
<radialGradient id="paint7_radial_1446_28" cx="0" cy="0" r="1" gradientUnits="userSpaceOnUse" gradientTransform="translate(1859.47 1575.6) rotate(-64.742) scale(14.7353 32.1436)">
<stop stop-color="white"/>
<stop offset="0.3" stop-color="#33A3FF"/>
<stop offset="0.35" stop-color="#33A3FF" stop-opacity="0.93"/>
<stop offset="0.47" stop-color="#337AFF" stop-opacity="0.76"/>
<stop offset="0.63" stop-color="#334EFF" stop-opacity="0.49"/>
<stop offset="0.81" stop-color="#3363FF" stop-opacity="0.14"/>
<stop offset="1" stop-opacity="0"/>
</radialGradient>
<radialGradient id="paint8_radial_1446_28" cx="0" cy="0" r="1" gradientUnits="userSpaceOnUse" gradientTransform="translate(1913.95 1608.65) rotate(-64.2059) scale(13.1683 28.5958)">
<stop stop-color="white"/>
<stop offset="0.3" stop-color="#33A3FF"/>
<stop offset="0.35" stop-color="#33A3FF" stop-opacity="0.93"/>
<stop offset="0.47" stop-color="#337AFF" stop-opacity="0.76"/>
<stop offset="0.63" stop-color="#334EFF" stop-opacity="0.49"/>
<stop offset="0.81" stop-color="#3363FF" stop-opacity="0.14"/>
<stop offset="1" stop-opacity="0"/>
</radialGradient>
<radialGradient id="paint9_radial_1446_28" cx="0" cy="0" r="1" gradientUnits="userSpaceOnUse" gradientTransform="translate(1965.6 1641.72) rotate(-64.1992) scale(13.1948 28.6517)">
<stop stop-color="white"/>
<stop offset="0.3" stop-color="#33A3FF"/>
<stop offset="0.35" stop-color="#33A3FF" stop-opacity="0.93"/>
<stop offset="0.47" stop-color="#337AFF" stop-opacity="0.76"/>
<stop offset="0.63" stop-color="#334EFF" stop-opacity="0.49"/>
<stop offset="0.81" stop-color="#3363FF" stop-opacity="0.14"/>
<stop offset="1" stop-opacity="0"/>
</radialGradient>
<radialGradient id="paint10_radial_1446_28" cx="0" cy="0" r="1" gradientUnits="userSpaceOnUse" gradientTransform="translate(2020.21 1678.48) rotate(-65.8693) scale(12.8938 28.3613)">
<stop stop-color="white"/>
<stop offset="0.3" stop-color="#33A3FF"/>
<stop offset="0.35" stop-color="#33A3FF" stop-opacity="0.93"/>
<stop offset="0.47" stop-color="#337AFF" stop-opacity="0.76"/>
<stop offset="0.63" stop-color="#334EFF" stop-opacity="0.49"/>
<stop offset="0.81" stop-color="#3363FF" stop-opacity="0.14"/>
<stop offset="1" stop-opacity="0"/>
</radialGradient>
<radialGradient id="paint11_radial_1446_28" cx="0" cy="0" r="1" gradientUnits="userSpaceOnUse" gradientTransform="translate(2070.98 1708.17) rotate(-64.3311) scale(13.5129 29.3761)">
<stop stop-color="white"/>
<stop offset="0.3" stop-color="#33A3FF"/>
<stop offset="0.35" stop-color="#33A3FF" stop-opacity="0.93"/>
<stop offset="0.47" stop-color="#337AFF" stop-opacity="0.76"/>
<stop offset="0.63" stop-color="#334EFF" stop-opacity="0.49"/>
<stop offset="0.81" stop-color="#3363FF" stop-opacity="0.14"/>
<stop offset="1" stop-opacity="0"/>
</radialGradient>
<linearGradient id="paint12_linear_1446_28" x1="2126.42" y1="938.548" x2="589.802" y2="676.296" gradientUnits="userSpaceOnUse">
<stop stop-color="#4EC4F0"/>
<stop offset="1" stop-color="#3A58A7"/>
</linearGradient>
<linearGradient id="paint13_linear_1446_28" x1="1865.54" y1="1332.77" x2="1838.14" y2="1332.21" gradientUnits="userSpaceOnUse">
<stop stop-color="#4EC4F0"/>
<stop offset="1" stop-color="#3A58A7"/>
</linearGradient>
<linearGradient id="paint14_linear_1446_28" x1="1865.95" y1="925.987" x2="1846.81" y2="924.79" gradientUnits="userSpaceOnUse">
<stop stop-color="#4EC4F0"/>
<stop offset="1" stop-color="#3A58A7"/>
</linearGradient>
<linearGradient id="paint15_linear_1446_28" x1="1805.7" y1="1211.65" x2="872.362" y2="781.633" gradientUnits="userSpaceOnUse">
<stop stop-color="#4EC4F0"/>
<stop offset="1" stop-color="#3A58A7"/>
</linearGradient>
<linearGradient id="paint16_linear_1446_28" x1="1805.7" y1="1211.66" x2="872.361" y2="781.636" gradientUnits="userSpaceOnUse">
<stop stop-color="#4EC4F0"/>
<stop offset="1" stop-color="#3A58A7"/>
</linearGradient>
<linearGradient id="paint17_linear_1446_28" x1="1805.7" y1="816.852" x2="1151.55" y2="258.099" gradientUnits="userSpaceOnUse">
<stop stop-color="#4EC4F0"/>
<stop offset="1" stop-color="#3A58A7"/>
</linearGradient>
<linearGradient id="paint18_linear_1446_28" x1="996.886" y1="242.726" x2="976.111" y2="232.57" gradientUnits="userSpaceOnUse">
<stop stop-color="#4EC4F0"/>
<stop offset="1" stop-color="#3A58A7"/>
</linearGradient>
<linearGradient id="paint19_linear_1446_28" x1="1033.77" y1="263.999" x2="1012.99" y2="253.843" gradientUnits="userSpaceOnUse">
<stop stop-color="#4EC4F0"/>
<stop offset="1" stop-color="#3A58A7"/>
</linearGradient>
<linearGradient id="paint20_linear_1446_28" x1="1070.69" y1="285.285" x2="1049.91" y2="275.133" gradientUnits="userSpaceOnUse">
<stop stop-color="#4EC4F0"/>
<stop offset="1" stop-color="#3A58A7"/>
</linearGradient>
<linearGradient id="paint21_linear_1446_28" x1="1800.33" y1="1282.19" x2="1510.39" y2="1198.98" gradientUnits="userSpaceOnUse">
<stop stop-color="#4EC4F0"/>
<stop offset="1" stop-color="#3A58A7"/>
</linearGradient>
<linearGradient id="paint22_linear_1446_28" x1="1502.43" y1="809.755" x2="1300.44" y2="607.281" gradientUnits="userSpaceOnUse">
<stop stop-color="#4EC4F0"/>
<stop offset="1" stop-color="#3A58A7"/>
</linearGradient>
<linearGradient id="paint23_linear_1446_28" x1="1492.84" y1="830.447" x2="1188.56" y2="508.788" gradientUnits="userSpaceOnUse">
<stop stop-color="#4EC4F0"/>
<stop offset="1" stop-color="#3A58A7"/>
</linearGradient>
<linearGradient id="paint24_linear_1446_28" x1="1492.84" y1="864.432" x2="1188.56" y2="542.772" gradientUnits="userSpaceOnUse">
<stop stop-color="#4EC4F0"/>
<stop offset="1" stop-color="#3A58A7"/>
</linearGradient>
<linearGradient id="paint25_linear_1446_28" x1="1492.84" y1="898.463" x2="1188.56" y2="576.803" gradientUnits="userSpaceOnUse">
<stop stop-color="#4EC4F0"/>
<stop offset="1" stop-color="#3A58A7"/>
</linearGradient>
<linearGradient id="paint26_linear_1446_28" x1="1492.84" y1="932.486" x2="1188.56" y2="610.827" gradientUnits="userSpaceOnUse">
<stop stop-color="#4EC4F0"/>
<stop offset="1" stop-color="#3A58A7"/>
</linearGradient>
<linearGradient id="paint27_linear_1446_28" x1="1500.47" y1="984.651" x2="1280.59" y2="757.049" gradientUnits="userSpaceOnUse">
<stop stop-color="#4EC4F0"/>
<stop offset="1" stop-color="#3A58A7"/>
</linearGradient>
<linearGradient id="paint28_linear_1446_28" x1="1492.84" y1="1034.52" x2="1188.56" y2="712.858" gradientUnits="userSpaceOnUse">
<stop stop-color="#4EC4F0"/>
<stop offset="1" stop-color="#3A58A7"/>
</linearGradient>
<linearGradient id="paint29_linear_1446_28" x1="1492.84" y1="1068.51" x2="1188.56" y2="746.85" gradientUnits="userSpaceOnUse">
<stop stop-color="#4EC4F0"/>
<stop offset="1" stop-color="#3A58A7"/>
</linearGradient>
<linearGradient id="paint30_linear_1446_28" x1="1492.84" y1="1102.53" x2="1188.56" y2="780.874" gradientUnits="userSpaceOnUse">
<stop stop-color="#4EC4F0"/>
<stop offset="1" stop-color="#3A58A7"/>
</linearGradient>
<linearGradient id="paint31_linear_1446_28" x1="1508.8" y1="1175.08" x2="1383.59" y2="1050.5" gradientUnits="userSpaceOnUse">
<stop stop-color="#4EC4F0"/>
<stop offset="1" stop-color="#3A58A7"/>
</linearGradient>
<linearGradient id="paint32_linear_1446_28" x1="781.3" y1="860.812" x2="713.324" y2="839.606" gradientUnits="userSpaceOnUse">
<stop stop-color="#4EC4F0"/>
<stop offset="1" stop-color="#3A58A7"/>
</linearGradient>
<linearGradient id="paint33_linear_1446_28" x1="757.121" y1="945.287" x2="600.739" y2="882.949" gradientUnits="userSpaceOnUse">
<stop stop-color="#4EC4F0"/>
<stop offset="1" stop-color="#3A58A7"/>
</linearGradient>
<linearGradient id="paint34_linear_1446_28" x1="599.876" y1="757.822" x2="565.347" y2="744.187" gradientUnits="userSpaceOnUse">
<stop stop-color="#4EC4F0"/>
<stop offset="1" stop-color="#3A58A7"/>
</linearGradient>
<linearGradient id="paint35_linear_1446_28" x1="644.043" y1="820.746" x2="561.394" y2="790.373" gradientUnits="userSpaceOnUse">
<stop stop-color="#4EC4F0"/>
<stop offset="1" stop-color="#3A58A7"/>
</linearGradient>
<linearGradient id="paint36_linear_1446_28" x1="1179.61" y1="1323.6" x2="998.373" y2="1282.2" gradientUnits="userSpaceOnUse">
<stop stop-color="#4EC4F0"/>
<stop offset="1" stop-color="#3A58A7"/>
</linearGradient>
<linearGradient id="paint37_linear_1446_28" x1="1162.42" y1="850.05" x2="1129.01" y2="840.231" gradientUnits="userSpaceOnUse">
<stop stop-color="#4EC4F0"/>
<stop offset="1" stop-color="#3A58A7"/>
</linearGradient>
<linearGradient id="paint38_linear_1446_28" x1="1166.74" y1="783.871" x2="1053.8" y2="713.443" gradientUnits="userSpaceOnUse">
<stop stop-color="#4EC4F0"/>
<stop offset="1" stop-color="#3A58A7"/>
</linearGradient>
<linearGradient id="paint39_linear_1446_28" x1="1174.27" y1="709.9" x2="1155.62" y2="698.443" gradientUnits="userSpaceOnUse">
<stop stop-color="#4EC4F0"/>
<stop offset="1" stop-color="#3A58A7"/>
</linearGradient>
<linearGradient id="paint40_linear_1446_28" x1="1132.79" y1="772.01" x2="1125.54" y2="769.787" gradientUnits="userSpaceOnUse">
<stop stop-color="#4EC4F0"/>
<stop offset="1" stop-color="#3A58A7"/>
</linearGradient>
<linearGradient id="paint41_linear_1446_28" x1="1056.34" y1="1003.54" x2="936.198" y2="934.211" gradientUnits="userSpaceOnUse">
<stop stop-color="#4EC4F0"/>
<stop offset="1" stop-color="#3A58A7"/>
</linearGradient>
<linearGradient id="paint42_linear_1446_28" x1="1516.67" y1="1038.18" x2="1426.85" y2="988.1" gradientUnits="userSpaceOnUse">
<stop stop-color="#4EC4F0"/>
<stop offset="1" stop-color="#3A58A7"/>
</linearGradient>
<linearGradient id="paint43_linear_1446_28" x1="1613.3" y1="1135.16" x2="1457.14" y2="1073.04" gradientUnits="userSpaceOnUse">
<stop stop-color="#4EC4F0"/>
<stop offset="1" stop-color="#3A58A7"/>
</linearGradient>
<linearGradient id="paint44_linear_1446_28" x1="1662.46" y1="1057.92" x2="1586.8" y2="1031.26" gradientUnits="userSpaceOnUse">
<stop stop-color="#4EC4F0"/>
<stop offset="1" stop-color="#3A58A7"/>
</linearGradient>
<radialGradient id="paint45_radial_1446_28" cx="0" cy="0" r="1" gradientUnits="userSpaceOnUse" gradientTransform="translate(484.133 957.518) rotate(90) scale(14.9317 24.1172)">
<stop stop-color="white"/>
<stop offset="0.3" stop-color="#3392FF"/>
<stop offset="0.35" stop-color="#339CFF" stop-opacity="0.93"/>
<stop offset="0.47" stop-color="#339CFF" stop-opacity="0.76"/>
<stop offset="0.63" stop-color="#3392FF" stop-opacity="0.49"/>
<stop offset="0.81" stop-color="#33AAFF" stop-opacity="0.14"/>
<stop offset="1" stop-opacity="0"/>
</radialGradient>
<radialGradient id="paint46_radial_1446_28" cx="0" cy="0" r="1" gradientUnits="userSpaceOnUse" gradientTransform="translate(484.133 1041.44) rotate(90) scale(14.9317 24.1172)">
<stop stop-color="white"/>
<stop offset="0.3" stop-color="#3392FF"/>
<stop offset="0.35" stop-color="#339CFF" stop-opacity="0.93"/>
<stop offset="0.47" stop-color="#339CFF" stop-opacity="0.76"/>
<stop offset="0.63" stop-color="#3392FF" stop-opacity="0.49"/>
<stop offset="0.81" stop-color="#33AAFF" stop-opacity="0.14"/>
<stop offset="1" stop-opacity="0"/>
</radialGradient>
<radialGradient id="paint47_radial_1446_28" cx="0" cy="0" r="1" gradientUnits="userSpaceOnUse" gradientTransform="translate(484.133 1125.32) rotate(90) scale(14.9317 24.1172)">
<stop stop-color="white"/>
<stop offset="0.3" stop-color="#3392FF"/>
<stop offset="0.35" stop-color="#339CFF" stop-opacity="0.93"/>
<stop offset="0.47" stop-color="#339CFF" stop-opacity="0.76"/>
<stop offset="0.63" stop-color="#3392FF" stop-opacity="0.49"/>
<stop offset="0.81" stop-color="#33AAFF" stop-opacity="0.14"/>
<stop offset="1" stop-opacity="0"/>
</radialGradient>
<radialGradient id="paint48_radial_1446_28" cx="0" cy="0" r="1" gradientUnits="userSpaceOnUse" gradientTransform="translate(1995.12 965.455) rotate(90) scale(14.9317 24.1172)">
<stop stop-color="white"/>
<stop offset="0.3" stop-color="#3392FF"/>
<stop offset="0.35" stop-color="#339CFF" stop-opacity="0.93"/>
<stop offset="0.47" stop-color="#339CFF" stop-opacity="0.76"/>
<stop offset="0.63" stop-color="#3392FF" stop-opacity="0.49"/>
<stop offset="0.81" stop-color="#33AAFF" stop-opacity="0.14"/>
<stop offset="1" stop-opacity="0"/>
</radialGradient>
<radialGradient id="paint49_radial_1446_28" cx="0" cy="0" r="1" gradientUnits="userSpaceOnUse" gradientTransform="translate(1995.12 1049.38) rotate(90) scale(14.9317 24.1172)">
<stop stop-color="white"/>
<stop offset="0.3" stop-color="#3392FF"/>
<stop offset="0.35" stop-color="#339CFF" stop-opacity="0.93"/>
<stop offset="0.47" stop-color="#339CFF" stop-opacity="0.76"/>
<stop offset="0.63" stop-color="#3392FF" stop-opacity="0.49"/>
<stop offset="0.81" stop-color="#33AAFF" stop-opacity="0.14"/>
<stop offset="1" stop-opacity="0"/>
</radialGradient>
<radialGradient id="paint50_radial_1446_28" cx="0" cy="0" r="1" gradientUnits="userSpaceOnUse" gradientTransform="translate(1995.12 1133.26) rotate(90) scale(14.9317 24.1172)">
<stop stop-color="white"/>
<stop offset="0.3" stop-color="#3392FF"/>
<stop offset="0.35" stop-color="#339CFF" stop-opacity="0.93"/>
<stop offset="0.47" stop-color="#339CFF" stop-opacity="0.76"/>
<stop offset="0.63" stop-color="#3392FF" stop-opacity="0.49"/>
<stop offset="0.81" stop-color="#33AAFF" stop-opacity="0.14"/>
<stop offset="1" stop-opacity="0"/>
</radialGradient>
</defs>
</svg>
