<svg width="273" height="257" viewBox="0 0 273 257" fill="none" xmlns="http://www.w3.org/2000/svg">
<g filter="url(#filter0_d_1583_694)">
<path d="M136.265 230.994C200.062 230.994 251.779 198.915 251.779 159.344C251.779 119.774 200.062 87.6953 136.265 87.6953C72.4677 87.6953 20.75 119.774 20.75 159.344C20.75 198.915 72.4677 230.994 136.265 230.994Z" fill="#00152E"/>
</g>
<path d="M202.479 203.594C211.948 203.594 219.623 198.834 219.623 192.961C219.623 187.089 211.948 182.328 202.479 182.328C193.011 182.328 185.336 187.089 185.336 192.961C185.336 198.834 193.011 203.594 202.479 203.594Z" fill="white"/>
<path d="M46.8865 181.115L27.7121 169.222C27.0335 168.803 27.0335 168.121 27.7121 167.702L133.388 102.158C134.067 101.739 135.161 101.739 135.839 102.158L155.014 114.051C155.692 114.47 155.692 115.152 155.014 115.571L49.3376 181.115C48.6588 181.534 47.5651 181.534 46.8865 181.115Z" fill="black"/>
<path d="M113.393 162.483L128.831 152.895C130.424 151.909 131.219 150.612 131.219 149.322C131.219 148.026 131.225 147.014 131.225 147.014L112.646 135.704C111.796 135.18 111.108 133.9 111.108 132.846V112.398L84.1406 129.137V149.585C84.1406 150.639 84.829 151.919 85.6787 152.443L101.865 162.483C105.048 164.455 110.209 164.455 113.393 162.483Z" fill="url(#paint0_linear_1583_694)"/>
<g opacity="0.5">
<path d="M113.393 162.483L128.831 152.895C130.424 151.909 131.219 150.612 131.219 149.322C131.219 148.026 131.225 147.014 131.225 147.014L112.646 135.704C111.796 135.18 111.108 133.9 111.108 132.846V112.398L84.1406 129.137V149.585C84.1406 150.639 84.829 151.919 85.6787 152.443L101.865 162.483C105.048 164.455 110.209 164.455 113.393 162.483Z" fill="black"/>
</g>
<path d="M90.6151 153.203V155.501L85.6738 152.443C84.8292 151.918 84.1406 150.644 84.1406 149.584V129.137L89.2772 125.953C89.3846 127.354 89.497 128.802 89.6044 130.212L86.0009 132.452V148.43C86.0009 149.49 86.6846 150.764 87.5341 151.288L90.6151 153.203Z" fill="url(#paint1_linear_1583_694)"/>
<path opacity="0.7" d="M90.6151 153.203V155.501L85.6738 152.443C84.8292 151.918 84.1406 150.644 84.1406 149.584V129.137L89.2772 125.953C89.3846 127.354 89.497 128.802 89.6044 130.212L86.0009 132.452V148.43C86.0009 149.49 86.6846 150.764 87.5341 151.288L90.6151 153.203Z" fill="black"/>
<path d="M86 148.433C86 149.487 86.6885 150.767 87.5381 151.291L101.864 160.177C105.047 162.15 110.208 162.15 113.392 160.177L128.836 150.589C132.019 148.617 132.019 145.416 128.836 143.439L114.505 134.548C113.656 134.024 112.967 132.743 112.967 131.689V115.711L86 132.45V148.427V148.433Z" fill="url(#paint2_linear_1583_694)"/>
<path opacity="0.3" d="M86 148.433C86 149.487 86.6885 150.767 87.5381 151.291L101.864 160.177C105.047 162.15 110.208 162.15 113.392 160.177L128.836 150.589C132.019 148.617 132.019 145.416 128.836 143.439L114.505 134.548C113.656 134.024 112.967 132.743 112.967 131.689V115.711L86 132.45V148.427V148.433Z" fill="black"/>
<path opacity="0.7" d="M117.635 136.494L114.505 134.548C113.656 134.024 112.967 132.743 112.967 131.689V115.711L86 132.45V148.427C86 149.482 86.6885 150.762 87.5381 151.287L90.6142 153.196L117.635 136.489V136.494Z" fill="url(#paint3_linear_1583_694)"/>
<path opacity="0.6" d="M117.635 136.494L114.505 134.548C113.656 134.024 112.967 132.743 112.967 131.689V115.711L86 132.45V148.427C86 149.482 86.6885 150.762 87.5381 151.287L90.6142 153.196L117.635 136.489V136.494Z" fill="black"/>
<path d="M131.22 147.016V149.323C131.22 150.619 130.42 151.905 128.833 152.895L113.393 162.479C111.865 163.434 109.888 163.911 107.891 163.948V161.65C109.888 161.624 111.865 161.125 113.393 160.182L128.833 150.588C130.42 149.606 131.22 148.311 131.22 147.016Z" fill="url(#paint4_linear_1583_694)"/>
<path opacity="0.2" d="M131.22 147.016V149.323C131.22 150.619 130.42 151.905 128.833 152.895L113.393 162.479C111.865 163.434 109.888 163.911 107.891 163.948V161.65C109.888 161.624 111.865 161.125 113.393 160.182L128.833 150.588C130.42 149.606 131.22 148.311 131.22 147.016Z" fill="black"/>
<path d="M42.7041 170.499C43.7002 171.119 45.3652 171.082 46.4296 170.426C59.686 162.2 137.458 113.962 150.714 105.743C151.774 105.087 152.633 103.487 152.633 102.171V4.10502C152.633 2.78838 151.827 1.21997 150.831 0.606236C149.835 -0.0127381 148.17 0.0239807 147.111 0.679673L42.8213 65.3573C41.7617 66.013 40.9023 67.6181 40.9023 68.9295V166.995C40.9023 168.312 41.708 169.88 42.7041 170.493V170.499Z" fill="url(#paint5_linear_1583_694)"/>
<path opacity="0.3" d="M42.7041 170.499C43.7002 171.119 45.3652 171.082 46.4296 170.426C59.686 162.2 137.458 113.962 150.714 105.743C151.774 105.087 152.633 103.487 152.633 102.171V4.10502C152.633 2.78838 151.827 1.21997 150.831 0.606236C149.835 -0.0127381 148.17 0.0239807 147.111 0.679673L42.8213 65.3573C41.7617 66.013 40.9023 67.6181 40.9023 68.9295V166.995C40.9023 168.312 41.708 169.88 42.7041 170.493V170.499Z" fill="black"/>
<path d="M46.4257 170.419L150.71 105.737C151.77 105.081 152.629 103.476 152.629 102.165V4.09912C152.629 2.78249 151.77 2.24744 150.71 2.90838L46.4306 67.5913C45.3711 68.2469 44.5117 69.8521 44.5117 71.1634V169.229C44.5117 170.546 45.3711 171.08 46.4306 170.419H46.4257Z" fill="url(#paint6_linear_1583_694)"/>
<path d="M46.4257 170.419L150.71 105.737C151.77 105.081 152.629 103.476 152.629 102.165V4.09912C152.629 2.78249 151.77 2.24744 150.71 2.90838L46.4306 67.5913C45.3711 68.2469 44.5117 69.8521 44.5117 71.1634V169.229C44.5117 170.546 45.3711 171.08 46.4306 170.419H46.4257Z" fill="url(#paint7_linear_1583_694)"/>
<path opacity="0.5" d="M46.4257 170.419L150.71 105.737C151.77 105.081 152.629 103.476 152.629 102.165V4.09912C152.629 2.78249 151.77 2.24744 150.71 2.90838L46.4306 67.5913C45.3711 68.2469 44.5117 69.8521 44.5117 71.1634V169.229C44.5117 170.546 45.3711 171.08 46.4306 170.419H46.4257Z" fill="#00152E"/>
<path d="M46.1425 170.581C45.078 171.084 43.6035 171.068 42.7001 170.502C41.7041 169.882 40.8984 168.319 40.8984 166.993V155.961L44.5019 158.201V169.233C44.5019 170.434 45.2099 170.979 46.1425 170.575V170.581Z" fill="url(#paint8_linear_1583_694)"/>
<path opacity="0.7" d="M46.1425 170.581C45.078 171.084 43.6035 171.068 42.7001 170.502C41.7041 169.882 40.8984 168.319 40.8984 166.993V155.961L44.5019 158.201V169.233C44.5019 170.434 45.2099 170.979 46.1425 170.575V170.581Z" fill="#00152E"/>
<path d="M44.5088 158.195V169.221C44.5088 170.538 45.3682 171.072 46.4277 170.411L150.712 105.729C151.772 105.073 152.631 103.468 152.631 102.156V91.125L44.5039 158.189L44.5088 158.195Z" fill="url(#paint9_linear_1583_694)"/>
<g opacity="0.5">
<path d="M44.5088 158.195V169.221C44.5088 170.538 45.3682 171.072 46.4277 170.411L150.712 105.729C151.772 105.073 152.631 103.468 152.631 102.156V91.125L44.5039 158.189L44.5088 158.195Z" fill="#00152E"/>
</g>
<path d="M48.1094 150.058V72.4456C48.1094 71.6534 48.6269 70.6936 49.2617 70.3002L147.873 9.13705C148.507 8.74363 149.025 9.06361 149.025 9.85044V87.4635C149.025 88.2556 148.513 89.2156 147.878 89.609L49.2617 150.772C48.6269 151.165 48.1094 150.846 48.1094 150.058Z" fill="#FCFCFC"/>
<path d="M98.5673 129.14C97.5713 129.759 96.7656 131.259 96.7656 132.492C96.7656 133.724 97.5713 134.227 98.5673 133.609C99.5634 132.99 100.369 131.49 100.369 130.257C100.369 129.025 99.5634 128.521 98.5673 129.14Z" fill="url(#paint10_linear_1583_694)"/>
<path opacity="0.5" d="M98.5673 129.14C97.5713 129.759 96.7656 131.259 96.7656 132.492C96.7656 133.724 97.5713 134.227 98.5673 133.609C99.5634 132.99 100.369 131.49 100.369 130.257C100.369 129.025 99.5634 128.521 98.5673 129.14Z" fill="white"/>
<path d="M45.0682 69.1277C44.7216 69.7782 44.5117 70.5126 44.5019 71.1684V158.208L40.8984 155.968V68.9389C40.8984 68.2832 41.1182 67.5489 41.4649 66.8984L45.0682 69.1277Z" fill="url(#paint11_linear_1583_694)"/>
<path opacity="0.7" d="M45.0682 69.1277C44.7216 69.7782 44.5117 70.5126 44.5019 71.1684V158.208L40.8984 155.968V68.9389C40.8984 68.2832 41.1182 67.5489 41.4649 66.8984L45.0682 69.1277Z" fill="#00152E"/>
<path d="M82.4831 192.846L108.542 209.054C109.348 209.559 110.656 209.559 111.462 209.054L188.443 161.372C189.248 160.875 189.248 160.061 188.443 159.562L162.383 143.354C161.577 142.851 160.27 142.851 159.464 143.354L82.4831 191.036C81.6775 191.535 81.6775 192.347 82.4831 192.846Z" fill="black"/>
<path d="M186.859 156.696C186.859 156.371 186.658 156.04 186.253 155.788L161.771 140.608C160.965 140.11 159.658 140.11 158.852 140.608L84.1562 187.015C83.751 187.267 83.5508 187.592 83.5508 187.923C83.5508 188.248 83.5508 190.351 83.5508 190.682C83.5508 191.012 83.751 191.337 84.1562 191.589L108.623 206.77C109.429 207.268 110.738 207.268 111.543 206.77L186.249 160.436C186.648 160.19 186.854 159.859 186.854 159.534C186.854 159.204 186.854 157.032 186.854 156.701L186.859 156.696Z" fill="url(#paint12_linear_1583_694)"/>
<path opacity="0.5" d="M186.859 156.696C186.859 156.371 186.658 156.04 186.253 155.788L161.771 140.608C160.965 140.11 159.658 140.11 158.852 140.608L84.1562 187.015C83.751 187.267 83.5508 187.592 83.5508 187.923C83.5508 188.248 83.5508 190.351 83.5508 190.682C83.5508 191.012 83.751 191.337 84.1562 191.589L108.623 206.77C109.429 207.268 110.738 207.268 111.543 206.77L186.249 160.436C186.648 160.19 186.854 159.859 186.854 159.534C186.854 159.204 186.854 157.032 186.854 156.701L186.859 156.696Z" fill="black"/>
<path d="M108.628 203.939L84.1608 188.827C83.3551 188.329 83.3502 187.521 84.1608 187.018L158.856 140.61C159.662 140.112 160.97 140.106 161.776 140.61L186.257 155.791C187.063 156.289 187.063 157.102 186.257 157.6L111.553 203.934C110.747 204.433 109.438 204.438 108.633 203.934L108.628 203.939Z" fill="url(#paint13_linear_1583_694)"/>
<path opacity="0.3" d="M108.628 203.939L84.1608 188.827C83.3551 188.329 83.3502 187.521 84.1608 187.018L158.856 140.61C159.662 140.112 160.97 140.106 161.776 140.61L186.257 155.791C187.063 156.289 187.063 157.102 186.257 157.6L111.553 203.934C110.747 204.433 109.438 204.438 108.633 203.934L108.628 203.939Z" fill="black" fill-opacity="0.8"/>
<path d="M109.993 204.306V207.128C109.5 207.118 109.002 206.997 108.621 206.766L84.164 191.586C83.7588 191.334 83.5586 191.009 83.5586 190.678V187.914C83.5586 188.239 83.7588 188.564 84.164 188.822L108.621 203.939C109.002 204.17 109.5 204.295 109.993 204.306Z" fill="url(#paint14_linear_1583_694)"/>
<path opacity="0.7" d="M109.993 204.306V207.128C109.5 207.118 109.002 206.997 108.621 206.766L84.164 191.586C83.7588 191.334 83.5586 191.009 83.5586 190.678V187.914C83.5586 188.239 83.7588 188.564 84.164 188.822L108.621 203.939C109.002 204.17 109.5 204.295 109.993 204.306Z" fill="black"/>
<path d="M141.238 160.147L144.027 161.878C144.095 161.92 144.173 161.925 144.202 161.925L146.775 160.388L143.777 158.578L141.238 160.151V160.147Z" fill="#00152E"/>
<path d="M144.598 158.073L147.401 159.81C147.445 159.836 147.503 159.846 147.567 159.846H147.669L150.136 158.31L147.137 156.5L144.598 158.073Z" fill="#00152E"/>
<path d="M135.59 163.659L138.388 165.395C138.432 165.421 138.495 165.432 138.553 165.432L142.719 162.909L139.721 161.094L135.596 163.654L135.59 163.659Z" fill="#00152E"/>
<path d="M132.238 165.733L135.036 167.47C135.08 167.495 135.144 167.511 135.202 167.511L137.775 165.974L134.777 164.164L132.238 165.738V165.733Z" fill="#00152E"/>
<path d="M116.909 192.98L119.482 191.442L116.485 189.633L113.945 191.206L116.748 192.943C116.792 192.969 116.85 192.98 116.914 192.98H116.909Z" fill="#00152E"/>
<path d="M128.883 167.821L131.665 169.547C131.729 169.589 131.808 169.594 131.846 169.594L134.42 168.057L131.422 166.242L128.883 167.815V167.821Z" fill="#00152E"/>
<path d="M147.57 160.93L145.031 162.503L147.824 164.234C147.873 164.26 147.932 164.276 147.995 164.276L150.568 162.739L147.57 160.93Z" fill="#00152E"/>
<path d="M138.194 175.065L140.767 173.528L137.77 171.719L135.23 173.292L138.028 175.028C138.072 175.055 138.136 175.07 138.199 175.07L138.194 175.065Z" fill="#00152E"/>
<path d="M151.358 162.199L153.931 160.661L150.929 158.852L148.395 160.426L151.193 162.162C151.236 162.187 151.295 162.199 151.358 162.199Z" fill="#00152E"/>
<path d="M134.839 177.152L137.412 175.614L134.41 173.805L131.871 175.378L134.654 177.104C134.717 177.146 134.796 177.152 134.835 177.152H134.839Z" fill="#00152E"/>
<path d="M131.484 179.222L134.057 177.686L131.059 175.875L128.52 177.449L131.323 179.185C131.372 179.212 131.43 179.228 131.489 179.228L131.484 179.222Z" fill="#00152E"/>
<path d="M144.904 170.899L150.3 167.61L143.512 163.445L140.617 165.239L144.167 167.437C144.211 167.464 144.269 167.515 144.269 167.595C144.269 167.646 144.235 167.699 144.182 167.736L141.941 169.126L144.723 170.852C144.787 170.899 144.866 170.905 144.904 170.905V170.899Z" fill="#00152E"/>
<path d="M122.168 171.982L124.966 173.719C125.01 173.744 125.073 173.76 125.132 173.76L127.705 172.224L124.707 170.414L122.168 171.987V171.982Z" fill="#00152E"/>
<path d="M141.546 172.98L144.119 171.442L141.121 169.633L138.582 171.207L141.366 172.933C141.434 172.98 141.517 172.985 141.551 172.985L141.546 172.98Z" fill="#00152E"/>
<path d="M103.319 191.995L105.892 190.458L102.895 188.648L100.355 190.222L103.139 191.947C103.207 191.99 103.285 191.995 103.319 191.995Z" fill="#00152E"/>
<path d="M95.3203 188.631L98.1279 190.373C98.1719 190.393 98.2305 190.41 98.289 190.41H98.3915L100.857 188.872L97.8594 187.062L95.3203 188.636V188.631Z" fill="#00152E"/>
<path d="M107.996 193.8H108.099L110.564 192.263L107.566 190.453L105.027 192.027L107.83 193.763C107.874 193.79 107.933 193.8 107.996 193.8Z" fill="#00152E"/>
<path d="M110.195 197.136L112.768 195.599L109.765 193.789L107.227 195.362L110.01 197.088C110.078 197.131 110.156 197.136 110.19 197.136H110.195Z" fill="#00152E"/>
<path d="M98.6797 186.55L101.482 188.287C101.526 188.312 101.59 188.322 101.648 188.322L104.221 186.786L101.224 184.977L98.6845 186.55H98.6797Z" fill="#00152E"/>
<path d="M113.551 195.058L116.119 193.521L113.121 191.711L110.582 193.285L113.38 195.021C113.429 195.048 113.487 195.064 113.551 195.064V195.058Z" fill="#00152E"/>
<path d="M108.746 180.311L111.544 182.047C111.593 182.074 111.651 182.089 111.71 182.089L114.284 180.552L111.285 178.742L108.746 180.317V180.311Z" fill="#00152E"/>
<path d="M112.098 178.225L114.891 179.955C114.94 179.982 115.002 180.002 115.066 180.002L117.639 178.466L114.642 176.656L112.103 178.229L112.098 178.225Z" fill="#00152E"/>
<path d="M115.458 176.136L118.241 177.861C118.304 177.904 118.383 177.908 118.421 177.908L120.994 176.372L117.992 174.562L115.453 176.136H115.458Z" fill="#00152E"/>
<path d="M105.391 182.386L108.174 184.111C108.237 184.154 108.315 184.158 108.354 184.158L110.928 182.622L107.93 180.812L105.391 182.386Z" fill="#00152E"/>
<path d="M118.812 174.069L121.61 175.804C121.61 175.804 121.693 175.847 121.776 175.847L124.349 174.31L121.347 172.5L118.812 174.073V174.069Z" fill="#00152E"/>
<path d="M102.031 184.467L104.829 186.203C104.878 186.23 104.936 186.245 105 186.245L107.573 184.708L104.57 182.898L102.031 184.473V184.467Z" fill="#00152E"/>
<path d="M125.52 169.897L128.321 171.638C128.366 171.659 128.424 171.675 128.483 171.675L131.056 170.138L128.059 168.328L125.52 169.902V169.897Z" fill="#00152E"/>
<path d="M133.907 169.405L136.695 171.135C136.759 171.177 136.836 171.182 136.87 171.182H136.973L139.439 169.646L136.441 167.836L133.902 169.409L133.907 169.405Z" fill="#00152E"/>
<path d="M152.016 153.467L154.804 155.198C154.872 155.24 154.95 155.245 154.979 155.245L157.552 153.708L154.555 151.898L152.016 153.472V153.467Z" fill="#00152E"/>
<path d="M155.367 151.394L158.155 153.119C158.204 153.151 158.268 153.166 158.331 153.166L160.904 151.63L157.906 149.82L155.367 151.394Z" fill="#00152E"/>
<path d="M130.551 171.481L133.345 173.212C133.407 173.248 133.481 173.253 133.52 173.253L136.093 171.716L133.096 169.906L130.556 171.481H130.551Z" fill="#00152E"/>
<path d="M158.73 149.309L161.519 151.04C161.587 151.081 161.666 151.087 161.694 151.087L164.267 149.55L161.27 147.734L158.73 149.309Z" fill="#00152E"/>
<path d="M140.231 169.097H140.333L142.798 167.56L139.801 165.75L137.262 167.324L140.05 169.056C140.114 169.097 140.187 169.103 140.225 169.103L140.231 169.097Z" fill="#00152E"/>
<path d="M155.805 155.825L158.587 157.551C158.651 157.599 158.73 157.604 158.773 157.604L161.346 156.067L158.348 154.258L155.809 155.831L155.805 155.825Z" fill="#00152E"/>
<path d="M162.516 151.655L165.299 153.38C165.368 153.427 165.451 153.433 165.48 153.433L168.054 151.896L165.055 150.086L162.516 151.659V151.655Z" fill="#00152E"/>
<path d="M162.128 155.519L164.701 153.982L161.703 152.172L159.164 153.746L161.961 155.482C162.01 155.509 162.07 155.525 162.133 155.525L162.128 155.519Z" fill="#00152E"/>
<path d="M172.476 153.672C172.52 153.693 172.578 153.709 172.637 153.709H172.74L175.205 152.172L168.414 148.008L165.875 149.581L172.476 153.672Z" fill="#00152E"/>
<path d="M127.195 173.568L129.984 175.299C130.047 175.341 130.12 175.346 130.159 175.346H130.262L132.732 173.81L129.734 172L127.195 173.573V173.568Z" fill="#00152E"/>
<path d="M165.922 157.863H166.025L168.49 156.325L165.492 154.516L162.953 156.089L165.741 157.82C165.805 157.863 165.883 157.867 165.917 157.867L165.922 157.863Z" fill="#00152E"/>
<path d="M169.278 155.783L171.851 154.247L168.848 152.438L166.309 154.011L169.092 155.736C169.156 155.783 169.239 155.789 169.278 155.789V155.783Z" fill="#00152E"/>
<path d="M110.414 183.972L113.202 185.697C113.266 185.74 113.344 185.744 113.383 185.744L115.956 184.208L112.958 182.398L110.419 183.972H110.414Z" fill="#00152E"/>
<path d="M103.707 188.144L106.49 189.869C106.554 189.912 106.632 189.916 106.671 189.916H106.773L109.244 188.38L106.246 186.57L103.707 188.144Z" fill="#00152E"/>
<path d="M114.707 189.635L117.28 188.099L114.277 186.289L111.738 187.862L114.541 189.598C114.571 189.614 114.624 189.641 114.707 189.641V189.635Z" fill="#00152E"/>
<path d="M111.348 191.714L113.921 190.177L110.918 188.367L108.379 189.94L111.182 191.677C111.225 191.703 111.284 191.714 111.348 191.714Z" fill="#00152E"/>
<path d="M118.058 187.55H118.161L120.632 186.013L117.633 184.203L115.094 185.777L117.877 187.503C117.946 187.545 118.024 187.55 118.058 187.55Z" fill="#00152E"/>
<path d="M123.836 175.655L126.629 177.385C126.678 177.412 126.741 177.433 126.805 177.433H126.908L129.373 175.896L126.375 174.086L123.836 175.659V175.655Z" fill="#00152E"/>
<path d="M124.772 183.394L127.345 181.857L124.348 180.047L121.809 181.621L124.591 183.347C124.659 183.388 124.738 183.394 124.772 183.394Z" fill="#00152E"/>
<path d="M121.417 185.479L123.991 183.942L120.988 182.133L118.449 183.706L121.251 185.443C121.3 185.469 121.359 185.484 121.417 185.484V185.479Z" fill="#00152E"/>
<path d="M117.129 179.808L119.912 181.534C119.975 181.576 120.053 181.581 120.092 181.581L122.666 180.044L119.668 178.234L117.129 179.808Z" fill="#00152E"/>
<path d="M107.062 186.059L109.846 187.784C109.909 187.826 109.987 187.831 110.026 187.831L112.599 186.294L109.602 184.484L107.062 186.059Z" fill="#00152E"/>
<path d="M120.484 177.733L123.273 179.464C123.335 179.505 123.414 179.511 123.448 179.511L126.021 177.974L123.023 176.164L120.484 177.738V177.733Z" fill="#00152E"/>
<path d="M113.774 181.887L116.557 183.612C116.621 183.654 116.7 183.66 116.738 183.66H116.841L119.307 182.122L116.308 180.312L113.77 181.887H113.774Z" fill="#00152E"/>
<path d="M128.124 181.308L130.697 179.771L127.699 177.961L125.16 179.534L127.959 181.271C128.006 181.297 128.066 181.312 128.129 181.312L128.124 181.308Z" fill="#00152E"/>
<path d="M147.953 155.988L150.755 157.724C150.799 157.751 150.857 157.761 150.921 157.761L153.494 156.224L150.497 154.414L147.958 155.988H147.953Z" fill="#00152E"/>
<path d="M94.5039 189.141L91.9648 190.715L94.7675 192.451C94.8115 192.478 94.87 192.488 94.9335 192.488H95.036L97.5067 190.95L94.5039 189.141Z" fill="#00152E"/>
<path d="M99.5322 190.727L95.7578 193.066L98.5606 194.803C98.6045 194.829 98.6631 194.84 98.7266 194.84H98.8291L102.535 192.537L99.537 190.727H99.5322Z" fill="#00152E"/>
<path d="M90.4297 185.953L87.3633 187.857L90.1513 189.588C90.2148 189.63 90.2929 189.635 90.3272 189.635L93.4276 187.767L90.4297 185.958V185.953Z" fill="#00152E"/>
<path d="M106.414 195.867L103.348 197.772L106.131 199.498C106.199 199.539 106.277 199.545 106.311 199.545L109.412 197.677L106.414 195.867Z" fill="#00152E"/>
<path d="M104.209 192.531L99.5508 195.421L102.353 197.158C102.397 197.184 102.456 197.195 102.519 197.195H102.622L107.212 194.341L104.209 192.531Z" fill="#00152E"/>
<path d="M95.6747 186.315L98.2479 184.778L95.2499 182.969L92.7109 184.542L95.494 186.268C95.5575 186.31 95.6357 186.315 95.6747 186.315Z" fill="#00152E"/>
<path d="M107.137 200.129L109.925 201.86C109.974 201.891 110.037 201.907 110.101 201.907L113.909 199.599L110.911 197.789L107.137 200.129Z" fill="#00152E"/>
<path d="M99.0263 184.23L101.599 182.692L98.6014 180.883L96.0625 182.457L98.8602 184.193C98.9042 184.22 98.9677 184.23 99.0263 184.23Z" fill="#00152E"/>
<path d="M113.913 175.003H114.016L116.486 173.466L113.488 171.656L110.949 173.229L113.742 174.961C113.791 174.986 113.854 175.008 113.918 175.008L113.913 175.003Z" fill="#00152E"/>
<path d="M117.272 172.933L119.845 171.396L116.848 169.586L114.309 171.16L117.101 172.892C117.165 172.927 117.238 172.939 117.278 172.939L117.272 172.933Z" fill="#00152E"/>
<path d="M110.554 177.089H110.656L113.127 175.552L110.129 173.742L107.59 175.317L110.373 177.042C110.441 177.084 110.519 177.089 110.554 177.089Z" fill="#00152E"/>
<path d="M105.741 180.074H105.844L108.314 178.536L105.316 176.727L102.777 178.301L105.57 180.032C105.619 180.058 105.683 180.079 105.746 180.079L105.741 180.074Z" fill="#00152E"/>
<path d="M102.386 182.158L104.959 180.622L101.961 178.812L99.4219 180.386L102.22 182.123C102.269 182.148 102.327 182.164 102.386 182.164V182.158Z" fill="#00152E"/>
<path d="M173.898 158.708L176.706 160.451C176.75 160.471 176.809 160.487 176.868 160.487H176.97L179.441 158.95L176.443 157.141L173.904 158.714L173.898 158.708Z" fill="#00152E"/>
<path d="M156.41 169.561L159.194 171.287C159.256 171.329 159.335 171.339 159.374 171.339L161.947 169.802L158.949 167.992L156.41 169.567V169.561Z" fill="#00152E"/>
<path d="M167.184 162.875L169.972 164.601C170.04 164.643 170.118 164.648 170.147 164.648H170.25L176.075 161.028L173.077 159.219L167.184 162.875Z" fill="#00152E"/>
<path d="M159.77 167.475L162.553 169.201C162.617 169.242 162.694 169.253 162.739 169.253L165.312 167.716L162.314 165.906L159.775 167.479L159.77 167.475Z" fill="#00152E"/>
<path d="M163.121 165.397L165.895 167.118C165.963 167.165 166.046 167.175 166.089 167.175L168.662 165.639L165.665 163.828L163.126 165.402L163.121 165.397Z" fill="#00152E"/>
<path d="M120.625 170.847H120.727L123.198 169.31L120.199 167.5L117.66 169.073L120.444 170.799C120.508 170.841 120.585 170.847 120.625 170.847Z" fill="#00152E"/>
<path d="M176 152.703L173.461 154.276L180.062 158.369C180.106 158.389 180.164 158.404 180.223 158.404H180.326L182.791 156.868L176 152.703Z" fill="#00152E"/>
<path d="M115.617 194.865L118.401 196.59C118.469 196.633 118.548 196.637 118.582 196.637L121.682 194.771L118.684 192.961L115.617 194.865Z" fill="#00152E"/>
<path d="M119.5 192.456L122.278 194.183C122.346 194.23 122.419 194.234 122.464 194.234H122.566L141.638 182.4L138.64 180.586L119.5 192.456Z" fill="#00152E"/>
<path d="M120.264 190.893L122.838 189.357L119.84 187.547L117.301 189.12L120.098 190.856C120.147 190.883 120.206 190.898 120.264 190.898V190.893Z" fill="#00152E"/>
<path d="M111.73 197.279L114.514 199.004C114.577 199.047 114.655 199.053 114.695 199.053L117.795 197.185L114.797 195.375L111.73 197.279Z" fill="#00152E"/>
<path d="M139.458 180.079L142.246 181.81C142.31 181.852 142.383 181.857 142.421 181.857H142.524L145.522 179.989L142.519 178.18L139.453 180.083L139.458 180.079Z" fill="#00152E"/>
<path d="M147.23 175.255L150.023 176.987C150.087 177.024 150.16 177.028 150.194 177.028H150.296L153.294 175.161L150.296 173.352L147.23 175.255Z" fill="#00152E"/>
<path d="M143.344 177.665L146.146 179.401C146.195 179.426 146.254 179.443 146.312 179.443L149.413 177.575L146.41 175.766L143.344 177.669V177.665Z" fill="#00152E"/>
<path d="M151.114 172.843L153.902 174.573C153.966 174.616 154.039 174.621 154.077 174.621H154.181L157.882 172.317L154.883 170.508L151.109 172.847L151.114 172.843Z" fill="#00152E"/>
<path d="M154.71 160.112H154.813L157.279 158.575L154.281 156.766L151.742 158.339L154.535 160.07C154.584 160.096 154.642 160.112 154.706 160.112H154.71Z" fill="#00152E"/>
<path d="M158.938 166.902H159.04L161.507 165.365L158.508 163.555L155.969 165.129L158.763 166.865C158.825 166.902 158.899 166.907 158.933 166.907L158.938 166.902Z" fill="#00152E"/>
<path d="M147.108 174.241L154.096 169.966L151.097 168.156L144.145 172.468L146.948 174.204C146.948 174.204 147.03 174.246 147.113 174.246L147.108 174.241Z" fill="#00152E"/>
<path d="M166.363 162.3H166.466L168.931 160.763L165.934 158.953L163.395 160.526L166.198 162.263C166.241 162.289 166.3 162.3 166.363 162.3Z" fill="#00152E"/>
<path d="M169.715 160.221H169.818L172.283 158.685L169.285 156.875L166.746 158.448L169.539 160.179C169.603 160.216 169.675 160.221 169.71 160.221H169.715Z" fill="#00152E"/>
<path d="M143.753 176.315L146.326 174.778L143.328 172.969L140.789 174.542L143.576 176.273C143.625 176.305 143.689 176.32 143.753 176.32V176.315Z" fill="#00152E"/>
<path d="M162.57 159.949H162.673L165.138 158.411L162.141 156.602L159.602 158.176L162.384 159.902C162.448 159.949 162.531 159.954 162.57 159.954V159.949Z" fill="#00152E"/>
<path d="M126.972 186.729L129.546 185.192L126.547 183.383L124.008 184.956L126.806 186.693C126.855 186.719 126.913 186.734 126.972 186.734V186.729Z" fill="#00152E"/>
<path d="M140.399 178.402L142.968 176.864L139.969 175.055L137.43 176.629L140.237 178.37C140.237 178.37 140.316 178.406 140.399 178.406V178.402Z" fill="#00152E"/>
<path d="M123.618 188.808H123.72L126.186 187.271L123.187 185.461L120.648 187.035L123.452 188.771C123.496 188.797 123.554 188.808 123.618 188.808Z" fill="#00152E"/>
<path d="M130.335 184.652L132.908 183.114L129.91 181.305L127.371 182.879L130.179 184.62C130.207 184.636 130.261 184.657 130.335 184.657V184.652Z" fill="#00152E"/>
<path d="M133.688 182.566H133.79L136.255 181.028L133.258 179.219L130.719 180.792L133.501 182.518C133.565 182.56 133.644 182.566 133.682 182.566H133.688Z" fill="#00152E"/>
<path d="M137.042 180.487H137.144L139.615 178.95L136.617 177.141L134.078 178.714L136.881 180.45C136.924 180.476 136.984 180.487 137.047 180.487H137.042Z" fill="#00152E"/>
<path d="M128.796 165.777L131.369 164.24L128.371 162.43L125.832 164.004L128.616 165.73C128.678 165.771 128.757 165.777 128.796 165.777Z" fill="#00152E"/>
<path d="M173.071 158.136H173.173L175.644 156.599L172.641 154.789L170.102 156.363L172.905 158.099C172.949 158.125 173.007 158.136 173.071 158.136Z" fill="#00152E"/>
<path d="M135.508 161.612L138.081 160.075L135.082 158.266L132.543 159.839L135.327 161.564C135.39 161.607 135.468 161.612 135.508 161.612Z" fill="#00152E"/>
<path d="M142.961 156.987L145.534 155.45L142.535 153.641L139.996 155.214L142.784 156.945C142.848 156.987 142.927 156.992 142.961 156.992V156.987Z" fill="#00152E"/>
<path d="M139.602 159.066L142.17 157.528L139.172 155.719L136.633 157.293L139.421 159.024C139.485 159.066 139.562 159.071 139.602 159.071V159.066Z" fill="#00152E"/>
<path d="M125.44 167.855L128.013 166.317L125.016 164.508L122.477 166.081L125.269 167.812C125.333 167.849 125.406 167.859 125.445 167.859L125.44 167.855Z" fill="#00152E"/>
<path d="M132.153 163.699H132.255L134.721 162.161L131.723 160.352L129.184 161.926L131.967 163.652C132.031 163.693 132.108 163.699 132.148 163.699H132.153Z" fill="#00152E"/>
<path d="M146.316 154.902L148.884 153.364L145.887 151.555L143.348 153.129L146.135 154.86C146.199 154.902 146.277 154.907 146.316 154.907V154.902Z" fill="#00152E"/>
<path d="M159.474 145.537L162.041 143.999L160.41 143.055L157.871 144.629L159.302 145.494C159.351 145.521 159.414 145.537 159.474 145.537Z" fill="#00152E"/>
<path d="M165.049 149.002L167.623 147.466L164.624 145.656L162.086 147.229L164.873 148.955C164.941 148.998 165.02 149.002 165.049 149.002Z" fill="#00152E"/>
<path d="M149.402 151.778H149.504L151.971 150.24L150.34 149.297L147.801 150.87L149.221 151.731C149.285 151.772 149.358 151.778 149.398 151.778H149.402Z" fill="#00152E"/>
<path d="M152.761 149.707H152.864L155.33 148.171L153.699 147.227L151.16 148.801L152.595 149.672C152.64 149.697 152.703 149.707 152.761 149.707Z" fill="#00152E"/>
<path d="M156.117 147.621L158.686 146.084L157.055 145.141L154.516 146.714L155.952 147.585C155.995 147.611 156.059 147.621 156.117 147.621Z" fill="#00152E"/>
<g opacity="0.8">
<path d="M159.936 11.7857V89.6611C159.936 90.6945 159.258 91.9481 158.427 92.4622L60.7294 153.174C60.5586 153.28 60.3828 153.331 60.2314 153.327C60.1679 153.327 60.1045 153.315 60.041 153.3C59.9971 153.29 59.9531 153.274 59.914 153.253C59.8847 153.237 59.8604 153.221 59.8359 153.206C59.8067 153.184 59.7773 153.164 59.7481 153.143C59.7187 153.117 59.6895 153.096 59.665 153.064C59.5479 152.949 59.4551 152.802 59.3867 152.64C59.2891 152.398 59.2305 152.12 59.2305 151.821V74.3389C59.2305 73.3107 59.9092 72.0518 60.7392 71.5377L158.427 10.852C158.818 10.6107 159.169 10.574 159.437 10.7156C159.482 10.7366 159.526 10.7628 159.565 10.7943L159.575 10.8048C159.614 10.8362 159.643 10.8677 159.672 10.9097C159.691 10.9254 159.701 10.9464 159.716 10.9674C159.736 10.9936 159.755 11.0198 159.765 11.0513C159.804 11.1143 159.833 11.1824 159.853 11.2559C159.868 11.2979 159.882 11.3451 159.887 11.3975C159.892 11.4081 159.897 11.4185 159.892 11.429C159.906 11.4762 159.912 11.5234 159.917 11.5759C159.921 11.6388 159.926 11.707 159.926 11.7751L159.936 11.7857Z" fill="#455A64"/>
<path d="M159.098 11.1574C159.152 11.1574 159.196 11.1679 159.245 11.1941C159.25 11.1941 159.254 11.1993 159.259 11.2046L159.288 11.2308L159.327 11.2885L159.362 11.3515C159.362 11.3567 159.371 11.3672 159.376 11.3724L159.367 11.3882L159.416 11.5403V11.5561L159.431 11.577V11.5927C159.431 11.5927 159.44 11.6242 159.44 11.6295C159.44 11.6819 159.45 11.7344 159.45 11.7868V89.6622C159.45 90.5121 158.873 91.5873 158.185 92.0122L60.4873 152.724C60.3652 152.798 60.2822 152.808 60.2334 152.808C60.2334 152.808 60.1846 152.808 60.1308 152.788C60.1162 152.782 60.1064 152.772 60.0918 152.766L60.0283 152.724L60.0185 152.714V152.704L59.9893 152.677C59.9258 152.614 59.872 152.53 59.8281 152.426C59.7499 152.242 59.7109 152.032 59.7109 151.822V74.34C59.7109 73.4902 60.2871 72.4148 60.9755 71.99L158.674 11.3042C158.834 11.2046 158.981 11.1574 159.098 11.1574ZM159.098 10.6328C158.898 10.6328 158.668 10.701 158.429 10.8531L60.7314 71.5389C59.9013 72.0529 59.2227 73.3118 59.2227 74.34V151.822C59.2227 152.121 59.2813 152.399 59.3789 152.641C59.4472 152.803 59.5352 152.95 59.6572 153.066C59.6816 153.097 59.7109 153.118 59.7403 153.144C59.7695 153.165 59.7988 153.185 59.8281 153.207C59.8525 153.222 59.8769 153.238 59.9062 153.254C59.9453 153.275 59.9893 153.291 60.0332 153.301C60.0967 153.317 60.1601 153.328 60.2236 153.328C60.2285 153.328 60.2383 153.328 60.2432 153.328C60.3896 153.328 60.5556 153.275 60.7216 153.175L158.419 92.4634C159.25 91.9494 159.928 90.6956 159.928 89.6622V11.7816C159.928 11.7134 159.923 11.6452 159.919 11.5823C159.913 11.5299 159.909 11.4826 159.894 11.4354C159.898 11.4249 159.894 11.4144 159.889 11.4039C159.885 11.3515 159.87 11.3042 159.855 11.2623C159.836 11.1888 159.806 11.1206 159.767 11.0577C159.757 11.0262 159.738 11 159.718 10.9738C159.704 10.9528 159.693 10.9318 159.674 10.9161C159.644 10.8741 159.616 10.8426 159.576 10.8112C159.576 10.8112 159.572 10.8059 159.567 10.8007C159.527 10.7692 159.484 10.743 159.44 10.722C159.337 10.6695 159.22 10.6433 159.094 10.6433L159.098 10.6328Z" fill="#455A64"/>
<g opacity="0.7">
<path d="M159.936 11.7857V89.6611C159.936 90.6945 159.258 91.9481 158.427 92.4622L60.7294 153.174C60.5586 153.28 60.3828 153.331 60.2314 153.327C60.1679 153.327 60.1045 153.315 60.041 153.3C59.9971 153.29 59.9531 153.274 59.914 153.253C59.8847 153.237 59.8604 153.221 59.8359 153.206C59.8067 153.184 59.7773 153.164 59.7481 153.143C59.7187 153.117 59.6895 153.096 59.665 153.064C59.5479 152.949 59.4551 152.802 59.3867 152.64C59.2891 152.398 59.2305 152.12 59.2305 151.821V74.3389C59.2305 73.3107 59.9092 72.0518 60.7392 71.5377L158.427 10.852C158.818 10.6107 159.169 10.574 159.437 10.7156C159.482 10.7366 159.526 10.7628 159.565 10.7943L159.575 10.8048C159.614 10.8362 159.643 10.8677 159.672 10.9097C159.691 10.9254 159.701 10.9464 159.716 10.9674C159.736 10.9936 159.755 11.0198 159.765 11.0513C159.804 11.1143 159.833 11.1824 159.853 11.2559C159.868 11.2979 159.882 11.3451 159.887 11.3975C159.892 11.4081 159.897 11.4185 159.892 11.429C159.906 11.4762 159.912 11.5234 159.917 11.5759C159.921 11.6388 159.926 11.707 159.926 11.7751L159.936 11.7857Z" fill="#455A64"/>
</g>
</g>
<path d="M159.446 10.7173C159.172 10.5809 158.825 10.6176 158.435 10.8537L60.7372 71.5394C59.9071 72.0535 59.2285 73.3124 59.2285 74.3405V79.6281L57.3047 78.4163V73.1655C57.3047 72.1374 57.9784 70.8838 58.8085 70.3697L156.512 9.68915C156.941 9.41638 157.326 9.41113 157.605 9.59473C157.878 9.76783 159.128 10.5389 159.446 10.7225V10.7173Z" fill="url(#paint15_linear_1583_694)"/>
<path d="M159.932 11.7745C159.927 10.7516 159.254 10.3425 158.428 10.8513L60.7304 71.537C59.9004 72.0511 59.2266 73.3048 59.2266 74.3381V79.6257L159.936 17.0777V11.7693L159.932 11.7745Z" fill="url(#paint16_linear_1583_694)"/>
<g opacity="0.4">
<path d="M158.429 10.855L60.7314 71.5407C60.3212 71.7978 59.9404 72.2385 59.6718 72.7421L57.7578 71.5513C58.0264 71.053 58.3975 70.6175 58.8027 70.371L156.506 9.68526C156.935 9.41775 157.321 9.41249 157.599 9.59085C157.868 9.76919 159.118 10.5298 159.435 10.7134C159.171 10.577 158.815 10.619 158.424 10.855H158.429Z" fill="white"/>
</g>
<path opacity="0.15" d="M57.2969 78.4264V73.1704C57.2969 72.6458 57.4775 72.0688 57.7559 71.5547L59.6748 72.7402C59.3964 73.249 59.2256 73.826 59.2256 74.3454V79.6329L57.2969 78.4264Z" fill="black"/>
<path d="M150.866 17.7899C150.397 18.0836 150.016 18.9491 150.016 19.7255C150.016 20.5018 150.397 20.8953 150.866 20.6067C151.334 20.313 151.715 19.4474 151.715 18.6711C151.715 17.8948 151.334 17.5014 150.866 17.7899Z" fill="#455A64"/>
<path d="M153.928 15.8914C153.459 16.1852 153.078 17.0507 153.078 17.827C153.078 18.6035 153.459 18.9969 153.928 18.7083C154.397 18.4145 154.777 17.549 154.777 16.7727C154.777 15.9964 154.397 15.603 153.928 15.8914Z" fill="#455A64"/>
<path d="M156.986 13.993C156.518 14.2868 156.137 15.1523 156.137 15.9286C156.137 16.705 156.518 17.0984 156.986 16.8099C157.455 16.5161 157.836 15.6506 157.836 14.8743C157.836 14.098 157.455 13.7046 156.986 13.993Z" fill="#455A64"/>
<path opacity="0.9" d="M59.7802 153.179C59.7265 153.143 59.663 153.106 59.5946 153.063C59.4579 152.975 59.2968 152.879 59.1308 152.781H59.1259C59.0429 152.723 58.9599 152.67 58.872 152.623C58.8672 152.617 58.8574 152.613 58.8525 152.613C58.7158 152.529 58.5791 152.445 58.457 152.366C58.3301 152.287 58.2129 152.219 58.125 152.167C58.037 152.108 57.9688 152.073 57.9394 152.057C57.8466 152.004 57.7588 151.93 57.6806 151.831C57.6025 151.742 57.5341 151.631 57.4755 151.5C57.3682 151.253 57.3047 150.96 57.3047 150.645V78.4141L59.2285 79.6258V151.82C59.2431 152.14 59.2968 152.408 59.3847 152.638C59.453 152.801 59.5409 152.948 59.663 153.063C59.6826 153.095 59.7118 153.121 59.746 153.143C59.7558 153.158 59.7655 153.168 59.7802 153.179Z" fill="#37474F"/>
<path d="M91.8863 106.585C91.8863 106.585 88.3317 104.114 87.8679 104.099C87.4089 104.083 77.7656 103.758 77.7656 103.758L81.7841 106.055V106.244L91.8863 106.585Z" fill="#263238"/>
<path d="M74.5625 114.038V107.24L91.8863 84.1016V93.124L81.784 106.065V106.254L91.8863 106.595V115.616L74.5625 114.038Z" fill="#FAFAFA"/>
<path d="M91.8891 84.0957L87.8707 81.6094L70.5469 104.742L74.5604 107.229L91.8891 84.0957Z" fill="#455A64"/>
<path d="M70.5469 104.742V111.546L74.5604 114.032V107.229L70.5469 104.742Z" fill="#37474F"/>
<path d="M102.373 111.139L96.9922 114.475L110.4 61.6844L115.586 58.4688L102.368 111.145L102.373 111.139Z" fill="#FAFAFA"/>
<path d="M115.59 58.4707L111.572 55.9844L106.387 59.1999L110.405 61.6863L115.59 58.4707Z" fill="#455A64"/>
<path d="M106.388 59.1953L110.407 61.6817L96.999 114.473L92.9805 111.986L106.388 59.1953Z" fill="#37474F"/>
<path d="M116.684 86.2307L120.698 88.7171L130.805 75.6505L126.786 73.1641L116.684 86.2307Z" fill="#263238"/>
<path d="M130.806 75.6528L120.703 75.2489V66.2266L138.027 67.8685V74.6667L120.703 97.7419V88.7195L130.806 75.8469V75.6581V75.6528Z" fill="#FAFAFA"/>
<path d="M116.684 63.7344L120.698 66.2207L138.026 67.8625L134.007 65.3762L116.684 63.7344Z" fill="#455A64"/>
<path d="M120.698 66.2207V75.2431L116.684 72.7567V63.7344" fill="#37474F"/>
<path d="M116.684 86.2266L120.698 88.7129V97.7352L116.684 95.2489V86.2266Z" fill="#37474F"/>
<g opacity="0.8">
<path d="M191.481 25.2232V103.099C191.481 104.132 190.802 105.386 189.971 105.9L148.327 131.714C148.156 131.818 147.981 131.87 147.83 131.865C147.766 131.865 147.702 131.855 147.638 131.839C147.595 131.829 147.551 131.813 147.512 131.792C147.483 131.776 147.459 131.761 147.434 131.745C147.405 131.724 147.376 131.702 147.346 131.682C147.316 131.655 147.288 131.634 147.263 131.603C147.146 131.487 147.053 131.34 146.985 131.178C146.887 130.937 146.828 130.659 146.828 130.36V52.8777C146.828 51.8496 147.508 50.5907 148.337 50.0766L189.982 24.2895C190.372 24.0482 190.724 24.0115 190.992 24.1531C191.037 24.174 191.08 24.2003 191.12 24.2317L191.129 24.2423C191.169 24.2738 191.197 24.3053 191.227 24.3472C191.246 24.363 191.256 24.3839 191.271 24.4049C191.29 24.4311 191.31 24.4573 191.319 24.4888C191.359 24.5518 191.388 24.6199 191.408 24.6934C191.422 24.7353 191.436 24.7826 191.442 24.835C191.446 24.8455 191.451 24.856 191.446 24.8665C191.461 24.9137 191.466 24.9609 191.471 25.0133C191.476 25.0763 191.481 25.1445 191.481 25.2127V25.2232Z" fill="#455A64"/>
<path d="M190.643 24.5897C190.696 24.5897 190.74 24.6001 190.789 24.6264C190.794 24.6264 190.8 24.6316 190.804 24.6369L190.834 24.6578L190.872 24.7155L190.907 24.7785C190.907 24.7838 190.917 24.7943 190.917 24.7994L190.907 24.8152L190.956 24.9673V24.9831L190.965 25.0041V25.0197C190.965 25.0197 190.975 25.0512 190.975 25.0565C190.975 25.1089 190.985 25.1614 190.985 25.2139V103.089C190.985 103.939 190.408 105.014 189.72 105.439L148.081 131.253C147.958 131.326 147.876 131.337 147.827 131.337C147.827 131.337 147.778 131.337 147.725 131.316C147.71 131.31 147.7 131.3 147.689 131.294L147.627 131.253L147.616 131.242V131.232L147.587 131.206C147.524 131.142 147.47 131.058 147.426 130.954C147.348 130.77 147.309 130.561 147.309 130.35V52.8737C147.309 52.0239 147.885 50.9485 148.574 50.5237L190.213 24.7417C190.374 24.6421 190.521 24.5949 190.638 24.5949M190.638 24.0703C190.438 24.0703 190.208 24.1386 189.969 24.2907L148.324 50.0778C147.495 50.5918 146.816 51.8507 146.816 52.879V130.361C146.816 130.66 146.874 130.938 146.972 131.179C147.041 131.342 147.128 131.488 147.25 131.604C147.275 131.635 147.305 131.656 147.333 131.683C147.363 131.703 147.392 131.725 147.422 131.746C147.446 131.762 147.47 131.777 147.499 131.793C147.538 131.814 147.582 131.83 147.627 131.84C147.689 131.856 147.753 131.866 147.817 131.866C147.821 131.866 147.832 131.866 147.836 131.866C147.983 131.866 148.149 131.814 148.315 131.715L189.96 105.901C190.789 105.387 191.468 104.133 191.468 103.1V25.2191C191.468 25.151 191.463 25.0827 191.459 25.0197C191.453 24.9673 191.448 24.9201 191.434 24.873C191.439 24.8624 191.434 24.8519 191.429 24.8415C191.424 24.789 191.41 24.7417 191.395 24.6998C191.375 24.6264 191.346 24.5582 191.307 24.4952C191.297 24.4637 191.278 24.4375 191.258 24.4113C191.243 24.3903 191.233 24.3694 191.214 24.3536C191.185 24.3117 191.156 24.2802 191.116 24.2487C191.116 24.2487 191.111 24.2434 191.107 24.2382C191.068 24.2068 191.024 24.1805 190.979 24.1595C190.877 24.1071 190.76 24.0808 190.633 24.0808L190.638 24.0703Z" fill="#455A64"/>
<g opacity="0.8">
<path d="M191.481 25.2232V103.099C191.481 104.132 190.802 105.386 189.971 105.9L148.327 131.714C148.156 131.818 147.981 131.87 147.83 131.865C147.766 131.865 147.702 131.855 147.638 131.839C147.595 131.829 147.551 131.813 147.512 131.792C147.483 131.776 147.459 131.761 147.434 131.745C147.405 131.724 147.376 131.702 147.346 131.682C147.316 131.655 147.288 131.634 147.263 131.603C147.146 131.487 147.053 131.34 146.985 131.178C146.887 130.937 146.828 130.659 146.828 130.36V52.8777C146.828 51.8496 147.508 50.5907 148.337 50.0766L189.982 24.2895C190.372 24.0482 190.724 24.0115 190.992 24.1531C191.037 24.174 191.08 24.2003 191.12 24.2317L191.129 24.2423C191.169 24.2738 191.197 24.3053 191.227 24.3472C191.246 24.363 191.256 24.3839 191.271 24.4049C191.29 24.4311 191.31 24.4573 191.319 24.4888C191.359 24.5518 191.388 24.6199 191.408 24.6934C191.422 24.7353 191.436 24.7826 191.442 24.835C191.446 24.8455 191.451 24.856 191.446 24.8665C191.461 24.9137 191.466 24.9609 191.471 25.0133C191.476 25.0763 191.481 25.1445 191.481 25.2127V25.2232Z" fill="#455A64"/>
</g>
</g>
<path d="M190.986 24.1523C190.713 24.0159 190.366 24.0525 189.975 24.2886L148.331 50.0758C147.501 50.5899 146.822 51.8488 146.822 52.8769V58.1643L144.898 56.9527V51.7019C144.898 50.6738 145.572 49.42 146.402 48.906L188.052 23.1189C188.481 22.8461 188.867 22.8408 189.146 23.0245C189.419 23.1976 190.668 23.9686 190.986 24.1523Z" fill="url(#paint17_linear_1583_694)"/>
<path d="M191.477 25.212C191.472 24.1892 190.798 23.78 189.973 24.2888L148.329 50.0759C147.498 50.59 146.824 51.8437 146.824 52.877V58.1646L191.477 30.5206V25.212Z" fill="url(#paint18_linear_1583_694)"/>
<g opacity="0.4">
<path d="M189.969 24.2925L148.329 50.0796C147.92 50.3366 147.538 50.7772 147.27 51.2808L145.355 50.0901C145.624 49.5918 145.995 49.1564 146.4 48.9099L188.045 23.1227C188.475 22.8553 188.861 22.85 189.138 23.0283C189.407 23.2067 190.658 23.9673 190.975 24.1508C190.711 24.0145 190.355 24.0565 189.963 24.2925H189.969Z" fill="white"/>
</g>
<path opacity="0.15" d="M144.898 56.9576V51.7015C144.898 51.177 145.079 50.6 145.357 50.0859L147.276 51.2715C146.998 51.7802 146.827 52.3573 146.827 52.8765V58.1641L144.898 56.9576Z" fill="black"/>
<path d="M182.412 31.2274C181.943 31.5212 181.562 32.3867 181.562 33.163C181.562 33.9394 181.943 34.3328 182.412 34.0443C182.88 33.7505 183.262 32.885 183.262 32.1087C183.262 31.3324 182.88 30.9389 182.412 31.2274Z" fill="#455A64"/>
<path d="M185.475 29.3367C185.006 29.6305 184.625 30.496 184.625 31.2724C184.625 32.0488 185.006 32.4422 185.475 32.1537C185.944 31.8598 186.324 30.9943 186.324 30.218C186.324 29.4417 185.944 29.0483 185.475 29.3367Z" fill="#455A64"/>
<path d="M188.533 27.4305C188.064 27.7244 187.684 28.5899 187.684 29.3662C187.684 30.1425 188.064 30.5359 188.533 30.2475C189.001 29.9537 189.383 29.0882 189.383 28.3118C189.383 27.5354 189.001 27.142 188.533 27.4305Z" fill="#455A64"/>
<path opacity="0.9" d="M147.374 131.72C147.32 131.683 147.257 131.647 147.188 131.605C147.052 131.516 146.89 131.421 146.725 131.321H146.719C146.636 131.264 146.553 131.212 146.466 131.164C146.461 131.159 146.451 131.154 146.446 131.154C146.31 131.07 146.173 130.986 146.05 130.908C145.924 130.828 145.807 130.761 145.719 130.708C145.63 130.65 145.562 130.613 145.533 130.598C145.44 130.546 145.353 130.472 145.274 130.372C145.197 130.284 145.128 130.173 145.069 130.042C144.962 129.795 144.898 129.502 144.898 129.187V56.9609L146.822 58.1727V130.367C146.837 130.687 146.89 130.955 146.979 131.186C147.047 131.348 147.135 131.495 147.257 131.61C147.276 131.642 147.305 131.668 147.34 131.689C147.35 131.705 147.359 131.716 147.374 131.726V131.72Z" fill="#37474F"/>
<path d="M150.527 62.5541C150.527 62.4597 150.552 62.3548 150.606 62.2499L151.689 59.8421C151.71 59.8054 151.723 59.7845 151.738 59.7687C151.753 59.7582 151.763 59.7477 151.768 59.7477C151.802 59.7268 151.826 59.7319 151.851 59.753C151.875 59.7792 151.885 59.8159 151.885 59.8736V60.6815C151.885 60.7864 151.881 60.865 151.861 60.9333C151.846 60.9961 151.821 61.0696 151.783 61.1536L151.211 62.4229L151.783 62.9842C151.821 63.0209 151.846 63.063 151.861 63.1101C151.875 63.1573 151.885 63.2308 151.885 63.3304V64.1382C151.885 64.1907 151.875 64.2484 151.851 64.3008C151.826 64.3534 151.797 64.39 151.768 64.411C151.768 64.411 151.753 64.4162 151.738 64.4215C151.723 64.4268 151.71 64.4215 151.689 64.411L150.606 63.3461C150.557 63.3042 150.527 63.236 150.527 63.1416V62.5436V62.5541Z" fill="url(#paint19_linear_1583_694)"/>
<path d="M154.479 56.5303C154.499 56.4516 154.524 56.373 154.563 56.2943C154.601 56.2155 154.65 56.1527 154.723 56.1106L155.129 55.8589C155.163 55.8379 155.192 55.8379 155.211 55.8641C155.236 55.8903 155.246 55.9271 155.246 55.9848C155.246 56.011 155.246 56.0373 155.236 56.0739L153.381 64.5717C153.366 64.6399 153.341 64.7186 153.303 64.8025C153.264 64.8865 153.209 64.9494 153.136 64.9966L152.746 65.2379C152.712 65.2589 152.682 65.2589 152.663 65.2327C152.638 65.2065 152.629 65.1697 152.629 65.112C152.629 65.0858 152.629 65.0596 152.638 65.0228L154.479 56.5356V56.5303Z" fill="url(#paint20_linear_1583_694)"/>
<path d="M157.358 58.9241C157.358 59.0186 157.333 59.1235 157.279 59.2284L156.195 61.636C156.175 61.6728 156.16 61.6938 156.147 61.7096C156.132 61.72 156.122 61.7305 156.117 61.7305C156.083 61.7515 156.053 61.7515 156.034 61.7252C156.009 61.699 156 61.6623 156 61.6047V60.7968C156 60.6919 156.005 60.608 156.019 60.545C156.034 60.4821 156.058 60.4086 156.098 60.3247L156.669 59.0552L156.098 58.494C156.064 58.4573 156.034 58.4153 156.019 58.3681C156.005 58.3209 156 58.2474 156 58.1478V57.34C156 57.2876 156.009 57.2299 156.034 57.1773C156.058 57.1249 156.088 57.0882 156.117 57.0672C156.117 57.0672 156.132 57.062 156.147 57.0568C156.16 57.0515 156.175 57.0568 156.195 57.0672L157.279 58.132C157.328 58.174 157.358 58.2422 157.358 58.3366V58.9347V58.9241Z" fill="url(#paint21_linear_1583_694)"/>
<path d="M160.366 58.361C160.405 58.3348 160.439 58.34 160.468 58.3662C160.498 58.3977 160.513 58.445 160.513 58.5131V59.4048C160.513 59.473 160.498 59.536 160.468 59.6041C160.439 59.6724 160.405 59.7143 160.366 59.7405L159.853 60.0553C159.814 60.0815 159.78 60.0762 159.75 60.05C159.722 60.0186 159.707 59.9713 159.707 59.9032V59.0114C159.707 58.9433 159.722 58.8803 159.75 58.8122C159.78 58.7439 159.814 58.7019 159.853 58.6757L160.366 58.361Z" fill="url(#paint22_linear_1583_694)"/>
<path d="M162.073 57.2986C162.112 57.2722 162.146 57.2775 162.175 57.3037C162.205 57.3352 162.22 57.3825 162.22 57.4506V58.3424C162.22 58.4106 162.205 58.4736 162.175 58.5417C162.146 58.6099 162.112 58.6518 162.073 58.6781L161.56 58.9928C161.521 59.019 161.487 59.0138 161.457 58.9876C161.429 58.9561 161.414 58.9089 161.414 58.8408V57.9489C161.414 57.8808 161.429 57.8178 161.457 57.7496C161.487 57.6815 161.521 57.6394 161.56 57.6132L162.073 57.2986Z" fill="url(#paint23_linear_1583_694)"/>
<path d="M163.78 56.2438C163.819 56.2176 163.853 56.2228 163.882 56.2491C163.912 56.2805 163.927 56.3277 163.927 56.396V57.2877C163.927 57.3559 163.912 57.4188 163.882 57.487C163.853 57.5553 163.819 57.5972 163.78 57.6234L163.267 57.9382C163.228 57.9644 163.194 57.9591 163.164 57.9329C163.136 57.9014 163.121 57.8542 163.121 57.786V56.8943C163.121 56.8261 163.136 56.7632 163.164 56.6949C163.194 56.6268 163.228 56.5848 163.267 56.5585L163.78 56.2438Z" fill="url(#paint24_linear_1583_694)"/>
<path d="M150.979 69.05L175.997 53.5285C176.291 53.3448 176.534 53.476 176.534 53.8169C176.534 54.1579 176.295 54.5881 175.997 54.7716L150.979 70.2933C150.686 70.4768 150.441 70.3457 150.441 70.0047C150.441 69.6585 150.68 69.2336 150.979 69.05Z" fill="url(#paint25_linear_1583_694)"/>
<path d="M159.01 79.011L184.028 63.4894C184.322 63.3058 184.565 63.437 184.565 63.7779C184.565 64.1188 184.326 64.549 184.028 64.7326L159.01 80.2542C158.716 80.4377 158.473 80.3066 158.473 79.9657C158.473 79.6194 158.712 79.1946 159.01 79.011Z" fill="#E0E0E0"/>
<path d="M159.01 83.99L170.987 76.5675C171.279 76.3839 171.524 76.5151 171.524 76.856C171.524 77.1969 171.284 77.6271 170.987 77.8107L159.01 85.2332C158.716 85.4167 158.473 85.2856 158.473 84.9447C158.473 84.5984 158.712 84.1735 159.01 83.99Z" fill="#E0E0E0"/>
<path d="M159.01 88.9587L170.987 81.5363C171.279 81.3526 171.524 81.4838 171.524 81.8247C171.524 82.1657 171.284 82.5959 170.987 82.7794L159.01 90.2018C158.716 90.3855 158.473 90.2544 158.473 89.9134C158.473 89.5672 158.712 89.1423 159.01 88.9587Z" fill="#E0E0E0"/>
<path d="M178.076 52.2495L188.046 46.0441C188.339 45.8604 188.583 45.9917 188.583 46.3326C188.583 46.6735 188.344 47.1037 188.046 47.2872L178.076 53.4927C177.783 53.6764 177.539 53.5452 177.539 53.2042C177.539 52.8581 177.778 52.4332 178.076 52.2495Z" fill="url(#paint26_linear_1583_694)"/>
<path d="M150.979 123.816L175.997 108.294C176.291 108.11 176.534 108.242 176.534 108.583C176.534 108.924 176.295 109.354 175.997 109.537L150.979 125.058C150.686 125.242 150.441 125.111 150.441 124.77C150.441 124.424 150.68 123.999 150.979 123.816Z" fill="url(#paint27_linear_1583_694)"/>
<path d="M178.076 107.015L188.046 100.81C188.339 100.626 188.583 100.757 188.583 101.098C188.583 101.439 188.344 101.869 188.046 102.053L178.076 108.258C177.783 108.442 177.539 108.311 177.539 107.97C177.539 107.624 177.778 107.199 178.076 107.015Z" fill="url(#paint28_linear_1583_694)"/>
<path d="M178.076 92.1012L188.046 85.8957C188.339 85.712 188.583 85.8432 188.583 86.1842C188.583 86.5251 188.344 86.9552 188.046 87.1389L178.076 93.3443C177.783 93.528 177.539 93.3967 177.539 93.0559C177.539 92.7096 177.778 92.2847 178.076 92.1012Z" fill="url(#paint29_linear_1583_694)"/>
<path d="M178.076 97.0777L188.046 90.8722C188.339 90.6886 188.583 90.8198 188.583 91.1608C188.583 91.5016 188.344 91.9318 188.046 92.1155L178.076 98.3209C177.783 98.5045 177.539 98.3733 177.539 98.0324C177.539 97.6862 177.778 97.2613 178.076 97.0777Z" fill="url(#paint30_linear_1583_694)"/>
<path d="M150.979 118.84L175.997 103.318C176.291 103.134 176.534 103.265 176.534 103.606C176.534 103.947 176.295 104.377 175.997 104.561L150.979 120.082C150.686 120.266 150.441 120.135 150.441 119.793C150.441 119.448 150.68 119.022 150.979 118.84Z" fill="#F5F5F5"/>
<path d="M169.572 97.3526L175.173 93.88C175.471 93.6964 175.71 93.8276 175.71 94.1686C175.71 94.5094 175.471 94.9396 175.173 95.1233L169.572 98.5958C169.279 98.7793 169.035 98.6482 169.035 98.3073C169.035 97.961 169.274 97.5361 169.572 97.3526Z" fill="url(#paint31_linear_1583_694)"/>
<path d="M150.979 74.0406L165.573 64.9815C165.866 64.798 166.11 64.9291 166.11 65.2701C166.11 65.6111 165.87 66.0412 165.573 66.2248L150.979 75.2839C150.686 75.4674 150.441 75.3363 150.441 74.9953C150.441 74.6491 150.68 74.2243 150.979 74.0406Z" fill="url(#paint32_linear_1583_694)"/>
<path opacity="0.6" d="M150.979 74.0406L165.573 64.9815C165.866 64.798 166.11 64.9291 166.11 65.2701C166.11 65.6111 165.87 66.0412 165.573 66.2248L150.979 75.2839C150.686 75.4674 150.441 75.3363 150.441 74.9953C150.441 74.6491 150.68 74.2243 150.979 74.0406Z" fill="white"/>
<path d="M150.979 79.0086L155.929 75.9347C156.227 75.7511 156.466 75.8823 156.466 76.2232C156.466 76.5641 156.227 76.9943 155.929 77.1778L150.979 80.2518C150.686 80.4354 150.441 80.3043 150.441 79.9633C150.441 79.617 150.68 79.1921 150.979 79.0086Z" fill="url(#paint33_linear_1583_694)"/>
<path opacity="0.6" d="M150.979 79.0086L155.929 75.9347C156.227 75.7511 156.466 75.8823 156.466 76.2232C156.466 76.5641 156.227 76.9943 155.929 77.1778L150.979 80.2518C150.686 80.4354 150.441 80.3043 150.441 79.9633C150.441 79.617 150.68 79.1921 150.979 79.0086Z" fill="white"/>
<path d="M150.979 83.993L155.929 80.9191C156.227 80.7354 156.466 80.8667 156.466 81.2076C156.466 81.5485 156.227 81.9787 155.929 82.1623L150.979 85.2362C150.686 85.4197 150.441 85.2886 150.441 84.9476C150.441 84.6014 150.68 84.1766 150.979 83.993Z" fill="url(#paint34_linear_1583_694)"/>
<path opacity="0.6" d="M150.979 83.993L155.929 80.9191C156.227 80.7354 156.466 80.8667 156.466 81.2076C156.466 81.5485 156.227 81.9787 155.929 82.1623L150.979 85.2362C150.686 85.4197 150.441 85.2886 150.441 84.9476C150.441 84.6014 150.68 84.1766 150.979 83.993Z" fill="white"/>
<path d="M150.979 88.9695L155.929 85.8957C156.227 85.712 156.466 85.8432 156.466 86.1842C156.466 86.5251 156.227 86.9552 155.929 87.1389L150.979 90.2127C150.686 90.3963 150.441 90.2652 150.441 89.9242C150.441 89.5781 150.68 89.1532 150.979 88.9695Z" fill="url(#paint35_linear_1583_694)"/>
<path opacity="0.6" d="M150.979 88.9695L155.929 85.8957C156.227 85.712 156.466 85.8432 156.466 86.1842C156.466 86.5251 156.227 86.9552 155.929 87.1389L150.979 90.2127C150.686 90.3963 150.441 90.2652 150.441 89.9242C150.441 89.5781 150.68 89.1532 150.979 88.9695Z" fill="white"/>
<path d="M150.979 93.9461L155.929 90.8722C156.227 90.6886 156.466 90.8198 156.466 91.1608C156.466 91.5016 156.227 91.9318 155.929 92.1155L150.979 95.1893C150.686 95.3729 150.441 95.2418 150.441 94.9008C150.441 94.5546 150.68 94.1297 150.979 93.9461Z" fill="url(#paint36_linear_1583_694)"/>
<path opacity="0.6" d="M150.979 93.9461L155.929 90.8722C156.227 90.6886 156.466 90.8198 156.466 91.1608C156.466 91.5016 156.227 91.9318 155.929 92.1155L150.979 95.1893C150.686 95.3729 150.441 95.2418 150.441 94.9008C150.441 94.5546 150.68 94.1297 150.979 93.9461Z" fill="white"/>
<path d="M167.65 63.7021L173.999 59.7785C174.291 59.5948 174.536 59.726 174.536 60.067C174.536 60.4079 174.297 60.8381 173.999 61.0217L167.65 64.9454C167.358 65.1289 167.113 64.9978 167.113 64.6568C167.113 64.3106 167.353 63.8857 167.65 63.7021Z" fill="url(#paint37_linear_1583_694)"/>
<path opacity="0.6" d="M167.65 63.7021L173.999 59.7785C174.291 59.5948 174.536 59.726 174.536 60.067C174.536 60.4079 174.297 60.8381 173.999 61.0217L167.65 64.9454C167.358 65.1289 167.113 64.9978 167.113 64.6568C167.113 64.3106 167.353 63.8857 167.65 63.7021Z" fill="white"/>
<path d="M165.029 90.2047L179.623 81.1456C179.917 80.9621 180.16 81.0932 180.16 81.4341C180.16 81.7751 179.921 82.2052 179.623 82.3888L165.029 91.4479C164.736 91.6315 164.492 91.5004 164.492 91.1594C164.492 90.8131 164.731 90.3882 165.029 90.2047Z" fill="#F5F5F5"/>
<path d="M173.447 89.986L188.042 80.9269C188.334 80.7433 188.579 80.8745 188.579 81.2154C188.579 81.5563 188.34 81.9865 188.042 82.1701L173.447 91.2291C173.155 91.4128 172.91 91.2817 172.91 90.9407C172.91 90.5944 173.149 90.1695 173.447 89.986Z" fill="#F5F5F5"/>
<path d="M181.697 79.8584L188.045 75.9347C188.338 75.7511 188.582 75.8823 188.582 76.2232C188.582 76.5641 188.343 76.9943 188.045 77.1778L181.697 81.1015C181.405 81.2852 181.16 81.154 181.16 80.8131C181.16 80.4668 181.399 80.0419 181.697 79.8584Z" fill="#F5F5F5"/>
<path d="M159.01 74.0328L173.603 64.9737C173.897 64.7902 174.141 64.9213 174.141 65.2623C174.141 65.6033 173.902 66.0333 173.603 66.217L159.01 75.276C158.716 75.4596 158.473 75.3285 158.473 74.9875C158.473 74.6413 158.712 74.2164 159.01 74.0328Z" fill="url(#paint38_linear_1583_694)"/>
<path opacity="0.6" d="M159.01 74.0328L173.603 64.9737C173.897 64.7902 174.141 64.9213 174.141 65.2623C174.141 65.6033 173.902 66.0333 173.603 66.217L159.01 75.276C158.716 75.4596 158.473 75.3285 158.473 74.9875C158.473 74.6413 158.712 74.2164 159.01 74.0328Z" fill="white"/>
<path d="M175.674 63.6943L182.022 59.7707C182.315 59.587 182.559 59.7182 182.559 60.0592C182.559 60.4001 182.319 60.8302 182.022 61.0138L175.674 64.9375C175.381 65.1211 175.137 64.99 175.137 64.649C175.137 64.3028 175.376 63.8779 175.674 63.6943Z" fill="url(#paint39_linear_1583_694)"/>
<path opacity="0.6" d="M175.674 63.6943L182.022 59.7707C182.315 59.587 182.559 59.7182 182.559 60.0592C182.559 60.4001 182.319 60.8302 182.022 61.0138L175.674 64.9375C175.381 65.1211 175.137 64.99 175.137 64.649C175.137 64.3028 175.376 63.8779 175.674 63.6943Z" fill="white"/>
<path d="M222.278 28.9319V22.9572L217.586 22.5166C217.512 22.5114 217.444 22.5272 217.39 22.5585C217.209 22.6635 212.766 25.3964 212.708 25.4332C212.532 25.5433 212.474 25.816 212.63 25.9997L217.605 31.796L222.278 28.9266V28.9319Z" fill="url(#paint40_linear_1583_694)"/>
<path d="M217.608 31.7993L212.632 26.003C212.417 25.7565 212.602 25.3578 212.915 25.384L217.608 25.8246V31.7993Z" fill="url(#paint41_linear_1583_694)"/>
<path d="M222.279 22.9538L217.612 25.8283L212.919 25.3877C212.86 25.3877 212.807 25.3877 212.758 25.4139C213.133 25.1779 217.226 22.66 217.397 22.5603C217.45 22.5289 217.518 22.5079 217.591 22.5183L222.283 22.9538H222.279Z" fill="url(#paint42_linear_1583_694)"/>
<path opacity="0.5" d="M222.279 22.9538L217.612 25.8283L212.919 25.3877C212.86 25.3877 212.807 25.3877 212.758 25.4139C213.133 25.1779 217.226 22.66 217.397 22.5603C217.45 22.5289 217.518 22.5079 217.591 22.5183L222.283 22.9538H222.279Z" fill="white"/>
<path d="M217.617 19.0835C217.617 17.9243 218.374 16.5132 219.307 15.9361L220.684 15.0812C221.616 14.5042 223.136 14.5042 224.068 15.0812L238.75 24.1874C239.682 24.7696 240.445 26.1755 240.445 27.3348V45.5578C240.445 46.717 239.688 48.1281 238.75 48.7051L237.373 49.5602C236.441 50.1371 234.922 50.1371 233.99 49.5602L229.653 46.8692L224.019 43.3704L219.307 40.4486C218.374 39.8717 217.617 38.4606 217.617 37.3013V19.0782V19.0835Z" fill="url(#paint43_linear_1583_694)"/>
<path opacity="0.2" d="M240.443 45.5666C240.443 46.7258 239.686 48.1368 238.754 48.7138L237.377 49.5689C236.532 50.0934 235.219 50.1406 234.281 49.7158C235.077 50.041 235.682 49.5584 235.682 48.5197V30.2967C235.682 29.7197 235.492 29.0745 235.189 28.508L239.95 25.5547C240.257 26.1265 240.443 26.7664 240.443 27.3435V45.5666Z" fill="black"/>
<path opacity="0.5" d="M217.668 18.5799C217.864 17.8087 218.523 17.5622 219.305 18.0448L233.991 27.1563C234.455 27.4449 234.885 27.9379 235.183 28.5149L239.944 25.567C239.635 24.9899 239.215 24.4968 238.752 24.2083L224.074 15.0968C223.136 14.5198 221.618 14.5198 220.691 15.0968L219.309 15.9519C218.514 16.4449 217.84 17.5465 217.674 18.5799H217.668Z" fill="white"/>
<path d="M226.653 25.7455L221.062 24.9062L221.843 35.9849L226.653 42.6991V25.7455Z" fill="#455A64"/>
<path d="M226.652 25.7422L232.243 31.8376L231.462 41.951L226.652 42.6958V25.7422Z" fill="#37474F"/>
<path d="M228.959 40.1607L230.238 40.9528L226.665 27.4297L223.09 36.5255L224.369 37.3176L225.141 35.3453L228.183 37.2337L228.954 40.1607H228.959ZM225.61 34.1597L226.665 31.4584L227.718 35.4659L225.61 34.1545V34.1597Z" fill="#FAFAFA"/>
<path d="M222.278 62.9397V56.965L217.586 56.5244C217.512 56.5192 217.444 56.5349 217.39 56.5664C217.209 56.6712 212.766 59.4042 212.708 59.441C212.532 59.5511 212.474 59.8239 212.63 60.0074L217.605 65.8038L222.278 62.9345V62.9397Z" fill="url(#paint44_linear_1583_694)"/>
<path d="M217.608 65.815L212.632 60.0187C212.417 59.772 212.602 59.3734 212.915 59.3997L217.608 59.8403V65.815Z" fill="#EBEBEB"/>
<path d="M222.279 56.9616L217.612 59.8361L212.919 59.3955C212.86 59.3955 212.807 59.3955 212.758 59.4218C213.133 59.1857 217.226 56.6678 217.397 56.5682C217.45 56.5367 217.518 56.5156 217.591 56.5262L222.283 56.9616H222.279Z" fill="url(#paint45_linear_1583_694)"/>
<path d="M222.279 56.9616L217.612 59.8361L212.919 59.3955C212.86 59.3955 212.807 59.3955 212.758 59.4218C213.133 59.1857 217.226 56.6678 217.397 56.5682C217.45 56.5367 217.518 56.5156 217.591 56.5262L222.283 56.9616H222.279Z" fill="#F5F5F5"/>
<path d="M217.617 53.107C217.617 51.9477 218.374 50.5367 219.307 49.9597L220.684 49.1047C221.616 48.5276 223.136 48.5276 224.068 49.1047L238.75 58.2109C239.682 58.7932 240.445 60.199 240.445 61.3583V79.5812C240.445 80.7405 239.688 82.1516 238.75 82.7286L237.373 83.5837C236.441 84.1606 234.922 84.1606 233.99 83.5837L229.653 80.8927L224.019 77.3938L219.307 74.4722C218.374 73.8951 217.617 72.4841 217.617 71.3248V53.1017V53.107Z" fill="#EBEBEB"/>
<path d="M240.443 79.5743C240.443 80.7336 239.686 82.1447 238.754 82.7216L237.377 83.5766C236.532 84.1012 235.219 84.1484 234.281 83.7235C235.077 84.0488 235.682 83.5662 235.682 82.5275V64.3045C235.682 63.7223 235.492 63.0823 235.189 62.5158L239.95 59.5625C240.257 60.1343 240.443 60.7742 240.443 61.3512V79.5743Z" fill="#E0E0E0"/>
<path d="M217.668 52.5851C217.864 51.8141 218.523 51.5674 219.305 52.05L233.991 61.1616C234.455 61.4501 234.885 61.9431 235.183 62.5202L239.944 59.5669C239.635 58.99 239.215 58.4968 238.752 58.2084L224.074 49.0969C223.136 48.5198 221.618 48.5198 220.691 49.0969L219.309 49.9518C218.514 50.4449 217.84 51.5465 217.674 52.5798L217.668 52.5851Z" fill="#F5F5F5"/>
<path d="M226.653 64.2404L227.889 61.7488L232.244 64.4502L226.653 75.7491L221.062 57.5156L225.418 60.2171L226.653 64.2404Z" fill="url(#paint46_linear_1583_694)"/>
<path opacity="0.15" d="M226.653 64.2404L227.889 61.7488L232.244 64.4502L226.653 75.7491L221.062 57.5156L225.418 60.2171L226.653 64.2404Z" fill="black"/>
<path d="M226.655 64.2377L225.419 60.2143L223.477 59.0078C225.035 64.0908 226.655 69.3678 226.655 69.3678L229.834 62.9473L227.89 61.7408L226.655 64.2324V64.2377Z" fill="#37474F"/>
<path d="M222.278 96.9475V90.973L217.586 90.5322C217.512 90.527 217.444 90.5428 217.39 90.5743C217.209 90.6791 212.766 93.4121 212.708 93.4488C212.532 93.5589 212.474 93.8318 212.63 94.0153L217.605 99.8116L222.278 96.9424V96.9475Z" fill="url(#paint47_linear_1583_694)"/>
<path d="M217.608 99.8229L212.632 94.0265C212.417 93.7799 212.602 93.3813 212.915 93.4075L217.608 93.8482V99.8229Z" fill="#37474F"/>
<path d="M222.279 90.9693L217.612 93.8439L212.919 93.4032C212.86 93.4032 212.807 93.4032 212.758 93.4295C213.133 93.1935 217.226 90.6756 217.397 90.5759C217.45 90.5444 217.518 90.5235 217.591 90.534L222.283 90.9693H222.279Z" fill="url(#paint48_linear_1583_694)"/>
<path d="M222.279 90.9693L217.612 93.8439L212.919 93.4032C212.86 93.4032 212.807 93.4032 212.758 93.4295C213.133 93.1935 217.226 90.6756 217.397 90.5759C217.45 90.5444 217.518 90.5235 217.591 90.534L222.283 90.9693H222.279Z" fill="#455A64"/>
<path d="M217.617 87.1109C217.617 85.9517 218.374 84.5406 219.307 83.9636L220.684 83.1085C221.616 82.5263 223.136 82.5263 224.068 83.1085L238.75 92.2148C239.682 92.7971 240.445 94.203 240.445 95.3622V113.585C240.445 114.744 239.688 116.156 238.75 116.733L237.373 117.588C236.441 118.165 234.922 118.165 233.99 117.588L229.653 114.896L224.019 111.398L219.307 108.476C218.374 107.899 217.617 106.488 217.617 105.329V87.1057V87.1109Z" fill="#37474F"/>
<path d="M240.443 113.582C240.443 114.741 239.686 116.152 238.754 116.729L237.377 117.584C236.532 118.108 235.219 118.157 234.281 117.731C235.077 118.057 235.682 117.574 235.682 116.535V98.3123C235.682 97.73 235.492 97.09 235.189 96.5235L239.95 93.5703C240.257 94.142 240.443 94.7821 240.443 95.359V113.582Z" fill="#263238"/>
<path d="M217.668 86.5929C217.864 85.8218 218.523 85.5753 219.305 86.0579L233.991 95.1694C234.455 95.4578 234.885 95.951 235.183 96.5279L239.944 93.5748C239.635 92.9977 239.215 92.5047 238.752 92.2161L224.074 83.1046C223.136 82.5276 221.618 82.5276 220.691 83.1046L219.309 83.9597C218.514 84.4527 217.84 85.5543 217.674 86.5877L217.668 86.5929Z" fill="#455A64"/>
<path d="M229.92 101.028C230.267 99.1451 230.124 97.4036 229.431 96.4174C229.084 95.9191 228.626 95.662 228.103 95.662C228.065 95.662 228.02 95.662 227.981 95.662C227.561 95.6935 227.122 95.8823 226.687 96.2076C225.696 94.2247 224.724 93.0078 224.036 93.0078C224.002 93.0078 223.967 93.0078 223.939 93.0182C223.758 93.0497 223.607 93.1704 223.494 93.375C223.157 93.9782 223.142 95.2791 223.396 96.9996C222.63 96.8423 221.991 96.8738 221.571 97.1412C221.2 97.3721 221.004 97.7655 221.004 98.2848C221.004 99.4231 221.936 100.986 223.387 102.476C223.04 104.364 223.182 106.101 223.875 107.087C224.036 107.318 224.221 107.496 224.427 107.622C224.666 107.769 224.925 107.842 225.203 107.842C225.37 107.842 225.54 107.816 225.72 107.763C226.029 107.674 226.34 107.496 226.653 107.26C227.44 108.844 228.225 109.977 228.855 110.365C229.026 110.47 229.182 110.523 229.329 110.523C229.363 110.523 229.397 110.523 229.431 110.512C229.612 110.481 229.759 110.36 229.876 110.155C230.213 109.552 230.227 108.241 229.973 106.515C230.252 106.568 230.516 106.599 230.749 106.599C231.15 106.599 231.492 106.52 231.751 106.358C232.122 106.127 232.318 105.734 232.318 105.214C232.318 104.076 231.384 102.513 229.934 101.023L229.92 101.028ZM228.245 104.065C228.074 104.396 227.894 104.7 227.708 104.983C227.385 104.816 227.044 104.627 226.683 104.401C226.321 104.176 225.975 103.945 225.647 103.703C225.457 103.179 225.272 102.623 225.086 102.046C224.905 101.479 224.749 100.934 224.607 100.409C224.744 100.084 224.89 99.7588 225.057 99.4336C225.227 99.1031 225.408 98.7989 225.589 98.5156C225.916 98.6834 226.253 98.8724 226.619 99.0978C227 99.3339 227.361 99.5804 227.708 99.8322C227.898 100.357 228.084 100.902 228.265 101.485C228.431 102.02 228.582 102.534 228.719 103.027C228.577 103.373 228.421 103.719 228.245 104.06V104.065ZM228.723 101.385C228.616 101.039 228.504 100.698 228.387 100.367C228.713 100.635 229.022 100.902 229.31 101.175C229.222 101.537 229.12 101.909 228.992 102.282C228.904 101.983 228.817 101.684 228.719 101.385H228.723ZM226.683 98.4264C226.434 98.2743 226.189 98.1327 225.95 98.0016C226.18 97.6973 226.409 97.4351 226.643 97.2148C226.873 97.7131 227.107 98.2638 227.342 98.8566C227.127 98.7097 226.907 98.5629 226.683 98.4264ZM224.607 98.8881C224.519 99.0612 224.436 99.2343 224.353 99.4126C224.221 98.8671 224.11 98.3477 224.021 97.8651C224.315 97.9543 224.632 98.075 224.978 98.2272C224.852 98.4369 224.73 98.6572 224.607 98.8881ZM224.626 102.151C224.739 102.502 224.852 102.848 224.969 103.189C224.617 102.906 224.29 102.623 223.987 102.334C224.08 101.946 224.193 101.553 224.329 101.154C224.422 101.485 224.524 101.815 224.626 102.156V102.151ZM226.619 105.078C226.863 105.23 227.107 105.366 227.346 105.497C227.127 105.786 226.907 106.043 226.683 106.258C226.463 105.775 226.238 105.246 226.014 104.679C226.214 104.815 226.414 104.947 226.619 105.073V105.078ZM228.694 104.616C228.792 104.422 228.885 104.228 228.977 104.034C229.12 104.611 229.236 105.156 229.329 105.655C229.022 105.566 228.689 105.44 228.323 105.282C228.45 105.073 228.577 104.852 228.694 104.616ZM228.03 99.3601C227.698 98.4684 227.357 97.6396 227.014 96.9C227.288 96.6954 227.561 96.5381 227.83 96.4594C227.977 96.4174 228.118 96.3964 228.25 96.3964C228.455 96.3964 228.645 96.4489 228.807 96.5485C228.933 96.6273 229.046 96.7321 229.139 96.8685C229.608 97.5347 229.73 98.9248 229.442 100.556C229.007 100.147 228.533 99.743 228.03 99.3654V99.3601ZM225.325 97.6868C224.818 97.4455 224.338 97.2567 223.895 97.1256C223.65 95.4994 223.68 94.3822 223.924 93.9467C223.987 93.8366 224.061 93.7736 224.144 93.7579C224.159 93.7579 224.172 93.7579 224.187 93.7579C224.266 93.7579 224.353 93.7894 224.451 93.8524C224.915 94.1408 225.584 95.0745 226.312 96.5328C225.975 96.8423 225.643 97.2304 225.325 97.6921V97.6868ZM224.046 100.136C223.826 100.708 223.645 101.285 223.509 101.857C222.254 100.556 221.511 99.2972 221.511 98.5261C221.511 98.2114 221.639 97.9753 221.883 97.8232C222.068 97.7078 222.347 97.6344 222.713 97.6344C222.942 97.6344 223.211 97.6659 223.513 97.7287C223.65 98.4737 223.826 99.2815 224.051 100.131L224.046 100.136ZM225.325 104.191C225.647 105.052 225.98 105.854 226.316 106.583C225.911 106.898 225.515 107.082 225.144 107.108C224.739 107.144 224.398 106.977 224.159 106.636C223.69 105.97 223.567 104.579 223.856 102.948C224.31 103.378 224.803 103.793 225.325 104.186V104.191ZM227.971 105.823C228.494 106.074 228.992 106.269 229.451 106.4C229.695 108.031 229.666 109.154 229.427 109.589C229.363 109.699 229.29 109.762 229.207 109.778C228.762 109.862 227.928 108.797 227.014 106.95C227.342 106.641 227.668 106.269 227.977 105.823H227.971ZM229.275 103.305C229.485 102.754 229.656 102.198 229.788 101.652C231.043 102.953 231.785 104.212 231.785 104.983C231.785 105.298 231.657 105.534 231.414 105.686C231.116 105.87 230.584 105.943 229.832 105.791C229.695 105.025 229.504 104.191 229.275 103.31V103.305Z" fill="url(#paint49_linear_1583_694)"/>
<path d="M227.639 102.379C227.639 103.166 227.194 103.523 226.648 103.187C226.1 102.846 225.656 101.933 225.656 101.152C225.656 100.37 226.1 100.008 226.648 100.344C227.194 100.68 227.639 101.598 227.639 102.379Z" fill="url(#paint50_linear_1583_694)"/>
<g opacity="0.65">
<path d="M229.92 101.028C230.267 99.1451 230.124 97.4036 229.431 96.4174C229.084 95.9191 228.626 95.662 228.103 95.662C228.065 95.662 228.02 95.662 227.981 95.662C227.561 95.6935 227.122 95.8823 226.687 96.2076C225.696 94.2247 224.724 93.0078 224.036 93.0078C224.002 93.0078 223.967 93.0078 223.939 93.0182C223.758 93.0497 223.607 93.1704 223.494 93.375C223.157 93.9782 223.142 95.2791 223.396 96.9996C222.63 96.8423 221.991 96.8738 221.571 97.1412C221.2 97.3721 221.004 97.7655 221.004 98.2848C221.004 99.4231 221.936 100.986 223.387 102.476C223.04 104.364 223.182 106.101 223.875 107.087C224.036 107.318 224.221 107.496 224.427 107.622C224.666 107.769 224.925 107.842 225.203 107.842C225.37 107.842 225.54 107.816 225.72 107.763C226.029 107.674 226.34 107.496 226.653 107.26C227.44 108.844 228.225 109.977 228.855 110.365C229.026 110.47 229.182 110.523 229.329 110.523C229.363 110.523 229.397 110.523 229.431 110.512C229.612 110.481 229.759 110.36 229.876 110.155C230.213 109.552 230.227 108.241 229.973 106.515C230.252 106.568 230.516 106.599 230.749 106.599C231.15 106.599 231.492 106.52 231.751 106.358C232.122 106.127 232.318 105.734 232.318 105.214C232.318 104.076 231.384 102.513 229.934 101.023L229.92 101.028ZM228.245 104.065C228.074 104.396 227.894 104.7 227.708 104.983C227.385 104.816 227.044 104.627 226.683 104.401C226.321 104.176 225.975 103.945 225.647 103.703C225.457 103.179 225.272 102.623 225.086 102.046C224.905 101.479 224.749 100.934 224.607 100.409C224.744 100.084 224.89 99.7588 225.057 99.4336C225.227 99.1031 225.408 98.7989 225.589 98.5156C225.916 98.6834 226.253 98.8724 226.619 99.0978C227 99.3339 227.361 99.5804 227.708 99.8322C227.898 100.357 228.084 100.902 228.265 101.485C228.431 102.02 228.582 102.534 228.719 103.027C228.577 103.373 228.421 103.719 228.245 104.06V104.065ZM228.723 101.385C228.616 101.039 228.504 100.698 228.387 100.367C228.713 100.635 229.022 100.902 229.31 101.175C229.222 101.537 229.12 101.909 228.992 102.282C228.904 101.983 228.817 101.684 228.719 101.385H228.723ZM226.683 98.4264C226.434 98.2743 226.189 98.1327 225.95 98.0016C226.18 97.6973 226.409 97.4351 226.643 97.2148C226.873 97.7131 227.107 98.2638 227.342 98.8566C227.127 98.7097 226.907 98.5629 226.683 98.4264ZM224.607 98.8881C224.519 99.0612 224.436 99.2343 224.353 99.4126C224.221 98.8671 224.11 98.3477 224.021 97.8651C224.315 97.9543 224.632 98.075 224.978 98.2272C224.852 98.4369 224.73 98.6572 224.607 98.8881ZM224.626 102.151C224.739 102.502 224.852 102.848 224.969 103.189C224.617 102.906 224.29 102.623 223.987 102.334C224.08 101.946 224.193 101.553 224.329 101.154C224.422 101.485 224.524 101.815 224.626 102.156V102.151ZM226.619 105.078C226.863 105.23 227.107 105.366 227.346 105.497C227.127 105.786 226.907 106.043 226.683 106.258C226.463 105.775 226.238 105.246 226.014 104.679C226.214 104.815 226.414 104.947 226.619 105.073V105.078ZM228.694 104.616C228.792 104.422 228.885 104.228 228.977 104.034C229.12 104.611 229.236 105.156 229.329 105.655C229.022 105.566 228.689 105.44 228.323 105.282C228.45 105.073 228.577 104.852 228.694 104.616ZM228.03 99.3601C227.698 98.4684 227.357 97.6396 227.014 96.9C227.288 96.6954 227.561 96.5381 227.83 96.4594C227.977 96.4174 228.118 96.3964 228.25 96.3964C228.455 96.3964 228.645 96.4489 228.807 96.5485C228.933 96.6273 229.046 96.7321 229.139 96.8685C229.608 97.5347 229.73 98.9248 229.442 100.556C229.007 100.147 228.533 99.743 228.03 99.3654V99.3601ZM225.325 97.6868C224.818 97.4455 224.338 97.2567 223.895 97.1256C223.65 95.4994 223.68 94.3822 223.924 93.9467C223.987 93.8366 224.061 93.7736 224.144 93.7579C224.159 93.7579 224.172 93.7579 224.187 93.7579C224.266 93.7579 224.353 93.7894 224.451 93.8524C224.915 94.1408 225.584 95.0745 226.312 96.5328C225.975 96.8423 225.643 97.2304 225.325 97.6921V97.6868ZM224.046 100.136C223.826 100.708 223.645 101.285 223.509 101.857C222.254 100.556 221.511 99.2972 221.511 98.5261C221.511 98.2114 221.639 97.9753 221.883 97.8232C222.068 97.7078 222.347 97.6344 222.713 97.6344C222.942 97.6344 223.211 97.6659 223.513 97.7287C223.65 98.4737 223.826 99.2815 224.051 100.131L224.046 100.136ZM225.325 104.191C225.647 105.052 225.98 105.854 226.316 106.583C225.911 106.898 225.515 107.082 225.144 107.108C224.739 107.144 224.398 106.977 224.159 106.636C223.69 105.97 223.567 104.579 223.856 102.948C224.31 103.378 224.803 103.793 225.325 104.186V104.191ZM227.971 105.823C228.494 106.074 228.992 106.269 229.451 106.4C229.695 108.031 229.666 109.154 229.427 109.589C229.363 109.699 229.29 109.762 229.207 109.778C228.762 109.862 227.928 108.797 227.014 106.95C227.342 106.641 227.668 106.269 227.977 105.823H227.971ZM229.275 103.305C229.485 102.754 229.656 102.198 229.788 101.652C231.043 102.953 231.785 104.212 231.785 104.983C231.785 105.298 231.657 105.534 231.414 105.686C231.116 105.87 230.584 105.943 229.832 105.791C229.695 105.025 229.504 104.191 229.275 103.31V103.305Z" fill="white"/>
<path d="M227.643 102.372C227.643 103.158 227.198 103.515 226.651 103.179C226.104 102.838 225.66 101.926 225.66 101.144C225.66 100.363 226.104 100.001 226.651 100.336C227.198 100.672 227.643 101.59 227.643 102.372Z" fill="white"/>
</g>
<path d="M206.609 122.711C208.518 123.11 209.387 123.808 210.471 126.651C211.555 129.494 213.489 136.417 213.943 138.322C214.143 139.172 209.128 146.788 209.343 146.678C209.411 146.641 207.386 143.006 207.386 143.006L209.846 137.945L208.093 133.344L206.609 122.711Z" fill="#FFA8A7"/>
<path d="M205.959 122.755C205.959 122.755 207.703 122.42 208.855 123.448C210.008 124.476 210.183 125.158 210.959 127.272C211.735 129.386 213.02 133.771 213.02 133.771C213.02 133.771 212.654 136.131 209.074 136.598L206.008 129.176C206.008 129.176 204.939 124.686 205.964 122.75L205.959 122.755Z" fill="url(#paint51_linear_1583_694)"/>
<path d="M202.365 183.654C202.316 184.32 202.238 184.918 202.477 185.652C202.823 186.702 203.552 187.184 203.981 187.598C204.411 188.013 204.889 188.627 205.23 189.224C205.533 189.754 205.88 190.368 206.534 190.977C206.94 191.354 208.087 191.391 208.643 191.139C209.195 190.887 209.381 190.667 209.347 189.717C209.313 188.789 206.637 188.443 206.637 188.443L202.365 183.648V183.654Z" fill="#455A64"/>
<path d="M209.002 186.896C209.231 186.991 209.29 187.458 209.324 188.387C209.348 189.089 209.627 190.118 208.723 190.564C207.996 190.92 206.834 190.684 206.341 190.018C205.726 189.189 205.316 188.459 204.436 187.453C203.679 186.577 202.889 186.283 202.552 184.531C202.337 183.408 202.508 182.942 203.211 182.616C204.178 182.17 205.701 183.623 206.463 183.849C207.118 184.043 208.777 186.796 209.002 186.892V186.896Z" fill="url(#paint52_linear_1583_694)"/>
<path opacity="0.2" d="M209.002 186.896C209.231 186.991 209.29 187.458 209.324 188.387C209.348 189.089 209.627 190.118 208.723 190.564C207.996 190.92 206.834 190.684 206.341 190.018C205.726 189.189 205.316 188.459 204.436 187.453C203.679 186.577 202.889 186.283 202.552 184.531C202.337 183.408 202.508 182.942 203.211 182.616C204.178 182.17 205.701 183.623 206.463 183.849C207.118 184.043 208.777 186.796 209.002 186.892V186.896Z" fill="black"/>
<path d="M206.458 183.86C206.419 183.848 206.375 183.828 206.331 183.812C204.935 183.944 204.373 184.977 204.232 185.292C204.104 185.595 204.5 185.837 204.739 185.595C205.281 184.441 206.394 184.185 206.833 184.127C206.692 183.991 206.56 183.891 206.458 183.86Z" fill="#FAFAFA"/>
<path d="M207.085 184.391C205.792 184.58 205.275 185.555 205.138 185.854C205.01 186.159 205.407 186.4 205.646 186.159C206.075 185.241 206.866 184.889 207.394 184.758C207.291 184.627 207.189 184.502 207.085 184.391Z" fill="#FAFAFA"/>
<path d="M190.19 198.029C190.043 198.816 190.307 199.225 191.254 199.813C192.201 200.4 193.686 200.599 195.249 200.112C196.812 199.623 197.558 198.889 198.208 198.716C198.857 198.543 200.464 198.528 201.103 198.322C201.743 198.123 201.733 197.767 201.733 196.938L190.195 198.023L190.19 198.029Z" fill="#455A64"/>
<path d="M201.099 192.961C201.099 192.961 201.402 193.951 201.568 194.823C201.699 195.515 201.884 196.664 201.66 197.183C201.436 197.703 200.556 198.038 199.199 198.028C198.32 198.022 196.948 198.662 196.006 199.229C195.034 199.811 193.985 199.811 192.954 199.685C191.743 199.533 190.493 198.778 190.293 198.243C190.098 197.703 190.049 197.299 192.896 195.998C192.92 195.988 196.206 194.687 197.583 193.049L201.093 192.971L201.099 192.961Z" fill="url(#paint53_linear_1583_694)"/>
<g opacity="0.2">
<path d="M201.099 192.961C201.099 192.961 201.402 193.951 201.568 194.823C201.699 195.515 201.884 196.664 201.66 197.183C201.436 197.703 200.556 198.038 199.199 198.028C198.32 198.022 196.948 198.662 196.006 199.229C195.034 199.811 193.985 199.811 192.954 199.685C191.743 199.533 190.493 198.778 190.293 198.243C190.098 197.703 190.049 197.299 192.896 195.998C192.92 195.988 196.206 194.687 197.583 193.049L201.093 192.971L201.099 192.961Z" fill="black"/>
</g>
<path d="M195.615 199.426C195.615 199.426 195.37 196.799 193.379 196.044C191.582 195.361 190.01 196.793 190.185 198.041C190.302 198.881 192.494 200.78 195.615 199.426Z" fill="#FAFAFA"/>
<path d="M193.887 195.545C193.887 195.545 194.526 195.545 195.244 196.196C195.82 196.715 195.835 197.061 195.835 197.061C195.967 197.276 196.387 197.161 196.353 196.793C196.353 196.793 196.221 195.467 194.595 195.193C194.595 195.193 194.145 195.073 193.887 195.545Z" fill="#FAFAFA"/>
<path d="M195.023 194.959C195.023 194.959 195.678 194.896 196.395 195.547C196.972 196.065 196.972 196.474 196.972 196.474C197.104 196.69 197.524 196.574 197.49 196.208C197.49 196.208 197.358 194.88 195.731 194.608C195.731 194.608 195.282 194.487 195.023 194.959Z" fill="#FAFAFA"/>
<path d="M196.152 194.269C196.152 194.269 196.802 194.158 197.559 194.751C198.164 195.229 198.193 195.633 198.193 195.633C198.34 195.837 198.751 195.69 198.696 195.328C198.696 195.328 198.476 194.017 196.841 193.865C196.841 193.865 196.387 193.781 196.157 194.269H196.152Z" fill="#FAFAFA"/>
<path d="M209.002 185.391V187.173C209.002 187.173 207.898 188.087 206.317 187.253C206.268 187.142 206.137 185.391 206.137 185.391H209.002Z" fill="#FFA8A7"/>
<path d="M201.094 191.734C201.094 191.734 201.094 192.579 201.094 193.067C201.094 193.55 200.566 194.274 199.189 194.221C198.223 194.184 197.549 193.906 197.583 193.051V191.818L201.094 191.74V191.734Z" fill="#FFA8A7"/>
<path d="M210.796 170.254C210.708 166.493 209.985 164.841 209.985 164.841C209.985 164.841 210.253 160.194 210.835 154.501C211.724 145.836 211.313 144.158 209.722 140.261C209.722 140.261 196.148 138.781 195.733 144.845C195.215 152.394 195.157 167.747 195.342 170.412C195.528 173.077 195.528 170.616 196.128 176.014C196.607 180.284 197.594 191.809 197.594 191.809C199.395 192.852 201.103 191.73 201.103 191.73C201.103 191.73 202.212 177.625 202.095 174.55C201.953 170.795 201.753 169.841 201.753 169.841C201.753 169.841 203.34 157.68 203.584 155.72C203.584 155.72 203.804 159.223 203.99 161.888C204.175 164.553 204.16 166.703 204.683 172.216C205.092 176.544 206.084 185.881 206.084 185.881C207.691 186.61 209.043 185.645 209.043 185.645C209.043 185.645 210.859 173.296 210.786 170.254H210.796Z" fill="#455A64"/>
<path d="M202.996 185.833C202.996 185.833 203.074 183.751 205.691 183.462L205.842 183.551C205.842 183.551 205.422 182.732 204.554 182.481C203.68 182.229 202.996 182.47 202.537 183.105C202.078 183.74 202.542 185.429 202.996 185.833Z" fill="#FAFAFA"/>
<path d="M199.656 120.752L200.291 126.392L204.905 125.94L204.378 119.688L199.656 120.752Z" fill="#FFA8A7"/>
<path d="M209.403 125.435C208.895 123.951 207.733 122.398 205.96 122.755C205.497 122.849 205.092 122.918 204.657 123.012C204.618 124.307 202.337 124.984 200.072 124.192C199.389 124.401 198.764 124.616 198.197 124.831C196.575 125.456 195.922 128.351 195.888 133.198C195.854 138.045 195.219 147.775 195.219 147.775C195.219 147.775 198.632 149.722 205.018 148.479C211.404 147.235 211.292 144.901 211.292 144.901C211.292 144.901 211.165 142.059 208.285 137.285C210.731 130.297 210.155 127.633 209.403 125.43V125.435Z" fill="#37474F"/>
<path d="M196.23 113.595C196.23 113.595 195.262 111.623 196.577 109.404C198.125 106.792 201.107 106.346 204.647 107.364C206.401 107.867 208.851 109.871 209.071 113.485C209.242 116.271 202.005 118.327 202.172 120.237L196.23 113.595Z" fill="#263238"/>
<path d="M196.073 114.648C196.073 114.648 195.091 116.337 195.228 116.511C195.364 116.683 196.019 116.851 196.019 116.851L196.068 114.648H196.073Z" fill="#F28F8F"/>
<path d="M199.064 109.298C198.082 109.88 196.389 110.95 196.046 114.894C195.694 118.95 196.568 120.329 197.091 120.843C197.448 121.19 199.235 121.268 200.158 120.932C201.315 120.507 203.805 119.096 204.938 116.978C206.27 114.485 206.475 111.207 204.835 109.969C202.526 108.233 199.894 108.804 199.064 109.298Z" fill="#FFA8A7"/>
<path d="M199.115 114.062C199.115 114.062 197.094 113.396 196.723 110.825C196.352 108.255 199.345 107.164 199.345 107.164L199.12 114.062H199.115Z" fill="#263238"/>
<path d="M198.778 109.474C198.778 109.474 198.002 113.182 199.1 115.485C199.1 115.485 199.671 114.027 200.833 114.409C202.001 114.793 201.937 116.455 201.048 117.326C200.16 118.202 199.262 117.788 199.262 117.788C199.262 117.788 199.794 119.351 200.985 120.589C200.985 120.589 204.423 122.236 207.401 118.627C210.101 115.354 209.599 109.642 205.463 108.294C201.327 106.945 198.778 109.479 198.778 109.479V109.474Z" fill="#263238"/>
<path d="M213.02 124.018C210.428 124.018 208.328 121.762 208.328 118.976V110.531C210.921 110.531 213.02 112.787 213.02 115.572V124.018Z" fill="#263238"/>
<path d="M208.85 109.432C208.426 109.579 208.191 110.073 208.328 110.529L209.871 109.994C209.735 109.537 209.276 109.286 208.85 109.432Z" fill="#263238"/>
<path d="M186.525 133.766C185.856 132.942 185.744 131.127 184.85 129.879C183.981 128.662 184.122 127.371 183.561 127.932C182.96 128.531 183.419 130.54 183.419 130.54C183.419 130.54 182.38 132.611 182.291 133.67C182.204 134.73 184.811 137.389 184.811 137.389L186.52 133.766H186.525Z" fill="#FFA8A7"/>
<path d="M183.564 130.402C183.564 130.402 182.509 131.992 177.749 129.915C176.435 129.343 177.319 132.38 178.935 133.634C180.429 134.798 182.294 135.16 183.788 136.246C183.788 136.093 183.569 130.398 183.569 130.398L183.564 130.402Z" fill="#FFA8A7"/>
<path d="M198.603 124.688C197.245 125.196 196.058 125.779 194.793 128.333C193.167 131.617 190.209 138.048 190.209 138.048L186.522 133.763C186.522 133.763 185.985 132.949 184.989 134.722C183.993 136.496 184.432 136.983 184.432 136.983C184.432 136.983 188.72 143.152 189.506 143.938C190.291 144.726 191.585 144.112 192.431 142.879C193.275 141.647 197.635 133.154 197.635 133.154C197.635 133.154 200.516 127.793 198.597 124.688H198.603Z" fill="#FFA8A7"/>
<path d="M199.256 124.453C198.919 124.569 196.581 124.569 195.126 127.406C193.504 130.553 191.801 134.11 191.801 134.11C191.801 134.11 192.973 137.152 195.971 137.389C195.975 137.074 198.422 132.406 199.344 130.407C200.267 128.409 200.179 125.355 199.261 124.459L199.256 124.453Z" fill="url(#paint54_linear_1583_694)"/>
<path d="M203.582 155.717L203.842 152.769C203.842 152.769 205.833 152.565 207.982 151.086C207.982 151.086 207.098 152.601 204.681 153.293L204.134 156.163L203.993 161.886L203.588 155.717H203.582Z" fill="#37474F"/>
<defs>
<filter id="filter0_d_1583_694" x="0.450001" y="72.3953" width="271.627" height="183.897" filterUnits="userSpaceOnUse" color-interpolation-filters="sRGB">
<feFlood flood-opacity="0" result="BackgroundImageFix"/>
<feColorMatrix in="SourceAlpha" type="matrix" values="0 0 0 0 0 0 0 0 0 0 0 0 0 0 0 0 0 0 127 0" result="hardAlpha"/>
<feOffset dy="5"/>
<feGaussianBlur stdDeviation="10.15"/>
<feComposite in2="hardAlpha" operator="out"/>
<feColorMatrix type="matrix" values="0 0 0 0 1 0 0 0 0 1 0 0 0 0 1 0 0 0 0.3 0"/>
<feBlend mode="normal" in2="BackgroundImageFix" result="effect1_dropShadow_1583_694"/>
<feBlend mode="normal" in="SourceGraphic" in2="effect1_dropShadow_1583_694" result="shape"/>
</filter>
<linearGradient id="paint0_linear_1583_694" x1="86.5263" y1="152.967" x2="130.863" y2="127.415" gradientUnits="userSpaceOnUse">
<stop stop-color="#4EC4F0"/>
<stop offset="1" stop-color="#3A58A7"/>
</linearGradient>
<linearGradient id="paint1_linear_1583_694" x1="84.4687" y1="149.201" x2="92.4378" y2="148.099" gradientUnits="userSpaceOnUse">
<stop stop-color="#4EC4F0"/>
<stop offset="1" stop-color="#3A58A7"/>
</linearGradient>
<linearGradient id="paint2_linear_1583_694" x1="88.2913" y1="151.859" x2="129.223" y2="126.432" gradientUnits="userSpaceOnUse">
<stop stop-color="#4EC4F0"/>
<stop offset="1" stop-color="#3A58A7"/>
</linearGradient>
<linearGradient id="paint3_linear_1583_694" x1="87.6029" y1="145.202" x2="118.515" y2="128.738" gradientUnits="userSpaceOnUse">
<stop stop-color="#4EC4F0"/>
<stop offset="1" stop-color="#3A58A7"/>
</linearGradient>
<linearGradient id="paint4_linear_1583_694" x1="109.073" y1="160.338" x2="125.736" y2="145.847" gradientUnits="userSpaceOnUse">
<stop stop-color="#4EC4F0"/>
<stop offset="1" stop-color="#3A58A7"/>
</linearGradient>
<linearGradient id="paint5_linear_1583_694" x1="46.5634" y1="134.525" x2="166.301" y2="85.0824" gradientUnits="userSpaceOnUse">
<stop stop-color="#4EC4F0"/>
<stop offset="1" stop-color="#3A58A7"/>
</linearGradient>
<linearGradient id="paint6_linear_1583_694" x1="49.9896" y1="134.862" x2="166.421" y2="87.5931" gradientUnits="userSpaceOnUse">
<stop stop-color="#4EC4F0"/>
<stop offset="1" stop-color="#3A58A7"/>
</linearGradient>
<linearGradient id="paint7_linear_1583_694" x1="49.9896" y1="134.862" x2="166.421" y2="87.5931" gradientUnits="userSpaceOnUse">
<stop stop-color="#4EC4F0"/>
<stop offset="1" stop-color="#3A58A7"/>
</linearGradient>
<linearGradient id="paint8_linear_1583_694" x1="41.1642" y1="167.748" x2="47.4362" y2="166.363" gradientUnits="userSpaceOnUse">
<stop stop-color="#4EC4F0"/>
<stop offset="1" stop-color="#3A58A7"/>
</linearGradient>
<linearGradient id="paint9_linear_1583_694" x1="49.9823" y1="153.727" x2="128.131" y2="86.7021" gradientUnits="userSpaceOnUse">
<stop stop-color="#4EC4F0"/>
<stop offset="1" stop-color="#3A58A7"/>
</linearGradient>
<linearGradient id="paint10_linear_1583_694" x1="96.9482" y1="132.808" x2="100.693" y2="131.104" gradientUnits="userSpaceOnUse">
<stop stop-color="#4EC4F0"/>
<stop offset="1" stop-color="#3A58A7"/>
</linearGradient>
<linearGradient id="paint11_linear_1583_694" x1="41.1098" y1="138.737" x2="46.336" y2="138.587" gradientUnits="userSpaceOnUse">
<stop stop-color="#4EC4F0"/>
<stop offset="1" stop-color="#3A58A7"/>
</linearGradient>
<linearGradient id="paint12_linear_1583_694" x1="88.785" y1="192.876" x2="155.254" y2="128.104" gradientUnits="userSpaceOnUse">
<stop stop-color="#4EC4F0"/>
<stop offset="1" stop-color="#3A58A7"/>
</linearGradient>
<linearGradient id="paint13_linear_1583_694" x1="88.789" y1="190.647" x2="152.454" y2="125.862" gradientUnits="userSpaceOnUse">
<stop stop-color="#4EC4F0"/>
<stop offset="1" stop-color="#3A58A7"/>
</linearGradient>
<linearGradient id="paint14_linear_1583_694" x1="84.898" y1="203.031" x2="103.803" y2="186.614" gradientUnits="userSpaceOnUse">
<stop stop-color="#4EC4F0"/>
<stop offset="1" stop-color="#3A58A7"/>
</linearGradient>
<linearGradient id="paint15_linear_1583_694" x1="62.4797" y1="64.6676" x2="131.951" y2="0.833595" gradientUnits="userSpaceOnUse">
<stop stop-color="#4EC4F0"/>
<stop offset="1" stop-color="#3A58A7"/>
</linearGradient>
<linearGradient id="paint16_linear_1583_694" x1="64.3292" y1="64.914" x2="132.661" y2="1.96008" gradientUnits="userSpaceOnUse">
<stop stop-color="#4EC4F0"/>
<stop offset="1" stop-color="#3A58A7"/>
</linearGradient>
<linearGradient id="paint17_linear_1583_694" x1="147.234" y1="50.6444" x2="181.639" y2="22.2661" gradientUnits="userSpaceOnUse">
<stop stop-color="#4EC4F0"/>
<stop offset="1" stop-color="#3A58A7"/>
</linearGradient>
<linearGradient id="paint18_linear_1583_694" x1="149.087" y1="50.8945" x2="182.362" y2="23.389" gradientUnits="userSpaceOnUse">
<stop stop-color="#4EC4F0"/>
<stop offset="1" stop-color="#3A58A7"/>
</linearGradient>
<linearGradient id="paint19_linear_1583_694" x1="150.597" y1="63.4237" x2="152.244" y2="63.1226" gradientUnits="userSpaceOnUse">
<stop stop-color="#4EC4F0"/>
<stop offset="1" stop-color="#3A58A7"/>
</linearGradient>
<linearGradient id="paint20_linear_1583_694" x1="152.761" y1="63.2467" x2="155.946" y2="62.6876" gradientUnits="userSpaceOnUse">
<stop stop-color="#4EC4F0"/>
<stop offset="1" stop-color="#3A58A7"/>
</linearGradient>
<linearGradient id="paint21_linear_1583_694" x1="156.068" y1="60.7453" x2="157.717" y2="60.4444" gradientUnits="userSpaceOnUse">
<stop stop-color="#4EC4F0"/>
<stop offset="1" stop-color="#3A58A7"/>
</linearGradient>
<linearGradient id="paint22_linear_1583_694" x1="159.748" y1="59.7039" x2="160.678" y2="59.4304" gradientUnits="userSpaceOnUse">
<stop stop-color="#4EC4F0"/>
<stop offset="1" stop-color="#3A58A7"/>
</linearGradient>
<linearGradient id="paint23_linear_1583_694" x1="161.455" y1="58.6414" x2="162.385" y2="58.3678" gradientUnits="userSpaceOnUse">
<stop stop-color="#4EC4F0"/>
<stop offset="1" stop-color="#3A58A7"/>
</linearGradient>
<linearGradient id="paint24_linear_1583_694" x1="163.162" y1="57.5868" x2="164.092" y2="57.3131" gradientUnits="userSpaceOnUse">
<stop stop-color="#4EC4F0"/>
<stop offset="1" stop-color="#3A58A7"/>
</linearGradient>
<linearGradient id="paint25_linear_1583_694" x1="151.764" y1="66.766" x2="168.582" y2="50.4068" gradientUnits="userSpaceOnUse">
<stop stop-color="#4EC4F0"/>
<stop offset="1" stop-color="#3A58A7"/>
</linearGradient>
<linearGradient id="paint26_linear_1583_694" x1="178.098" y1="51.9521" x2="185.636" y2="45.0518" gradientUnits="userSpaceOnUse">
<stop stop-color="#4EC4F0"/>
<stop offset="1" stop-color="#3A58A7"/>
</linearGradient>
<linearGradient id="paint27_linear_1583_694" x1="151.764" y1="121.532" x2="168.582" y2="105.172" gradientUnits="userSpaceOnUse">
<stop stop-color="#4EC4F0"/>
<stop offset="1" stop-color="#3A58A7"/>
</linearGradient>
<linearGradient id="paint28_linear_1583_694" x1="178.098" y1="106.718" x2="185.636" y2="99.8175" gradientUnits="userSpaceOnUse">
<stop stop-color="#4EC4F0"/>
<stop offset="1" stop-color="#3A58A7"/>
</linearGradient>
<linearGradient id="paint29_linear_1583_694" x1="178.098" y1="91.8037" x2="185.636" y2="84.9035" gradientUnits="userSpaceOnUse">
<stop stop-color="#4EC4F0"/>
<stop offset="1" stop-color="#3A58A7"/>
</linearGradient>
<linearGradient id="paint30_linear_1583_694" x1="178.098" y1="96.7802" x2="185.636" y2="89.8801" gradientUnits="userSpaceOnUse">
<stop stop-color="#4EC4F0"/>
<stop offset="1" stop-color="#3A58A7"/>
</linearGradient>
<linearGradient id="paint31_linear_1583_694" x1="169.373" y1="97.6379" x2="174.173" y2="93.4966" gradientUnits="userSpaceOnUse">
<stop stop-color="#4EC4F0"/>
<stop offset="1" stop-color="#3A58A7"/>
</linearGradient>
<linearGradient id="paint32_linear_1583_694" x1="151.236" y1="73.1347" x2="161.621" y2="63.3233" gradientUnits="userSpaceOnUse">
<stop stop-color="#4EC4F0"/>
<stop offset="1" stop-color="#3A58A7"/>
</linearGradient>
<linearGradient id="paint33_linear_1583_694" x1="150.746" y1="79.3789" x2="155.143" y2="75.6505" gradientUnits="userSpaceOnUse">
<stop stop-color="#4EC4F0"/>
<stop offset="1" stop-color="#3A58A7"/>
</linearGradient>
<linearGradient id="paint34_linear_1583_694" x1="150.746" y1="84.3633" x2="155.143" y2="80.6349" gradientUnits="userSpaceOnUse">
<stop stop-color="#4EC4F0"/>
<stop offset="1" stop-color="#3A58A7"/>
</linearGradient>
<linearGradient id="paint35_linear_1583_694" x1="150.746" y1="89.3398" x2="155.143" y2="85.6114" gradientUnits="userSpaceOnUse">
<stop stop-color="#4EC4F0"/>
<stop offset="1" stop-color="#3A58A7"/>
</linearGradient>
<linearGradient id="paint36_linear_1583_694" x1="150.746" y1="94.3164" x2="155.143" y2="90.588" gradientUnits="userSpaceOnUse">
<stop stop-color="#4EC4F0"/>
<stop offset="1" stop-color="#3A58A7"/>
</linearGradient>
<linearGradient id="paint37_linear_1583_694" x1="167.49" y1="63.8913" x2="172.745" y2="59.2753" gradientUnits="userSpaceOnUse">
<stop stop-color="#4EC4F0"/>
<stop offset="1" stop-color="#3A58A7"/>
</linearGradient>
<linearGradient id="paint38_linear_1583_694" x1="159.266" y1="73.1269" x2="169.652" y2="63.3154" gradientUnits="userSpaceOnUse">
<stop stop-color="#4EC4F0"/>
<stop offset="1" stop-color="#3A58A7"/>
</linearGradient>
<linearGradient id="paint39_linear_1583_694" x1="175.513" y1="63.8835" x2="180.769" y2="59.2675" gradientUnits="userSpaceOnUse">
<stop stop-color="#4EC4F0"/>
<stop offset="1" stop-color="#3A58A7"/>
</linearGradient>
<linearGradient id="paint40_linear_1583_694" x1="213.032" y1="29.8171" x2="221.525" y2="24.193" gradientUnits="userSpaceOnUse">
<stop stop-color="#4EC4F0"/>
<stop offset="1" stop-color="#3A58A7"/>
</linearGradient>
<linearGradient id="paint41_linear_1583_694" x1="212.796" y1="30.4312" x2="217.888" y2="27.8926" gradientUnits="userSpaceOnUse">
<stop stop-color="#4EC4F0"/>
<stop offset="1" stop-color="#3A58A7"/>
</linearGradient>
<linearGradient id="paint42_linear_1583_694" x1="213.24" y1="25.1219" x2="216.023" y2="20.0713" gradientUnits="userSpaceOnUse">
<stop stop-color="#4EC4F0"/>
<stop offset="1" stop-color="#3A58A7"/>
</linearGradient>
<linearGradient id="paint43_linear_1583_694" x1="218.775" y1="42.4562" x2="243.328" y2="32.4477" gradientUnits="userSpaceOnUse">
<stop stop-color="#4EC4F0"/>
<stop offset="1" stop-color="#3A58A7"/>
</linearGradient>
<linearGradient id="paint44_linear_1583_694" x1="213.032" y1="63.8248" x2="221.525" y2="58.2007" gradientUnits="userSpaceOnUse">
<stop stop-color="#4EC4F0"/>
<stop offset="1" stop-color="#3A58A7"/>
</linearGradient>
<linearGradient id="paint45_linear_1583_694" x1="213.24" y1="59.1297" x2="216.023" y2="54.0791" gradientUnits="userSpaceOnUse">
<stop stop-color="#4EC4F0"/>
<stop offset="1" stop-color="#3A58A7"/>
</linearGradient>
<linearGradient id="paint46_linear_1583_694" x1="221.629" y1="71.8611" x2="233.827" y2="67.1398" gradientUnits="userSpaceOnUse">
<stop stop-color="#4EC4F0"/>
<stop offset="1" stop-color="#3A58A7"/>
</linearGradient>
<linearGradient id="paint47_linear_1583_694" x1="213.032" y1="97.8328" x2="221.525" y2="92.2087" gradientUnits="userSpaceOnUse">
<stop stop-color="#4EC4F0"/>
<stop offset="1" stop-color="#3A58A7"/>
</linearGradient>
<linearGradient id="paint48_linear_1583_694" x1="213.24" y1="93.1376" x2="216.023" y2="88.0869" gradientUnits="userSpaceOnUse">
<stop stop-color="#4EC4F0"/>
<stop offset="1" stop-color="#3A58A7"/>
</linearGradient>
<linearGradient id="paint49_linear_1583_694" x1="221.577" y1="106.788" x2="233.746" y2="101.827" gradientUnits="userSpaceOnUse">
<stop stop-color="#4EC4F0"/>
<stop offset="1" stop-color="#3A58A7"/>
</linearGradient>
<linearGradient id="paint50_linear_1583_694" x1="225.756" y1="102.653" x2="227.894" y2="101.789" gradientUnits="userSpaceOnUse">
<stop stop-color="#4EC4F0"/>
<stop offset="1" stop-color="#3A58A7"/>
</linearGradient>
<linearGradient id="paint51_linear_1583_694" x1="205.899" y1="133.636" x2="214.329" y2="130.763" gradientUnits="userSpaceOnUse">
<stop stop-color="#4EC4F0"/>
<stop offset="1" stop-color="#3A58A7"/>
</linearGradient>
<linearGradient id="paint52_linear_1583_694" x1="202.816" y1="188.982" x2="209.575" y2="185.38" gradientUnits="userSpaceOnUse">
<stop stop-color="#4EC4F0"/>
<stop offset="1" stop-color="#3A58A7"/>
</linearGradient>
<linearGradient id="paint53_linear_1583_694" x1="190.8" y1="198.305" x2="197.533" y2="191.078" gradientUnits="userSpaceOnUse">
<stop stop-color="#4EC4F0"/>
<stop offset="1" stop-color="#3A58A7"/>
</linearGradient>
<linearGradient id="paint54_linear_1583_694" x1="192.216" y1="134.63" x2="201.078" y2="131.087" gradientUnits="userSpaceOnUse">
<stop stop-color="#4EC4F0"/>
<stop offset="1" stop-color="#3A58A7"/>
</linearGradient>
</defs>
</svg>
